<?xml version="1.0" encoding="UTF-8"?>
<svg width="36px" height="36px" viewBox="0 0 36 36" version="1.1" xmlns="http://www.w3.org/2000/svg" xmlns:xlink="http://www.w3.org/1999/xlink">
    <title>关闭26</title>
    <g id="页面-1" stroke="none" stroke-width="1" fill="none" fill-rule="evenodd">
        <g id="建木-H5备份-2" transform="translate(-684.000000, -219.000000)" fill="#000000" fill-rule="nonzero">
            <g id="关闭26" transform="translate(684.000000, 219.000000)">
                <rect id="矩形" opacity="0" x="0" y="0" width="36" height="36"></rect>
                <path d="M17.973,15.4278 L3.9726,1.4274 C3.266318,0.745250023 2.1436474,0.755005727 1.44932656,1.44932656 C0.755005727,2.1436474 0.745250023,3.266318 1.4274,3.9726 L15.426,17.973 L1.4274,31.9734 C0.972422255,32.4280562 0.794561674,33.0909036 0.960816618,33.7122539 C1.12707156,34.3336043 1.61218395,34.8190598 2.23341663,34.985754 C2.85464932,35.1524481 3.51762227,34.9750562 3.9726,34.5204 L17.973,20.5182 L31.9734,34.5204 C32.4283777,34.9753778 33.0915222,35.1530668 33.7130334,34.9865334 C34.3345445,34.82 34.82,34.3345445 34.9865334,33.7130334 C35.1530668,33.0915222 34.9753778,32.4283777 34.5204,31.9734 L20.5182,17.973 L34.5204,3.9726 C35.2232375,3.26926536 35.2228346,2.1293376 34.5195,1.42650004 C33.8161653,0.72366248 32.6762376,0.724065407 31.9734,1.4274 L17.973,15.426 L17.973,15.4278 Z" id="路径"></path>
            </g>
        </g>
    </g>
</svg>