<?xml version="1.0" encoding="UTF-8"?>
<svg width="32px" height="32px" viewBox="0 0 32 32" version="1.1" xmlns="http://www.w3.org/2000/svg" xmlns:xlink="http://www.w3.org/1999/xlink">
    <title>更多_填充</title>
    <g id="页面-1" stroke="none" stroke-width="1" fill="none" fill-rule="evenodd">
        <g id="建木-H5备份-5" transform="translate(-648.000000, -1939.000000)" fill-rule="nonzero">
            <g id="编组-10" transform="translate(628.000000, 1919.000000)">
                <g id="更多_填充" transform="translate(20.000000, 20.000000)">
                    <rect id="矩形" fill="#000000" opacity="0" x="0" y="0" width="32" height="32"></rect>
                    <path d="M8.355904,16.06672 C8.355904,17.909248 6.862336,19.402752 5.01984,19.402752 C3.177344,19.402752 1.683776,17.909248 1.683776,16.06672 C1.683776,14.224192 3.177312,12.730432 5.019808,12.730432 C6.862304,12.730432 8.355904,14.224224 8.355904,16.06672 Z M19.359232,16.06672 C19.359232,17.909248 17.865664,19.402752 16.023168,19.402752 C14.180672,19.402752 12.687136,17.909216 12.687136,16.06672 C12.687136,14.224224 14.180672,12.730432 16.023168,12.730432 C17.865664,12.730432 19.359232,14.224224 19.359232,16.06672 Z M30.362592,16.06672 C30.362592,17.909248 28.869024,19.402752 27.026528,19.402752 C25.184032,19.402752 23.690496,17.909216 23.690496,16.06672 C23.690496,14.224224 25.184,12.730464 27.026528,12.730464 C28.869056,12.730464 30.362592,14.224224 30.362592,16.06672 Z" id="形状" fill="#8095A9"></path>
                </g>
            </g>
        </g>
    </g>
</svg>