<?xml version="1.0" encoding="UTF-8"?>
<svg width="32px" height="32px" viewBox="0 0 32 32" version="1.1" xmlns="http://www.w3.org/2000/svg" xmlns:xlink="http://www.w3.org/1999/xlink">
    <title>flowchart</title>
    <g id="页面-1" stroke="none" stroke-width="1" fill="none" fill-rule="evenodd">
        <g id="建木-H5" transform="translate(-291.000000, -1527.000000)" fill-rule="nonzero">
            <g id="编组-8" transform="translate(291.000000, 1523.000000)">
                <g id="flowchart" transform="translate(0.000000, 4.000000)">
                    <rect id="矩形" fill="#C1D7FF" opacity="0" x="0" y="0" width="32" height="32"></rect>
                    <path d="M5.64285709,2.28571429 C7.1641224,2.28571429 8.45326526,3.26183251 8.86571424,4.60098522 L21.9489795,4.60098522 C25.3264008,4.59713981 28.0928829,7.19056581 28.1885252,10.4502187 C28.2841675,13.7098717 25.674189,16.4503579 22.3019591,16.631133 L21.9489795,16.6403941 L19.8905714,16.6403941 C19.4671231,18.0141904 18.1594325,18.9563473 16.6748991,18.957202 C15.1903656,18.9580567 13.8815122,18.0174062 13.4563673,16.6440985 L9.47959179,16.6403941 C7.15019863,16.6362554 5.23761239,18.4174248 5.15785337,20.6651791 C5.07809435,22.9129334 6.85993861,24.8163105 9.18416322,24.9661084 L9.47959179,24.9753695 L22.5628571,24.9753695 C22.9898248,23.6011961 24.2997987,22.6601229 25.7857143,22.6600985 C27.639813,22.6600985 29.1428571,24.1113135 29.1428571,25.9014778 C29.1428571,27.6916422 27.639813,29.1428571 25.7857143,29.1428571 C24.2997987,29.1428571 22.9898248,28.2017596 22.5628571,26.8275862 L9.47959179,26.8275862 C6.10217055,26.8314316 3.33568845,24.2380056 3.24004615,20.9783527 C3.14440386,17.7186998 5.7543823,14.9782136 9.12661219,14.7974384 L9.47959179,14.7881773 L13.4563673,14.7881773 C13.8795942,13.4130653 15.1886517,12.4701123 16.6744285,12.4701123 C18.1602054,12.4701123 19.4692628,13.4130653 19.8924897,14.7881773 L21.9489795,14.7881773 C24.2783727,14.792316 26.1909589,13.0111466 26.270718,10.7633923 C26.350477,8.51563804 24.5686327,6.6122609 22.2444081,6.46246305 L21.9489795,6.45320197 L8.86571424,6.45320197 C8.4387465,7.82737535 7.12877259,8.76844856 5.64285709,8.76847291 C3.78875831,8.76847288 2.28571429,7.31725794 2.28571429,5.5270936 C2.28571429,3.73692925 3.78875831,2.28571429 5.64285709,2.28571429 Z M25.7857142,24.5123153 C24.9911005,24.5123153 24.3469387,25.1342645 24.3469387,25.9014778 C24.3469387,26.6686911 24.9911005,27.2906404 25.7857142,27.2906404 C26.580328,27.2906404 27.2244897,26.6686911 27.2244897,25.9014778 C27.2244897,25.1342645 26.580328,24.5123153 25.7857142,24.5123153 L25.7857142,24.5123153 Z M16.6734693,14.3251232 C16.1772042,14.3253215 15.7160774,14.5724359 15.4533877,14.9789557 L15.3996734,15.0678621 C15.2458734,15.3490707 15.1970963,15.6728492 15.261551,15.9847094 L15.3095102,16.1569655 L15.3632244,16.2866207 L15.4591428,16.4570246 L15.5780816,16.6144631 L15.4994285,16.5162956 C15.7766576,16.8946791 16.231076,17.1146428 16.7109588,17.1027434 C17.1908416,17.0908439 17.6329669,16.848649 17.8897142,16.4570246 L17.9472653,16.3588571 L17.9856326,16.2866207 L18.0374285,16.1569655 C18.1535595,15.8244547 18.1350548,15.4618289 17.9856326,15.1419507 L17.9472653,15.0678621 L17.893551,14.9789557 L17.8455918,14.9085714 C17.5756297,14.5424813 17.1389212,14.3251232 16.6734693,14.3251232 Z M5.64285709,4.13793103 C4.84824332,4.13793103 4.20408158,4.7598803 4.20408158,5.5270936 C4.20408158,6.29430689 4.84824332,6.91625616 5.64285709,6.91625616 C6.43747087,6.91625616 7.0816326,6.29430689 7.0816326,5.5270936 C7.0816326,4.7598803 6.43747087,4.13793103 5.64285709,4.13793103 Z" id="形状" fill="#042749"></path>
                </g>
            </g>
        </g>
    </g>
</svg>