<?xml version="1.0" encoding="UTF-8"?>
<svg width="150px" height="85px" viewBox="0 0 150 85" version="1.1" xmlns="http://www.w3.org/2000/svg" xmlns:xlink="http://www.w3.org/1999/xlink">
    <title>编组</title>
    <defs>
        <polygon id="path-1" points="0.0622015714 0.229438341 54.857373 0.229438341 54.857373 25.6415121 0.0622015714 25.6415121"></polygon>
        <polygon id="path-3" points="0.332442182 0.460207572 73.4865335 0.460207572 73.4865335 75.2720969 0.332442182 75.2720969"></polygon>
    </defs>
    <g id="页面-1" stroke="none" stroke-width="1" fill="none" fill-rule="evenodd">
        <g id="建木-H5" transform="translate(-30.000000, -3889.000000)">
            <g id="编组" transform="translate(30.000000, 3888.000000)">
                <g id="编组-4" transform="translate(0.000105, 0.590810)">
                    <path d="M123.441015,72.502761 L124.012597,61.0227886 C121.042262,62.443338 117.540271,63.1546634 113.505575,63.1546634 C107.688887,63.1546634 102.53099,61.45883 98.0234774,58.0860759 L87.4796806,58.3928809 L87.3903709,58.4769371 L87.0593997,67.5360916 C94.7263738,75.7252647 104.249939,79.8408653 115.65321,79.8408653 C122.361944,79.8408653 128.233268,78.303688 133.274537,75.2429924 L124.585229,73.970592 L123.441015,72.502761 Z" id="Fill-1" fill="#2AAF6F"></path>
                    <path d="M105.76999,14.5596857 L103.183161,23.789054 C106.401462,22.4452059 109.904503,21.7706551 113.692284,21.7706551 C119.726467,21.7706551 124.691035,23.8226765 128.580735,27.9235673 C128.997864,28.3648622 129.383471,28.8198162 129.756471,29.2810745 L140.346498,33.4113849 L140.462075,33.3693569 L144.900242,23.8794144 C143.426106,21.0498733 141.601037,18.4346755 139.409272,16.0411759 C132.717349,8.73564332 124.052208,5.08340241 113.411747,5.08340241 C106.903697,5.08340241 101.059692,6.51445883 95.8660705,9.35030412 L104.979862,12.8743594 L105.76999,14.5596857 Z" id="Fill-3" fill="#0084FF"></path>
                    <path d="M140.601188,36.3079608 L132.252309,33.1663612 C133.685466,36.0726035 134.414654,39.2940565 134.414654,42.8422779 C134.414654,49.0792463 132.546505,54.0228002 128.81336,57.6771426 C128.205004,58.2707893 127.547264,58.7982418 126.86851,59.2962747 L126.122512,71.3761981 L126.197112,71.4728627 L136.704134,72.8177615 C137.857805,71.8784338 138.963144,70.8561005 140.013846,69.7297477 C146.299147,62.9863409 149.441797,54.4168136 149.441797,44.0222165 C149.441797,37.8398847 148.441528,32.2627573 146.456752,27.2803274 L142.348506,35.6670325 L140.601188,36.3079608 Z" id="Fill-5" fill="#FB6915"></path>
                    <g id="编组" transform="translate(8.405513, 58.414665)">
                        <mask id="mask-2" fill="white">
                            <use xlink:href="#path-1"></use>
                        </mask>
                        <g id="Clip-8"></g>
                        <path d="M54.7848746,7.91007156 L53.1436777,7.56228913 L43.7440956,5.57120842 C39.5770106,7.8785505 34.9528702,9.03747505 29.86537,9.03747505 C23.2060194,9.03747505 17.6530581,6.73328508 13.2043849,2.12700655 C12.6170424,1.51970067 12.0717279,0.885076526 11.5610867,0.229438341 L11.9540493,8.12861763 L10.8098346,9.59644863 L0.0622015714,11.1704006 C0.760918547,12.110779 1.4974608,13.0185858 2.28338606,13.8843644 C5.76331181,17.714174 9.83268151,20.6015037 14.4799374,22.5600126 C19.3446887,24.6099326 24.8430134,25.6417222 30.9854186,25.6417222 C36.985979,25.6417222 42.4076024,24.6099326 47.2576439,22.5600126 C49.3222737,21.6868791 51.2870869,20.6340754 53.1436777,19.390044 C53.1709959,19.3711314 53.1993649,19.3532694 53.2266832,19.3343568 L54.857373,8.00883757 L54.7848746,7.91007156 Z" id="Fill-7" fill="#E53935" mask="url(#mask-2)"></path>
                    </g>
                    <path d="M16.9394212,53.4372439 C15.6060801,50.2326021 14.9346813,46.6192372 14.9346813,42.5897942 C14.9346813,39.0636375 15.4253593,35.8526915 16.393056,32.9464492 L7.45788435,36.3076456 L5.70951586,35.6667173 L3.29815427,30.7441774 L1.55083648,27.1791447 C1.23562581,28.3370186 0.971899553,29.5274642 0.752302789,30.7441774 C0.256371342,33.5033214 4.156675e-13,36.4095637 4.156675e-13,39.47131 C4.156675e-13,50.5530663 2.2274887,59.6952263 6.66250277,66.9135506 L17.603465,65.5129645 L17.6791155,65.4162999 L16.9394212,53.4372439 Z" id="Fill-9" fill="#00C1DE"></path>
                    <path d="M27.1202003,5.86270824 L33.7049511,0.628109787 C24.400983,1.43609979 16.6804231,4.99903102 10.5474742,11.3211063 C7.171568,14.7999813 4.6152095,18.7779399 2.86053679,23.241323 L6.3688315,30.7443875 L7.5971024,33.3690416 L7.71162894,33.4110697 L14.5517004,30.7443875 L17.8656152,29.4509731 C18.8721879,27.5134782 20.1309292,25.7377914 21.6554981,24.1312677 C24.8874581,20.7259418 28.7708535,18.5572925 33.2972787,17.6085084 L26.8680318,7.70669064 L27.1202003,5.86270824 Z" id="Fill-11" fill="#509CD7"></path>
                    <g id="编组" transform="translate(29.419557, 0.000000)">
                        <mask id="mask-4" fill="white">
                            <use xlink:href="#path-3"></use>
                        </mask>
                        <g id="Clip-14"></g>
                        <path d="M70.4268886,25.4982313 L73.4865335,15.0637076 L73.4339984,14.9523331 L63.3567134,11.2633177 C57.7470143,15.1519666 52.9841811,20.8635838 49.0829238,28.4307412 L47.169595,25.2303023 C47.169595,25.2303023 47.1685443,25.2292515 47.1685443,25.2282008 C46.6663086,24.246845 46.1462111,23.2980609 45.6124543,22.3755443 C45.581984,22.3230092 45.5515136,22.2683727 45.5210432,22.2158376 C45.003047,21.3269435 44.4692903,20.4685198 43.9218745,19.6332115 C43.8724914,19.5586117 43.8241591,19.4808597 43.7737254,19.4062599 C43.2347152,18.5930163 42.6809951,17.8070911 42.1136159,17.0463827 C42.0516245,16.9633772 41.9906838,16.8803717 41.9276416,16.7984169 C41.3613131,16.0482156 40.7823762,15.3242817 40.1876788,14.6266155 C40.1214845,14.5488635 40.0552903,14.4721622 39.9880453,14.395461 C39.3891451,13.6998961 38.7776364,13.0295481 38.1503672,12.3865183 C38.0883757,12.3224255 38.0242829,12.2604341 37.9612408,12.1963412 C37.3213631,11.5491087 36.668877,10.9249915 35.9995797,10.3302941 C35.9543995,10.2893167 35.9071179,10.2514914 35.8619377,10.210514 C35.169525,9.60110674 34.4634531,9.01691631 33.7405699,8.46529764 C33.7290122,8.45584132 33.7174545,8.4474357 33.7058968,8.43903009 C32.9567461,7.86849878 32.1918349,7.32738714 31.4101124,6.81779656 C31.4090617,6.81569516 31.4069603,6.81464445 31.4048589,6.81359375 C30.6504547,6.32186511 29.8771379,5.86165754 29.0912126,5.42666682 C29.0355254,5.39619646 28.9819396,5.36362469 28.9262524,5.33420503 C28.1718482,4.92127905 27.4016835,4.53882345 26.6189103,4.17843259 C26.5274992,4.1364045 26.4371388,4.092275 26.3457277,4.05129762 C25.5808165,3.70666729 24.8011955,3.38935522 24.008966,3.0941079 C23.8965409,3.05207981 23.7841157,3.00900102 23.6695892,2.96802363 C22.8847146,2.68328333 22.0861809,2.42375988 21.2739881,2.18735188 C21.151056,2.151628 21.0260224,2.11695483 20.9020395,2.08228166 C20.0866946,1.85427928 19.2608427,1.64834164 18.4192302,1.46762086 C18.2973487,1.4413533 18.1733659,1.41823786 18.049383,1.3919703 C17.1951621,1.21755373 16.3304342,1.06415121 15.4499457,0.938066941 C15.3406727,0.922306408 15.2303489,0.910748684 15.1210759,0.89498815 C14.2153706,0.773106693 13.2981076,0.67223928 12.365084,0.601842231 C12.2925855,0.59658872 12.2190364,0.593436613 12.1454872,0.588183102 C11.1672835,0.518836756 10.1764713,0.472605858 9.16779714,0.459997432 L0.349253418,7.2139113 L0.332442182,7.33474205 L6.88146912,17.1598585 C7.70627036,17.0884108 8.54893354,17.0516362 9.41156006,17.0516362 C10.1586093,17.0516362 10.8941009,17.0852586 11.6222375,17.1356924 C11.8418343,17.1504022 12.0582789,17.1714162 12.2757743,17.1903289 C12.8126831,17.2386612 13.3443385,17.302754 13.871791,17.3784046 C14.0819314,17.4088749 14.2931226,17.4340918 14.5001109,17.468765 C15.1694082,17.5790887 15.8292492,17.7125279 16.4806846,17.8690825 C16.7107884,17.9247697 16.9366894,17.9930654 17.1657424,18.0540061 C17.5986318,18.1695833 18.0273183,18.2946169 18.4528527,18.4301575 C18.7491507,18.5247207 19.044398,18.6245374 19.3364932,18.7296076 C19.6926813,18.8567426 20.0436158,18.9975367 20.3934997,19.1393815 C20.9230536,19.3547754 21.4452526,19.5869806 21.9611474,19.8349464 C22.2542933,19.9767912 22.5495406,20.1133824 22.8384837,20.2657343 C23.211483,20.4622156 23.5792288,20.6734067 23.9448732,20.88775 C24.1434559,21.0043779 24.3409879,21.1220566 24.5374692,21.243938 C24.9304318,21.4877009 25.3223438,21.7335653 25.7079515,21.9983422 C25.7447261,22.0235591 25.7815006,22.051928 25.8182752,22.0781956 C26.7239805,22.7054648 27.6065704,23.3905227 28.4660448,24.1354705 C28.4933631,24.1596367 28.521732,24.1817014 28.5479996,24.2048169 C28.984041,24.5851711 29.4148289,24.9812858 29.8393126,25.3921104 C29.869783,25.4215301 29.9002533,25.4530511 29.9307237,25.4824708 C31.2367466,26.7538205 32.4870822,28.1680657 33.6827813,29.726257 C34.2753774,30.4995739 34.855365,31.3096653 35.4216935,32.1523285 C35.4532146,32.1996101 35.4857863,32.2447903 35.5162567,32.2920719 C35.7999463,32.7165556 36.0794331,33.1483942 36.3547171,33.5896891 C36.6699277,34.0940262 36.9798849,34.6067689 37.2856392,35.1342214 C37.46636,35.4452292 37.6439287,35.763592 37.8214974,36.0819548 C38.1923953,36.7523028 38.5611917,37.4321071 38.9184305,38.1371283 C39.0035374,38.3052407 39.0865428,38.4786065 39.170599,38.6488203 C39.5898292,39.4904328 40.0017045,40.3488565 40.402022,41.239852 C40.363146,41.3365166 40.3221686,41.4279277 40.2832927,41.5224909 L40.2832927,41.5224909 C37.9454802,47.2666799 35.2283643,52.0557806 32.1298434,55.8918944 L32.1298434,63.2699254 L35.5729946,64.0421915 L36.6814855,65.5373408 L35.4584681,75.2720969 C40.9683505,70.5670523 45.4180744,63.9738959 48.8023863,55.484222 L49.1743348,55.484222 C50.9395146,58.7970861 52.8665024,61.7527114 54.9384872,64.389974 L55.3377541,57.0981006 L56.696312,55.8257002 L65.5789486,55.4611065 C62.2135494,52.1335326 59.2610762,47.742648 56.7362387,42.2527289 C60.3432994,34.4134396 64.910702,28.8363123 70.4268886,25.4982313" id="Fill-13" fill="#0084FF" mask="url(#mask-4)"></path>
                    </g>
                    <path d="M86.1729222,42.2893984 L86.2286095,42.0981706 C86.2033926,42.1507057 86.1792264,42.2000887 86.1550603,42.2526238 C86.1603138,42.2652323 86.166618,42.27679 86.1729222,42.2893984" id="Fill-15" fill="#000000"></path>
                    <path d="M93.7926147,54.2017348 C91.0660425,51.2072335 88.6336668,47.458328 86.4933864,42.9550183 C86.3872655,42.7312187 86.2779925,42.5168754 86.1729222,42.2899238 C86.166618,42.2773153 86.1603138,42.2657576 86.1550603,42.2520985 C86.1792264,42.2006141 86.2033926,42.1512311 86.2286095,42.098696 L86.3347304,41.7288488 L78.2432726,55.4846422 L78.5942071,55.4846422 C79.3244452,56.8558086 80.0893564,58.1513245 80.8742309,59.4027108 C81.9858739,61.1752455 83.142697,62.8448113 84.3583595,64.3893435 L84.709294,57.959046 L84.7565756,57.0985208 L86.1151336,55.8261205 L90.9021329,55.6285884 L94.9977702,55.4604761 C94.5900977,55.0570064 94.1887295,54.6367255 93.7926147,54.2017348" id="Fill-17" fill="#0084FF"></path>
                    <path d="M102.853871,14.9527534 L92.775535,11.2637379 C87.2751089,15.0767363 82.5931798,20.6559651 78.7328998,28.0066778 L78.7791307,28.1905507 L70.2652906,40.9607855 L69.4142218,41.8118543 C67.0764094,47.5560433 64.6482366,52.0562009 61.5497157,55.891264 C59.6416405,58.2521919 57.5896191,60.2516782 55.3947021,61.8886723 L61.5497157,63.2703457 L64.9918162,64.0415611 L66.1013577,65.5377611 L64.8772897,75.2725171 C70.1959443,70.7292807 74.5164318,64.4135097 77.8534621,56.3472688 C77.9553802,56.1035058 78.0625518,55.8713007 78.1623685,55.6233349 C78.1812812,55.5760533 78.2022952,55.5329745 78.2222585,55.4846422 L78.2432726,55.4846422 L86.3347304,41.7288488 L86.2286095,42.098696 C89.8262139,34.3424122 94.3673488,28.8146678 99.8467609,25.4986516 L102.906406,15.0641279 L102.853871,14.9527534 Z" id="Fill-19" fill="#2AAF6F"></path>
                    <path d="M28.3832495,36.4987683 L28.3832495,44.0491145 L29.7302497,44.0491145 C30.9017827,44.0491145 31.8221978,43.7002814 32.4914951,43.0005137 C33.1597418,42.3017967 33.4938651,41.3572154 33.4938651,40.1646684 C33.4938651,39.0130988 33.1439812,38.1136977 32.446315,37.4675158 C31.747598,36.8223846 30.8397913,36.4987683 29.7218441,36.4987683 L28.3832495,36.4987683 Z M25.9130486,46.0685642 L25.9130486,34.478268 L29.9172747,34.478268 C34.0328753,34.478268 36.0901503,36.3611264 36.0901503,40.1278938 C36.0901503,41.9182904 35.5143654,43.355651 34.3617451,44.4420771 C33.2101755,45.5264018 31.7234318,46.0685642 29.9015142,46.0685642 L25.9130486,46.0685642 Z" id="Fill-21" fill="#2AAF6F"></path>
                    <path d="M42.8991209,41.100739 C42.8991209,39.8630118 42.397936,39.2441482 41.3945153,39.2441482 C40.9815894,39.2441482 40.6148943,39.4154126 40.2944301,39.7537387 C39.9760673,40.0931156 39.7764339,40.5417654 39.6965805,41.100739 L42.8991209,41.100739 Z M45.1518265,42.6116488 L39.7039355,42.6116488 C39.7890423,43.8935055 40.5613085,44.5354845 42.023886,44.5354845 C42.9369462,44.5354845 43.7428348,44.3106343 44.4415518,43.8619844 L44.4415518,45.6345191 C43.6871476,46.0590028 42.7005382,46.2712446 41.4775208,46.2712446 C40.1609909,46.2712446 39.1365563,45.899296 38.4063182,45.1553989 C37.6750295,44.4125524 37.3104358,43.3776107 37.3104358,42.0505738 C37.3104358,40.7287904 37.6991956,39.6549727 38.4767153,38.8291208 C39.2552856,38.0043196 40.2334894,37.5913936 41.4102759,37.5913936 C42.5818088,37.5913936 43.4990719,37.9465309 44.1599636,38.6578563 C44.8208553,39.3691817 45.1518265,40.3442334 45.1518265,41.5872141 L45.1518265,42.6116488 Z" id="Fill-23" fill="#2AAF6F"></path>
                    <path d="M54.4527476,37.7927081 L51.3479225,46.0690895 L48.6160968,46.0690895 L45.6604714,37.7927081 L48.2504524,37.7927081 L49.7687171,43.001039 C49.9336773,43.5694689 50.0250884,44.0464877 50.0461025,44.429994 L50.0828771,44.429994 C50.1228037,44.0359807 50.220519,43.5747224 50.3749723,43.0462192 L51.9237073,37.7927081 L54.4527476,37.7927081 Z" id="Fill-25" fill="#2AAF6F"></path>
                    <path d="M99.2995552,40.2922236 C99.2995552,41.4196271 99.5706364,42.341093 100.113849,43.0576719 C100.658113,43.7732001 101.404112,44.1304388 102.351845,44.1304388 C103.319542,44.1304388 104.072895,43.7879099 104.611906,43.1018014 C105.149865,42.4156928 105.419896,41.4952777 105.419896,40.3374038 C105.419896,39.130147 105.158271,38.1761094 104.63397,37.4742403 C104.110721,36.7744726 103.372077,36.4235381 102.420141,36.4235381 C101.451393,36.4235381 100.689634,36.7828782 100.133813,37.5015585 C99.5769406,38.2191882 99.2995552,39.1501103 99.2995552,40.2922236 M96.7022193,40.4267135 C96.7022193,38.6111001 97.2328239,37.1338128 98.2929825,35.9938009 C99.353141,34.8537889 100.753727,34.2832576 102.49369,34.2832576 C104.149597,34.2832576 105.483988,34.8348763 106.493713,35.9370629 C107.504489,37.0392496 108.008826,38.4566469 108.008826,40.1871534 C108.008826,41.9933105 107.483475,43.4590401 106.433823,44.5832915 C105.383121,45.7085936 104.007752,46.2707193 102.306665,46.2707193 C100.645505,46.2707193 99.2964031,45.7264555 98.25936,44.6358266 C97.2212662,43.5462484 96.7022193,42.1435609 96.7022193,40.4267135" id="Fill-27" fill="#3E3A39"></path>
                    <path d="M112.109086,42.410019 C112.109086,42.999463 112.268793,43.4806846 112.588206,43.8536839 C112.90762,44.2277339 113.320546,44.4147589 113.830136,44.4147589 C114.43429,44.4147589 114.903954,44.181503 115.240179,43.7118391 C115.577454,43.2432259 115.745567,42.5791821 115.745567,41.7218091 C115.745567,40.2045951 115.154021,39.4470388 113.971981,39.4470388 C113.423515,39.4470388 112.975916,39.6561285 112.629184,40.0753587 C112.282452,40.4945889 112.109086,41.0325484 112.109086,41.6913387 L112.109086,42.410019 Z M112.146912,45.0735492 L112.146912,49.8773597 L109.729246,49.8773597 L109.729246,37.7921828 L112.146912,37.7921828 L112.146912,39.0582789 L112.176331,39.0582789 C112.809905,38.0800752 113.706154,37.5914987 114.862977,37.5914987 C115.91473,37.5914987 116.73848,37.9592444 117.332127,38.694736 C117.925774,39.4302275 118.222072,40.4315468 118.222072,41.6986936 C118.222072,43.0814177 117.878492,44.1878072 117.190282,45.021014 C116.502072,45.8542209 115.598468,46.2713497 114.481572,46.2713497 C113.468695,46.2713497 112.699581,45.8720828 112.176331,45.0735492 L112.146912,45.0735492 Z" id="Fill-29" fill="#3E3A39"></path>
                    <path d="M119.719427,43.8465391 C120.54633,44.3498255 121.358523,44.6030447 122.150752,44.6030447 C123.14892,44.6030447 123.646952,44.3361663 123.646952,43.8013589 C123.646952,43.4231061 123.236128,43.105794 122.412377,42.8515241 C121.384791,42.5321106 120.678719,42.1769733 120.295212,41.7850613 C119.911706,41.3931494 119.719427,40.8635955 119.719427,40.1942982 C119.719427,39.3821054 120.047247,38.7453798 120.706037,38.2830709 C121.364827,37.8218126 122.228504,37.5917088 123.294967,37.5917088 C124.053574,37.5917088 124.784863,37.7030832 125.487783,37.9279335 L125.487783,39.8286538 C124.844753,39.4493503 124.13658,39.2602239 123.363263,39.2602239 C122.979756,39.2602239 122.669799,39.3285196 122.435493,39.4651108 C122.200135,39.6027528 122.083507,39.7834736 122.083507,40.0083239 C122.083507,40.3876274 122.432341,40.6944324 123.131058,40.928739 C123.879158,41.1777555 124.441283,41.4047071 124.818485,41.6095941 C125.194637,41.8134303 125.481478,42.0834608 125.67901,42.4175841 C125.875492,42.7517074 125.974258,43.1383658 125.974258,43.5775593 C125.974258,44.4307295 125.63278,45.0926719 124.949823,45.5644372 C124.265816,46.0351518 123.352756,46.2715598 122.210642,46.2715598 C121.313343,46.2715598 120.482237,46.1286643 119.719427,45.843924 L119.719427,43.8465391 Z" id="Fill-31" fill="#3E3A39"></path>
                    <path d="M9.23871954,25.6059283 C7.87280666,24.0424834 8.07874429,22.2457826 9.27759553,21.1982325 C9.8796479,20.6718307 10.613038,20.5404929 11.1993299,20.5919773 L11.2266481,21.6311218 C10.7885053,21.6069556 10.366123,21.6826062 10.0067829,21.9957155 C9.28915325,22.6229847 9.28915325,23.7083601 10.1801487,24.7285919 C11.0806005,25.7603815 12.1102887,25.9568628 12.8615408,25.3012247 C13.2650104,24.9481887 13.418413,24.4753727 13.4341735,23.9752385 L14.4491518,24.1296917 C14.4565068,24.926124 14.1623101,25.6122325 13.5476493,26.150192 C12.3477474,27.1977422 10.6214437,27.1893365 9.23871954,25.6059283" id="Fill-33" fill="#FFFFFF"></path>
                    <path d="M16.3688899,20.373011 C15.7741924,19.6942618 15.11225,19.4914718 14.6247242,19.9159555 C14.1371984,20.3435913 14.2475221,21.0265477 14.8422196,21.7063521 C15.4295621,22.3788015 16.086251,22.5742321 16.5737768,22.1486977 C17.0613026,21.7231633 16.9562324,21.0465111 16.3688899,20.373011 M13.880827,22.5458632 C12.8332769,21.3480626 13.0560258,19.9327667 13.9533255,19.1489429 C14.8516759,18.365119 16.2827323,18.3346487 17.3302824,19.5324492 C18.3652241,20.718692 18.1435259,22.1350386 17.2462262,22.9188624 C16.3478758,23.7026863 14.9157687,23.732106 13.880827,22.5458632" id="Fill-35" fill="#FFFFFF"></path>
                    <path d="M20.9308288,17.6754381 L19.5523075,16.0993848 C19.1603955,16.0909791 18.8746045,16.2160127 18.650805,16.412494 C18.2462846,16.76553 18.2420818,17.4453343 18.8704017,18.1650653 C19.5197357,18.9079118 20.1144331,19.0445031 20.5882998,18.6294757 C20.838367,18.4109296 20.9591977,18.1240879 20.9308288,17.6754381 M17.9142627,19.023489 C16.8877266,17.8498547 16.9927969,16.4933981 17.7682151,15.8156952 C18.1727354,15.4637099 18.5562418,15.3985664 19.0206521,15.4122255 L18.4889968,14.8805702 L17.3847088,13.6186768 L18.3271887,12.7938756 L22.7968759,17.9107954 L22.0351168,18.5758899 L21.6326979,18.2722369 L21.6127345,18.2890482 C21.5749092,18.7755233 21.3941884,19.2945702 21.0232906,19.6192372 C20.1312444,20.3978075 18.9386974,20.1971234 17.9142627,19.023489" id="Fill-37" fill="#FFFFFF"></path>
                    <path d="M24.0686459,13.0006538 C23.6441622,12.5131279 23.1566364,12.3965 22.6953781,12.7999696 C22.3171253,13.1298901 22.21941,13.6899144 22.6071191,14.2783077 L24.0686459,13.0006538 Z M22.0239794,15.4319787 C21.0037475,14.2667499 21.185519,12.83044 22.0449934,12.0802386 C23.0326535,11.2176121 24.1779189,11.4939468 25.0457989,12.4879111 C25.1971001,12.6602263 25.3284378,12.8493527 25.3757194,12.9554736 L23.1639913,14.8887657 C23.7565873,15.409914 24.4111748,15.3836464 24.9428301,14.9181853 C25.2380774,14.6607633 25.4145954,14.3455526 25.5312234,13.9620463 L26.3570753,14.2583443 C26.2162812,14.8110137 25.8947663,15.3626324 25.4471672,15.7545443 C24.445848,16.6287285 23.0536675,16.612968 22.0239794,15.4319787 L22.0239794,15.4319787 Z" id="Fill-39" fill="#FFFFFF"></path>
                    <path d="M113.290076,14.2483627 C114.361792,14.7295843 115.28746,14.4532496 115.91473,13.0558156 C116.546202,11.6499761 116.114363,10.8220227 115.042647,10.3408011 L114.685408,10.1810944 L112.932837,14.0886559 L113.290076,14.2483627 Z M113.945714,8.74898724 L115.522818,9.45610983 C117.278541,10.2420351 117.958345,11.6405197 117.087313,13.5811667 C116.220484,15.5165602 114.700118,15.9904269 113.006386,15.2318199 L111.36729,14.4963284 L113.945714,8.74898724 Z" id="Fill-41" fill="#FFFFFF"></path>
                    <path d="M120.585521,15.4960715 C120.850298,14.9055769 120.753634,14.414899 120.19466,14.1637811 C119.735503,13.9588942 119.185986,14.1038911 118.814037,14.7017407 L120.585521,15.4960715 Z M117.521674,14.6534084 C118.155247,13.2402139 119.53587,12.8041725 120.577116,13.2717349 C121.772815,13.8086438 122.000817,14.9644162 121.459706,16.1695717 C121.366193,16.3786614 121.248514,16.5772441 121.172864,16.6644524 L118.493573,15.4624491 C118.265571,16.217904 118.56397,16.8010437 119.209101,17.0910375 C119.56634,17.2507442 119.92568,17.2812146 120.323896,17.2255274 L120.398496,18.0997116 C119.837421,18.2026805 119.203848,18.1427904 118.660635,17.8979768 C117.448124,17.3547638 116.880745,16.0834141 117.521674,14.6534084 L117.521674,14.6534084 Z" id="Fill-43" fill="#FFFFFF"></path>
                    <path d="M125.193586,18.0201735 C125.565535,17.189068 125.507746,16.6122325 124.908846,16.3432527 C124.613598,16.2108643 124.283678,16.2413346 123.845535,16.4073456 L122.987111,18.3175222 C123.158376,18.6842173 123.401088,18.8954084 123.634344,19.0004787 C124.161796,19.2368867 124.769102,18.9679069 125.193586,18.0201735 L125.193586,18.0201735 Z M123.285511,14.616949 L124.217484,15.0351285 L124.09245,15.5205529 L124.123971,15.5352627 C124.628308,15.3871137 125.190434,15.3408828 125.656946,15.5499726 C126.728662,16.0301435 126.972425,17.1953722 126.373525,18.5308148 C125.704227,20.0217612 124.423421,20.4840702 123.468333,20.0553837 C123.086928,19.8841192 122.800086,19.5489452 122.601504,19.0960926 L122.312561,19.8252799 L121.719965,21.1460126 L120.585206,20.636422 L123.285511,14.616949 Z" id="Fill-45" fill="#FFFFFF"></path>
                    <path d="M126.883535,19.9912908 L129.116278,15.012013 L130.251036,15.5205529 L127.994128,20.5544672 C127.87855,20.8108386 127.963657,20.9526834 128.07293,21.0010157 C128.119161,21.020979 128.150682,21.0346381 128.235789,21.0556522 L127.996229,21.9645096 C127.838624,21.9592561 127.624281,21.9193294 127.359504,21.8006001 C126.567274,21.4454627 126.519993,20.7992809 126.883535,19.9912908" id="Fill-47" fill="#FFFFFF"></path>
                    <path d="M132.498278,21.3713882 C132.868125,20.5486884 132.773562,19.8615291 132.183067,19.5978029 C131.592573,19.3330259 131.018889,19.7196843 130.649042,20.5423842 C130.283398,21.3577291 130.379012,22.035432 130.970557,22.3012597 C131.560001,22.5660366 132.131583,22.1867331 132.498278,21.3713882 M129.484864,20.0191345 C130.136299,18.567064 131.51377,18.1772535 132.602298,18.66583 C133.688724,19.1533558 134.314942,20.4415167 133.663507,21.8946379 C133.019426,23.3309479 131.639854,23.7197077 130.552378,23.2321818 C129.464901,22.7457067 128.840784,21.4564951 129.484864,20.0191345" id="Fill-49" fill="#FFFFFF"></path>
                    <path d="M132.621315,26.0266295 L133.224418,25.2428056 C133.291663,25.3016449 133.403038,25.3878025 133.503905,25.4329827 C133.947301,25.6315654 134.320301,25.4634531 134.614497,25.1387861 L134.807827,24.9170879 L135.030575,19.885275 L136.181094,20.4011698 L135.966751,22.7305766 C135.924723,23.1792264 135.843819,23.6467889 135.780777,24.1217063 L135.819653,24.1395683 C136.101241,23.7802281 136.39964,23.4103809 136.680178,23.0520915 L138.184783,21.3005709 L139.280666,21.7922995 L135.722988,25.580081 C134.882426,26.4343019 134.152188,26.8157068 133.18134,26.3807161 C132.924968,26.2661896 132.768414,26.1579672 132.621315,26.0266295" id="Fill-51" fill="#FFFFFF"></path>
                    <path d="M144.302182,44.3359562 C145.520997,44.9254001 146.507606,44.7404766 146.915278,43.8967627 C147.322951,43.0540995 146.855388,42.1662561 145.636574,41.5768122 C144.425114,40.9905203 143.391223,41.1544299 142.983551,41.9960424 C142.574828,42.8397562 143.091773,43.7496644 144.302182,44.3359562 M146.195547,40.4189383 C148.042682,41.3120352 148.614264,42.8649731 147.889279,44.3674773 C147.163244,45.8699814 145.582988,46.3816734 143.742158,45.4927793 C141.903429,44.6038853 141.27616,43.0246798 142.003246,41.521125 C142.72823,40.0196715 144.355768,39.5289935 146.195547,40.4189383" id="Fill-53" fill="#FFFFFF"></path>
                    <path d="M141.226041,49.0148383 C142.04664,49.410953 142.624526,49.3689249 142.910317,48.7773795 C143.05006,48.4873857 143.032198,48.1564145 142.876694,47.7130182 L140.990684,46.8020594 C140.620837,46.9628168 140.403341,47.1981741 140.291967,47.4272272 C140.039798,47.9483755 140.290916,48.5619856 141.226041,49.0148383 L141.226041,49.0148383 Z M144.681801,47.2044783 L144.237354,48.1248935 L143.756132,47.9862008 L143.741422,48.0177218 C143.874861,48.525211 143.904281,49.0883874 143.682583,49.548595 C143.170891,50.6066521 142.000409,50.8167926 140.682828,50.1790163 C139.210794,49.4687416 138.786311,48.1753272 139.242315,47.2328473 C139.424087,46.8566959 139.765565,46.5782598 140.224722,46.3933362 L139.504991,46.0833791 L138.201069,45.4529577 L138.742181,44.3339599 L144.681801,47.2044783 Z" id="Fill-55" fill="#FFFFFF"></path>
                    <path d="M139.343183,53.8723397 C139.925272,54.1539279 140.419102,54.0698717 140.68598,53.518253 C140.903475,53.0664511 140.774239,52.512731 140.187947,52.1250219 L139.343183,53.8723397 Z M140.273054,50.8316075 C141.667336,51.5061583 142.063451,52.8983387 141.566469,53.9259255 C140.995937,55.1058641 139.833861,55.300244 138.645516,54.7265606 C138.439579,54.6267439 138.243097,54.5038117 138.157991,54.4239583 L139.436695,51.7803916 C138.687545,51.5313751 138.095999,51.8129633 137.789194,52.4496889 C137.61793,52.8016741 137.578003,53.1610143 137.620031,53.5602811 L136.745847,53.6096641 C136.657588,53.0475384 136.738492,52.413965 136.996965,51.8781069 C137.574851,50.6824077 138.861961,50.1507524 140.273054,50.8316075 L140.273054,50.8316075 Z" id="Fill-57" fill="#FFFFFF"></path>
                    <path d="M140.143503,56.5955497 L139.699056,57.5149141 L138.902623,57.2249203 L138.888964,57.2553907 C139.296637,57.8406318 139.379642,58.4479377 139.165299,58.8934354 C139.050772,59.1308941 138.945702,59.2496235 138.829074,59.3546937 L137.952788,58.683295 C138.068366,58.5614135 138.151371,58.4500391 138.236478,58.2735211 C138.399337,57.9362457 138.372019,57.4224523 137.870834,56.8771379 L135.310272,55.6394107 L135.851384,54.5204128 L140.143503,56.5955497 Z" id="Fill-59" fill="#FFFFFF"></path>
                    <path d="M134.458048,60.4566702 L135.323826,60.8748497 C135.690521,59.7653081 135.577046,59.2767316 135.193539,59.0907573 C134.856264,58.9278985 134.59569,59.0949601 134.435983,59.4248806 C134.280479,59.7463955 134.318304,60.0584541 134.458048,60.4566702 M135.619074,57.9738609 C136.54054,58.4193586 136.663472,59.3944103 136.014138,61.208973 C136.442824,61.3970487 136.852598,61.367629 137.107919,60.8391258 C137.301248,60.439859 137.310704,59.9722965 137.27393,59.4637566 L138.212207,59.416475 C138.283655,60.0742146 138.239525,60.8097062 137.913807,61.484257 C137.387406,62.5727845 136.464889,62.8165474 135.22401,62.2165964 L132.717034,61.0040861 L133.161481,60.0847216 L133.662666,60.2234143 L133.674224,60.2002989 C133.53343,59.6686435 133.495605,59.1212277 133.733063,58.6305498 C134.10291,57.8635371 134.890937,57.6218756 135.619074,57.9738609" id="Fill-61" fill="#FFFFFF"></path>
                    <path d="M133.655627,62.8966109 L135.557398,63.8159753 L135.849493,63.2097202 L136.684801,63.6142405 L136.420024,64.2982477 L137.507501,64.9843562 L137.051496,65.9278868 L135.900977,65.3710146 L135.389285,66.4290718 L134.501442,65.9993346 L135.012083,64.9412774 L133.111363,64.021913 C132.621736,63.785505 132.294967,63.873764 132.108993,64.2572703 C132.042799,64.3949123 132.008125,64.5850894 131.997618,64.7227314 L131.089812,64.5104895 C131.123434,64.2436111 131.183324,63.9042343 131.365096,63.5291336 C131.857875,62.5089018 132.691082,62.4300991 133.655627,62.8966109" id="Fill-63" fill="#FFFFFF"></path>
                    <path d="M132.084722,68.8879251 C132.666811,69.1695133 133.160641,69.0854571 133.427519,68.5348892 C133.646065,68.0820365 133.516829,67.5283164 132.929486,67.1406073 L132.084722,68.8879251 Z M133.015644,65.8471929 C134.408875,66.5227944 134.80499,67.9139241 134.308008,68.9415109 C133.737476,70.1225002 132.5754,70.3158294 131.387055,69.742146 C131.181118,69.6423293 130.984636,69.5193971 130.89953,69.4405945 L132.178234,66.795977 C131.429083,66.5469606 130.837538,66.8295994 130.530733,67.4652743 C130.359469,67.8172595 130.319542,68.1765997 130.36157,68.5758665 L129.487386,68.6263002 C129.399127,68.0631239 129.480031,67.4295504 129.739554,66.8936923 C130.31639,65.6979932 131.6035,65.1663378 133.015644,65.8471929 L133.015644,65.8471929 Z" id="Fill-65" fill="#FFFFFF"></path>
                    <path d="M92.8496095,61.4806846 L94.1713929,61.9314358 L94.2354857,65.0646299 C94.2386378,65.4796572 94.2176238,65.9135973 94.2050154,66.3401824 L94.2459927,66.3548922 C94.5076176,66.0113126 94.7471777,65.6530231 95.0014476,65.325204 L96.9431453,62.8760171 L98.263878,63.3257177 L96.2328706,69.2895035 L95.1443431,68.9175549 L95.9922598,66.4284413 C96.1845383,65.8642142 96.5564869,65.0635792 96.8055033,64.5203661 L96.7729316,64.5077577 L95.811539,65.7465356 L94.0390044,67.9383004 L93.3539466,67.7050445 L93.2814481,64.8828584 L93.2835495,63.3194135 L93.2520284,63.3078558 C93.1164879,63.8920462 92.9294629,64.753622 92.7382351,65.3178491 L91.8892677,67.8080134 L90.8175514,67.4434197 L92.8496095,61.4806846 Z" id="Fill-67" fill="#FFFFFF"></path>
                    <path d="M101.213199,68.4764701 C101.503193,67.6232999 101.347689,66.9487491 100.73513,66.74071 C100.12257,66.5305696 99.5867121,66.9687124 99.2967183,67.823984 C99.0067245,68.6697993 99.1664312,69.3348938 99.7789906,69.5450343 C100.39155,69.7530733 100.924256,69.3233361 101.213199,68.4764701 M98.0873601,67.4110581 C98.6011534,65.9054018 99.9355453,65.3884563 101.063999,65.774064 C102.192454,66.1575703 102.936351,67.3826891 102.421507,68.8893961 C101.914018,70.3803425 100.577524,70.8962373 99.4490701,70.5116803 C98.3206159,70.1260726 97.5788202,68.9020045 98.0873601,67.4110581" id="Fill-69" fill="#FFFFFF"></path>
                    <path d="M104.183639,66.9630386 L105.151336,67.2919084 L105.030505,67.9149748 L105.060976,67.9265326 C105.588428,67.6754147 106.157909,67.5094038 106.769418,67.7174428 C107.74552,68.0494647 107.932545,68.8690125 107.545887,70.0058723 L106.587646,72.8175514 L105.403505,72.4140817 L106.312362,69.7463488 C106.54877,69.053936 106.439497,68.7376747 105.998202,68.5874243 C105.626254,68.46134 105.332057,68.5590553 104.881306,68.7744493 L103.824299,71.8761222 L102.646462,71.474754 L104.183639,66.9630386 Z" id="Fill-71" fill="#FFFFFF"></path>
                    <path d="M109.702873,67.3149188 C109.835262,66.9272097 110.22192,66.7706551 110.632745,66.9103984 C111.036214,67.0480404 111.246355,67.4084313 111.113966,67.7950897 C110.987882,68.1659876 110.59597,68.3383028 110.1925,68.2006608 C109.781676,68.0598667 109.576789,67.6858167 109.702873,67.3149188 L109.702873,67.3149188 Z M109.348786,68.7228598 L110.525573,69.124228 L108.988396,73.6369941 L107.811609,73.2356258 L109.348786,68.7228598 Z" id="Fill-73" fill="#FFFFFF"></path>
                    <path d="M110.970125,72.5489919 L111.65098,70.5505563 L111.014255,70.3330609 L111.313705,69.4557246 L112.026081,69.6353947 L112.574547,68.4722673 L113.56641,68.8095427 L113.153484,70.0199517 L114.265127,70.3982045 L113.946764,71.3322787 L112.835121,70.9529752 L112.154266,72.9524616 C111.978799,73.4683564 112.105934,73.7814656 112.509404,73.9191076 C112.654401,73.9684906 112.84773,73.9800483 112.985372,73.9716427 L112.883454,74.9004635 C112.614474,74.8994128 112.269844,74.8805001 111.87478,74.7460103 C110.804114,74.3803659 110.624444,73.5639703 110.970125,72.5489919" id="Fill-75" fill="#FFFFFF"></path>
                    <path d="M117.10507,73.8921046 C117.395064,73.0389344 117.238509,72.3643835 116.62595,72.1563445 C116.013391,71.946204 115.477532,72.3843469 115.186488,73.2396185 C114.897545,74.0854338 115.057252,74.7505283 115.669811,74.9606687 C116.28237,75.1687078 116.816127,74.7400212 117.10507,73.8921046 M113.97713,72.8266925 C114.491974,71.3210362 115.827416,70.8040907 116.95482,71.1896984 C118.083274,71.5732048 118.827171,72.7983235 118.313378,74.3050305 C117.804838,75.795977 116.468345,76.3118718 115.33989,75.9273148 C114.212487,75.541707 113.469641,74.317639 113.97713,72.8266925" id="Fill-77" fill="#FFFFFF"></path>
                    <path d="M120.07551,72.3786731 L121.042157,72.7075429 L120.851979,73.5333948 L120.884551,73.5428511 C121.414105,73.0679337 122.007752,72.9113791 122.475314,73.0689844 C122.725381,73.155142 122.856719,73.2444517 122.974398,73.3484712 L122.416475,74.2993567 C122.279884,74.19954 122.158002,74.1312444 121.974129,74.0671515 C121.618992,73.9473715 121.111503,74.0356305 120.632383,74.5998576 L119.71512,77.2917567 L118.538333,76.8903884 L120.07551,72.3786731 Z" id="Fill-79" fill="#FFFFFF"></path>
                    <path d="M52.7853882,10.8633153 C53.5292854,11.3140666 54.0756506,11.217402 54.4507513,10.5985384 C54.8300548,9.97231983 54.5642271,9.52261928 53.8213806,9.07291873 L53.2098719,8.70097015 L52.1381557,10.4703527 L52.7853882,10.8633153 Z M52.6498476,7.19636457 L54.4192302,8.26913154 C55.6128279,8.99411607 56.2779224,9.96496492 55.506707,11.2373653 C54.7607084,12.4677376 53.5009164,12.4614334 52.3419919,11.7595643 L51.6222609,11.3224722 L50.4601842,13.2368516 L49.3832144,12.5833148 L52.6498476,7.19636457 Z" id="Fill-81" fill="#FFFFFF"></path>
                    <path d="M54.8447646,14.3314732 L57.673255,9.66635535 L58.7365656,10.3104358 L55.8755035,15.0280888 C55.7305066,15.2686996 55.7988022,15.41895 55.9007203,15.4809414 C55.9437991,15.5061583 55.9732188,15.5250709 56.0551735,15.5534399 L55.704239,16.4265734 C55.5508365,16.4024073 55.3427974,16.336213 55.093781,16.1859626 C54.3509345,15.7352114 54.3856077,15.0890295 54.8447646,14.3314732" id="Fill-83" fill="#FFFFFF"></path>
                    <path d="M59.2732643,17.0279954 L59.7723479,16.2052955 C58.702733,15.7356316 58.2047001,15.8018259 57.9840527,16.1664196 C57.7896728,16.485833 57.9325683,16.7621677 58.2446268,16.9523448 C58.5514319,17.1372684 58.8634904,17.1278121 59.2732643,17.0279954 M56.9123364,15.6358149 C57.4418903,14.7616307 58.4253476,14.7311603 60.170564,15.5507081 C60.3975157,15.1409342 60.4090734,14.7290589 59.9078884,14.4243553 C59.5275342,14.1953022 59.0620732,14.1417164 58.5514319,14.1301587 L58.5945107,13.1908309 C59.2554024,13.183476 59.9824883,13.2959011 60.6234167,13.6846609 C61.6573076,14.3119301 61.8138623,15.2523086 61.0983341,16.4322472 L59.6546692,18.8120877 L58.7815357,18.2825338 L58.9654085,17.7960587 L58.9454452,17.784501 C58.4032829,17.8738107 57.8527149,17.8591008 57.3872538,17.5754112 C56.6601679,17.135167 56.4931062,16.327177 56.9123364,15.6358149" id="Fill-85" fill="#FFFFFF"></path>
                    <path d="M63.2174954,15.3975157 L64.0916796,15.9270696 L63.8384604,16.5102093 L63.8668293,16.5270206 C64.4352592,16.3946321 65.0278553,16.3557561 65.5794739,16.6898794 C66.4610131,17.2236361 66.4694187,18.0652486 65.847403,19.0928354 L64.3060229,21.6334333 L63.236408,20.9830487 L64.6968841,18.5737885 C65.0772383,17.9486207 65.0383623,17.6165988 64.6390955,17.3738865 C64.3028708,17.1700503 63.995015,17.2026221 63.5085399,17.3160979 L61.8095544,20.1183207 L60.745193,19.4742403 L63.2174954,15.3975157 Z" id="Fill-87" fill="#FFFFFF"></path>
                    <path d="M13.0998401,59.0621782 C12.9054601,58.2247686 12.5030412,57.8370594 11.8642142,57.9852084 C11.2674154,58.1228504 11.1213678,58.6282382 11.3167984,59.4740535 L11.5132797,60.3293251 L13.2963214,59.9163991 L13.0998401,59.0621782 Z M10.4373606,59.8281401 C10.2566399,59.0474684 9.86157582,58.7784886 9.37299929,58.8919645 C8.83503975,59.0159473 8.70265127,59.4320254 8.87391573,60.1706691 L9.04202809,60.8998564 L10.6012702,60.5394655 L10.4373606,59.8281401 Z M8.38849131,62.344572 L7.91777671,60.3114632 C7.6267322,59.0506205 7.7706784,58.0051718 8.91594382,57.7403948 C9.48017091,57.6101078 10.132657,57.7908285 10.4363099,58.2720502 L10.4772873,58.2625938 C10.4825408,57.5628262 10.8345261,56.9649766 11.6614287,56.7726981 C12.8991559,56.4879578 13.7081966,57.3842068 14.0213059,58.7364605 L14.5266937,60.926124 L8.38849131,62.344572 Z" id="Fill-89" fill="#FFFFFF"></path>
                    <path d="M11.5155913,55.8290624 L8.61145032,56.5004611 L8.32986212,55.2816466 L11.075347,54.6470224 C11.7971794,54.4799608 11.999965,54.2235894 11.8969962,53.7759903 C11.8087372,53.3945854 11.5838869,53.1833942 11.0974118,52.9637975 L7.96106565,53.688782 L7.68052815,52.4689167 L12.3256827,51.3950991 L12.5547357,52.3922155 L11.911706,52.6359784 L11.9201116,52.6685501 C12.4843387,52.958544 12.8941126,53.3346954 13.0422616,53.9735223 C13.2723654,54.969588 12.6755665,55.5611334 11.5155913,55.8290624" id="Fill-91" fill="#FFFFFF"></path>
                    <path d="M7.37845126,51.1665713 L7.09896447,49.9551117 L11.744119,48.881294 L12.0246565,50.0938044 L7.37845126,51.1665713 Z M5.99572714,51.6078663 C5.597511,51.7003281 5.26023559,51.4544637 5.16357099,51.0320814 C5.06795708,50.6170541 5.262337,50.2482576 5.65950243,50.1568465 C6.04300874,50.0685875 6.39394329,50.310249 6.48955719,50.7252764 C6.5883232,51.1476587 6.37713205,51.5196073 5.99572714,51.6078663 L5.99572714,51.6078663 Z" id="Fill-93" fill="#FFFFFF"></path>
                    <path d="M10.138646,47.87283 L4.82209277,49.1021516 L4.54260597,47.8896412 L9.91694783,46.6477112 C10.1911811,46.5836184 10.2510711,46.4302159 10.2248036,46.3146386 C10.2132459,46.2652556 10.2048402,46.2316331 10.1691164,46.1517798 L11.0390978,45.7934903 C11.1294582,45.9227267 11.2271735,46.1171066 11.2933677,46.4007962 C11.4887983,47.2455608 11.0012725,47.6742473 10.138646,47.87283" id="Fill-95" fill="#FFFFFF"></path>
                    <path d="M8.81906908,42.462344 L6.77860537,42.9330586 C6.58632686,43.2755875 6.56321141,43.5855447 6.62940565,43.8776399 C6.75023641,44.3987882 7.35018738,44.7234552 8.27900814,44.5091119 C9.24040067,44.2863631 9.64176892,43.8282569 9.49887341,43.2146468 C9.42427356,42.8899798 9.22884294,42.6472676 8.81906908,42.462344 M8.58371178,45.7583969 C7.06649778,46.1093314 5.91913095,45.376992 5.68797646,44.3735713 C5.56609501,43.8513723 5.69112857,43.4825759 5.92123236,43.0791062 L5.20360274,43.2976523 L3.56871009,43.6759051 L3.28607119,42.4549891 L9.90654587,40.9262174 L10.1345483,41.9149281 L9.67539139,42.1240179 L9.6816956,42.1492347 C10.0925202,42.4119103 10.4644688,42.8164306 10.5758432,43.2976523 C10.8427216,44.4502726 10.1019765,45.408513 8.58371178,45.7583969" id="Fill-97" fill="#FFFFFF"></path>
                    <polygon id="Fill-99" fill="#FFFFFF" points="32.0473633 72.2062528 30.2758794 72.2062528 30.2758794 71.1587027 35.0943998 71.1587027 35.0943998 72.2062528 33.3071553 72.2062528 33.3071553 77.4587132 32.0473633 77.4587132"></polygon>
                    <path d="M38.1515229,74.5980714 C38.1515229,73.9518895 37.8625798,73.5421156 37.2489697,73.5421156 C36.7467341,73.5421156 36.3033377,73.9004051 36.2098252,74.5980714 L38.1515229,74.5980714 Z M35.0099233,75.0834958 C35.0099233,73.53371 36.0910959,72.5723175 37.2321585,72.5723175 C38.5423842,72.5723175 39.2242899,73.53371 39.2242899,74.853392 C39.2242899,75.0834958 39.1980223,75.3135996 39.1643999,75.4239233 L36.2276872,75.4239233 C36.3296053,76.2066965 36.8402466,76.6164703 37.5473692,76.6164703 C37.9382304,76.6164703 38.2786579,76.4966903 38.6190854,76.2833977 L39.0456705,77.0504104 C38.5760066,77.3740266 37.9718529,77.5778629 37.3771554,77.5778629 C36.0480171,77.5778629 35.0099233,76.6500928 35.0099233,75.0834958 L35.0099233,75.0834958 Z" id="Fill-101" fill="#FFFFFF"></path>
                    <path d="M39.803542,76.9056236 L40.3740733,76.1217997 C40.798557,76.4538216 41.2083309,76.6418973 41.6506765,76.6418973 C42.1276953,76.6418973 42.3399372,76.4370104 42.3399372,76.1396617 C42.3399372,75.7824229 41.8461071,75.6195641 41.3438715,75.4241335 C40.7397177,75.1940297 40.0420514,74.8273346 40.0420514,74.0372065 C40.0420514,73.1766814 40.7397177,72.5725276 41.8124847,72.5725276 C42.510151,72.5725276 43.0386542,72.8614707 43.437921,73.1598702 L42.876846,73.9163758 C42.5364185,73.6789171 42.2033459,73.5087033 41.8461071,73.5087033 C41.4205727,73.5087033 41.2167365,73.6957283 41.2167365,73.9678602 C41.2167365,74.3166933 41.684299,74.444879 42.1875854,74.631904 C42.816956,74.8704134 43.5146223,75.1856241 43.5146223,76.071366 C43.5146223,76.9056236 42.8589841,77.578073 41.6170541,77.578073 C40.9782271,77.578073 40.2711045,77.2964848 39.803542,76.9056236" id="Fill-103" fill="#FFFFFF"></path>
                    <path d="M44.4516385,75.7903032 L44.4516385,73.6783917 L43.7781384,73.6783917 L43.7781384,72.7506217 L44.5115285,72.6917823 L44.6554747,71.4141284 L45.7019742,71.4141284 L45.7019742,72.6917823 L46.8777099,72.6917823 L46.8777099,73.6783917 L45.7019742,73.6783917 L45.7019742,75.7903032 C45.7019742,76.3356176 45.9236723,76.5909383 46.3502574,76.5909383 C46.5026092,76.5909383 46.6906849,76.5394539 46.8178199,76.4879695 L47.0216561,77.3989283 C46.7663355,77.4840352 46.4353643,77.5775477 46.0171848,77.5775477 C44.8855785,77.5775477 44.4516385,76.8630702 44.4516385,75.7903032" id="Fill-105" fill="#FFFFFF"></path>
                    <path d="M71.5431547,52.0992797 L71.9319145,51.3805994 C72.3175222,50.6703247 72.2282125,50.1176553 71.6377179,49.7982418 C71.0398683,49.4735748 70.6269423,49.7541123 70.2413346,50.464387 L69.8525748,51.1830674 L71.5431547,52.0992797 Z M75.5494822,51.8008803 L72.8365691,51.8029817 L72.4194403,52.5741971 L74.5145406,53.7089555 L73.9145896,54.8174463 L68.3752875,51.8155901 L69.4207362,49.8854501 C70.0501068,48.7244242 70.95266,48.0225551 72.2250604,48.7118157 C73.0561659,49.1636177 73.3461597,49.861284 73.2484444,50.6324994 L76.2177288,50.5663051 L75.5494822,51.8008803 Z" id="Fill-107" fill="#FFFFFF"></path>
                    <path d="M75.4227675,46.0289527 C74.8543376,45.7210969 74.3563048,45.780987 74.0642096,46.3189465 C73.8246495,46.7602414 73.928669,47.3202657 74.4981496,47.7363438 L75.4227675,46.0289527 Z M74.352102,49.023454 C72.9903919,48.2837596 72.6604714,46.8758187 73.2047352,45.8734488 C73.8288523,44.7197777 74.9982839,44.5789836 76.1582591,45.2083543 C76.3610446,45.3176273 76.550171,45.4489651 76.6310751,45.5319705 L75.2325904,48.1145966 C75.9701834,48.3972355 76.5722358,48.1440163 76.9084605,47.5220005 C77.0954855,47.1784209 77.1522234,46.8222329 77.1280573,46.4208646 L78.0043429,46.4114083 C78.0663343,46.9766861 77.9570613,47.6060567 77.6733717,48.1303571 C77.040849,49.2976873 75.7306233,49.7694526 74.352102,49.023454 L74.352102,49.023454 Z" id="Fill-109" fill="#FFFFFF"></path>
                    <path d="M77.7642574,44.9064875 L72.9667511,42.3059995 L73.5582965,41.2132692 L78.4093886,43.8421262 C78.6563036,43.9755653 78.8044526,43.9009655 78.8611906,43.7958953 C78.8853567,43.7507151 78.9021679,43.7212954 78.9263341,43.6382899 L79.8141775,43.945095 C79.7984169,44.1005989 79.741679,44.3128407 79.604037,44.5671107 C79.1900604,45.3299205 78.5417771,45.3278191 77.7642574,44.9064875" id="Fill-111" fill="#FFFFFF"></path>
                    <path d="M79.0570415,39.3225306 C78.4886116,39.0146748 77.989528,39.0745648 77.6984835,39.6125244 C77.4589234,40.0538193 77.5629429,40.6138436 78.1324235,41.028871 L79.0570415,39.3225306 Z M77.9863759,42.3159812 C76.6246658,41.5773375 76.2947453,40.1693965 76.8390091,39.1670266 C77.4631262,38.0133556 78.6325578,37.8725615 79.792533,38.5019321 C79.9953185,38.6112052 80.1844449,38.7425429 80.265349,38.8255484 L78.8658137,41.4071238 C79.6044573,41.6908134 80.2065097,41.4375941 80.5427344,40.8155784 C80.7297594,40.4719988 80.7864973,40.11476 80.7623312,39.7133918 L81.6386168,39.7049862 C81.6995575,40.270264 81.5913352,40.8996346 81.3076456,41.4228843 C80.6740722,42.5902145 79.3648972,43.0630305 77.9863759,42.3159812 L77.9863759,42.3159812 Z" id="Fill-113" fill="#FFFFFF"></path>
                    <path d="M82.542641,36.107802 L81.695775,35.6496959 C81.2796969,36.7413755 81.3700573,37.2341548 81.7441073,37.4379911 C82.0740278,37.6166104 82.3419569,37.4611065 82.5163734,37.1395916 C82.6865872,36.8254317 82.6624211,36.5123224 82.542641,36.107802 M81.2660378,38.5349242 C80.3676874,38.0473983 80.2899354,37.0660425 81.0222749,35.2851022 C80.601994,35.0770632 80.1911694,35.0854688 79.9116826,35.603465 C79.7004915,35.9922248 79.6689704,36.4587366 79.6826296,36.9693779 L78.7422511,36.9735807 C78.7033751,36.312689 78.7811271,35.5803495 79.1383658,34.9215592 C79.7152013,33.8582486 80.6450728,33.6575645 81.8586339,34.3142534 L84.3057193,35.6402396 L83.8192442,36.53859 L83.3243634,36.3778325 L83.311755,36.3998973 C83.4294337,36.9368061 83.4399407,37.4863234 83.1804172,37.9654436 C82.7758969,38.7135436 81.9763125,38.9194812 81.2660378,38.5349242" id="Fill-115" fill="#FFFFFF"></path>
                    <path d="M84.2131525,34.6507933 L83.7970744,33.7755583 C84.2909044,33.5601644 84.6502446,33.2901339 84.8614357,32.9013741 C85.0883874,32.4821439 85.0106354,32.1963529 84.7490106,32.0545081 C84.4348506,31.8842943 84.0565978,32.2415331 83.6447226,32.5903662 C83.1540446,33.0116978 82.4994571,33.4508913 81.8038923,33.07474 C81.0473867,32.6639154 80.8498547,31.7634636 81.3615466,30.819933 C81.6946192,30.2063229 82.1989563,29.8806052 82.651809,29.6704648 L83.0500251,30.5246857 C82.6780765,30.71066 82.3691701,30.9218511 82.1989563,31.2360111 C81.9972215,31.6100611 82.0644664,31.8790408 82.3040265,32.0082772 C82.6108316,32.1753389 82.9460056,31.8244043 83.3494752,31.4724191 C83.8601165,31.0321748 84.4695238,30.5677645 85.2480941,30.9901467 C85.9814843,31.3883629 86.2599204,32.2835612 85.668375,33.3762915 C85.3636714,33.9384172 84.779481,34.4248923 84.2131525,34.6507933" id="Fill-117" fill="#FFFFFF"></path>
                    <path d="M85.7614672,26.949146 C85.1930373,26.6412903 84.6950045,26.7011803 84.4029093,27.2391398 C84.1633492,27.6814855 84.2684194,28.240459 84.8368493,28.6565371 L85.7614672,26.949146 Z M84.6918524,29.9436473 C83.3301423,29.203953 83.0002218,27.796012 83.5434349,26.7936421 C84.167552,25.639971 85.3369836,25.4991769 86.4969588,26.1285476 C86.6997443,26.2378206 86.8888707,26.3691584 86.9708255,26.4521639 L85.5712901,29.0347899 C86.3088831,29.3174288 86.9119862,29.0642096 87.2482109,28.4432446 C87.4341852,28.0986142 87.4919738,27.7424262 87.4678077,27.3410579 L88.3430426,27.3316016 C88.405034,27.8968794 88.295761,28.52625 88.0120714,29.0505505 C87.3795487,30.2178806 86.0703737,30.6896459 84.6918524,29.9436473 L84.6918524,29.9436473 Z" id="Fill-119" fill="#FFFFFF"></path>
                </g>
            </g>
        </g>
    </g>
</svg>