<?xml version="1.0" encoding="UTF-8"?>
<svg width="72px" height="72px" viewBox="0 0 72 72" version="1.1" xmlns="http://www.w3.org/2000/svg" xmlns:xlink="http://www.w3.org/1999/xlink">
    <title>缺省页_暂无审批</title>
    <g id="页面-1" stroke="none" stroke-width="1" fill="none" fill-rule="evenodd" opacity="0.602084847">
        <g id="无数据" transform="translate(-339.000000, -967.000000)">
            <g id="编组-3" transform="translate(339.000000, 967.000000)">
                <g id="缺省页_暂无审批" fill-rule="nonzero">
                    <rect id="矩形" fill="#000000" opacity="0" x="0" y="0" width="72" height="72"></rect>
                    <path d="M7.2,63 C7.2,64.9882251 20.0941992,66.6 36,66.6 C51.9058008,66.6 64.8,64.9882251 64.8,63 C64.8,61.0117749 51.9058008,59.4 36,59.4 C20.0941992,59.4 7.2,61.0117749 7.2,63 Z" id="路径" fill="#4A68CC" opacity="0.1"></path>
                    <path d="M5.688,56.376 C5.688,56.988 6.156,57.456 6.768,57.456 C7.38,57.456 7.848,56.988 7.848,56.376 C7.848,55.764 7.38,55.296 6.768,55.296 C6.192,55.296 5.688,55.8 5.688,56.376 Z M64.8,59.256 C63.72,59.544 63.468,59.76 63.18,60.876 C62.892,59.796 62.676,59.544 61.56,59.256 C62.64,58.968 62.892,58.716 63.18,57.636 C63.468,58.716 63.684,58.968 64.8,59.256 Z M10.44,53.172 C9.072,53.532 8.784,53.82 8.388,55.224 C8.028,53.856 7.74,53.568 6.336,53.172 C7.704,52.812 7.992,52.524 8.388,51.12 C8.784,52.488 9.072,52.776 10.44,53.172 Z M14.94,18.684 C13.86,18.972 13.644,19.188 13.356,20.268 C13.068,19.188 12.852,18.972 11.772,18.684 C12.852,18.396 13.068,18.18 13.356,17.1 C13.608,18.18 13.86,18.396 14.94,18.684 Z M14.04,14.58 C11.232,15.3 10.656,15.912 9.9,18.72 C9.18,15.912 8.568,15.336 5.76,14.58 C8.568,13.86 9.144,13.248 9.9,10.44 C10.62,13.212 11.232,13.824 14.04,14.58 Z" id="形状" fill="#4A68CC" opacity="0.5"></path>
                    <polygon id="路径" fill="#4A68CC" opacity="0.2" points="50.94 9.144 50.94 9.468 53.568 11.988 63.828 6.984 54.576 12.924 54.576 15.84 56.052 14.4 56.052 14.364 56.088 14.4 57.564 15.84 65.52 6.156 65.52 5.796"></polygon>
                </g>
                <g id="编组-2" transform="translate(17.000000, 15.000000)">
                    <path d="M20.9000432,25.7614679 L21.2096486,25.7637989 C24.6369722,25.8150801 27.8533209,26.716338 30.6477695,28.2613793 C29.3519086,28.8042999 28.313431,29.8957743 27.9071329,31.3193141 L27.8950091,31.3625826 L27.7741184,31.8023094 C27.6219048,31.5842195 27.4510633,31.3791222 27.2634259,31.1892171 L27.2222346,31.1479881 L27.2032042,31.1292919 L27.1474543,31.0756311 C25.3143676,29.341296 22.4007177,29.3414902 20.5678794,31.0761653 L20.5126761,31.1292919 L15.8443967,35.6917188 L15.7986839,35.7371727 L15.7269842,35.8105495 C13.6990711,37.9246862 13.7251076,41.2283435 15.7902866,43.3118863 L15.8534896,43.3746281 L17.6574095,45.1376147 L2.73100949,45.1376147 L2.70686116,45.1374204 C1.84085042,45.1236775 1.14318234,44.4332747 1.14318234,43.583638 C1.14318234,43.511281 1.14820082,43.4400408 1.15798934,43.3703061 L1.15615089,43.3681209 C2.07055767,33.4962897 10.5610803,25.7614679 20.9000432,25.7614679 Z" id="路径备份" fill="#DBE1F5"></path>
                    <path d="M31.4033429,29.7040252 C33.165258,30.1761124 34.2108372,31.987156 33.73875,33.7490711 L30.0123165,47.6563933 C28.2503498,47.1843062 27.2047706,45.3732626 27.6768578,43.6113475 L31.4033429,29.7040252 Z" id="路径" stroke="#FFFFFF" stroke-width="0.880733945" fill="#A4B3E5"></path>
                    <path d="M37.7509748,31.3861067 L43.7354071,37.3706422 C44.6931021,38.3283372 44.7026491,39.8750573 43.7641514,40.8445183 L43.7354071,40.8737271 L37.7509748,46.858211 C36.4611468,45.568383 36.4611468,43.4771732 37.7509748,42.1873968 L40.8161353,39.122133 L37.7509748,36.0569725 C36.4611468,34.7671445 36.4611468,32.6759862 37.7509748,31.3861067 L37.7509748,31.3861067 Z" id="路径" stroke="#FFFFFF" stroke-width="0.880733945" fill="#A4B3E5"></path>
                    <path d="M23.5979071,31.386055 C24.8876835,32.6759346 24.8876835,34.7670929 23.5979071,36.0569209 L20.532695,39.122133 L23.5979071,42.1873452 C24.8747821,43.4642718 24.8875287,45.5265826 23.6361984,46.8191972 L23.5979071,46.8581594 L17.6134232,40.8736239 C16.6557798,39.9159289 16.6461812,38.3692087 17.5847305,37.3997477 L17.6134232,37.370539 L23.5979071,31.386055 L23.5979071,31.386055 Z" id="路径" stroke="#FFFFFF" stroke-width="0.880733945" fill="#A4B3E5"></path>
                    <path d="M20.5193291,23.6112385 C24.57539,23.6706837 28.0539839,24.6718789 31.076908,26.3820026 C31.7534865,26.7647554 32.4113841,27.1853661 33.0483995,27.645927 C32.3430323,27.5715436 31.6336376,27.6822579 30.9902584,27.9580624 C29.8816,28.4333231 28.992822,29.3885672 28.6451876,30.6348132 C28.5175406,31.0924192 28.4726283,31.5542207 28.5016093,32.0037896 C28.1583305,31.7209481 27.7627545,31.4332917 27.3090417,31.1314815 C25.8249868,30.1442869 24.7209898,29.6722311 23.6166508,29.6531523 C22.5905002,29.6354243 21.5754989,30.0114204 20.7918473,30.767826 L20.7918473,30.767826 L15.9014701,35.6572772 C14.9619181,36.6626575 14.4899622,37.904466 14.4814322,39.133584 C14.4728622,40.3684465 14.9325092,41.5876933 15.8353042,42.5197927 L15.8353042,42.5197927 L19.2771022,45.963331 L1.61761256,45.9630962 C0.924266686,45.9539577 0.298093217,45.6662988 -0.153926923,45.2067234 C-0.603416743,44.7497207 -0.880733945,44.1228407 -0.880733945,43.4311927 C-0.374296886,37.7552861 2.18470554,32.8130106 6.01919717,29.2737974 C9.84133953,25.7459825 14.930999,23.6112385 20.5193291,23.6112385 Z" id="路径" stroke="#A4B3E5" stroke-width="1.76146789"></path>
                    <path d="M20.7395126,3.30275229 C26.211695,3.30275229 30.6477695,7.73882675 30.6477695,13.2110092 C30.6477695,18.6831916 26.211695,23.1192661 20.7395126,23.1192661 C15.2673302,23.1192661 10.8312557,18.6831916 10.8312557,13.2110092 C10.8312557,7.73882675 15.2673302,3.30275229 20.7395126,3.30275229 Z" id="路径备份-2" fill="#DBE1F5"></path>
                    <path d="M20.5451319,0 C26.9435952,0 32.1305677,5.18697248 32.1305677,11.5854358 C32.1305677,17.9838991 26.9435952,23.1708716 20.5451319,23.1708716 C14.1466686,23.1708716 8.9596961,17.9838991 8.9596961,11.5854358 C8.9596961,5.18697248 14.1466686,0 20.5451319,0 Z" id="路径" stroke="#A4B3E5" stroke-width="1.76146789"></path>
                </g>
            </g>
        </g>
    </g>
</svg>