<?xml version="1.0" encoding="UTF-8"?>
<svg width="190px" height="190px" viewBox="0 0 190 190" version="1.1" xmlns="http://www.w3.org/2000/svg" xmlns:xlink="http://www.w3.org/1999/xlink">
    <title>编组 2</title>
    <defs>
        <path d="M0.497382199,94.9959225 C0.497382199,147.189757 42.8054145,189.502618 94.9972816,189.502618 C147.189149,189.502618 189.502618,147.192476 189.502618,94.9986409 C189.502618,42.8075245 147.191867,0.497382199 94.9972816,0.497382199 C42.8081328,0.494664018 0.497382199,42.8048061 0.497382199,94.9959225 Z" id="path-1"></path>
        <linearGradient x1="124.828497%" y1="50%" x2="30.9251575%" y2="23.5763057%" id="linearGradient-3">
            <stop stop-color="#D5D5D5" stop-opacity="0.574" offset="0%"></stop>
            <stop stop-color="#ABABAB" stop-opacity="0.574" offset="100%"></stop>
        </linearGradient>
    </defs>
    <g id="页面-1" stroke="none" stroke-width="1" fill="none" fill-rule="evenodd">
        <g id="无网络" transform="translate(-280.000000, -451.000000)">
            <rect fill="#FFFFFF" x="0" y="0" width="750" height="1440"></rect>
            <g id="编组-3" transform="translate(280.000000, 451.000000)">
                <rect id="矩形" fill="#000000" fill-rule="nonzero" opacity="0" x="0" y="0" width="190" height="190"></rect>
                <g id="路径备份">
                    <mask id="mask-2" fill="white">
                        <use xlink:href="#path-1"></use>
                    </mask>
                    <use id="蒙版" fill="#C2C8D6" fill-rule="nonzero" opacity="0.068659157" xlink:href="#path-1"></use>
                    <path d="M0.497382199,165.954095 C0.497382199,183.903859 43.0280884,198.455497 95.4946495,198.455497 C147.961211,198.455497 190.497382,183.904793 190.497382,165.95503 C190.497382,148.006201 147.963943,133.455497 95.4946495,133.455497 C43.0308209,133.454563 0.497382199,148.005267 0.497382199,165.954095 Z" fill="#C2C8D6" fill-rule="nonzero" opacity="0.1" mask="url(#mask-2)"></path>
                </g>
                <g id="暂无网络" opacity="0.610805778" transform="translate(96.000000, 96.000000) scale(-1, 1) translate(-96.000000, -96.000000) translate(32.000000, 32.000000)" fill-rule="nonzero">
                    <rect id="矩形" fill="#000000" opacity="0" x="0" y="0" width="128" height="128"></rect>
                    <path d="M86.9046982,38.2418973 C105.916216,57.8358572 114.262587,80.4911346 105.544101,89.2547149 L105.417156,89.3799375 L105.307277,89.4852497 C105.273641,89.5263227 105.235645,89.5646409 105.197399,89.6030842 C92.0077983,102.860904 72.1663399,105.778341 54.7398314,98.7403287 L59.3454905,114.97156 C59.9404764,117.068037 58.7321916,119.25167 56.6466266,119.848982 C56.2965616,119.94916 55.934288,120 55.5701456,120 L32.3169863,119.995742 C31.3226221,119.99693 30.3650805,119.617672 29.6388024,118.934982 L29.5401364,118.839186 C28.8294173,118.124791 28.3897805,117.138037 28.3895314,116.047974 C28.3895314,115.682324 28.4399856,115.318302 28.5396482,114.966426 L34.1378225,95.2056697 L36.5793077,86.5870973 L36.095321,86.0947219 C16.9376728,66.2555761 15.8464916,35.854528 33.7858888,17.8222194 L33.8970127,17.7194117 L33.9575577,17.6539202 C34.0143654,17.5925612 34.0734155,17.5333309 34.1325902,17.4738501 C42.8512013,8.71014466 65.3897796,17.0996849 84.8827926,36.2095341 L56.37679,60.9776929 L56.2740129,61.069982 C54.6263406,62.5980737 54.4723618,65.1764075 55.9497357,66.8943367 C56.0157622,66.9710982 56.0845294,67.0454804 56.1560373,67.117233 C57.7860196,68.7557711 60.4283249,68.7562719 62.0578089,67.11836 L62.1628284,67.0087902 L62.2639859,66.8954637 L86.9046982,38.2420226 L86.9046982,38.2418973 Z" id="路径" fill-opacity="0.421683785" fill="#D3D5D7"></path>
                    <path d="M90.58885,29.43 C89.7408731,28.1303066 89.8871445,26.3718249 91.0277882,25.2311814 C92.3365386,23.9223072 94.4587762,23.9228035 95.7680229,25.2319258 C97.0772696,26.5411721 97.0776418,28.6635332 95.7688913,29.9722833 C94.6282476,31.1128027 92.8698895,31.259074 91.5701957,30.4112213 L60.6911796,66.1348007 L84.995924,38.017579 C103.928948,57.4302294 112.240859,79.87587 103.558369,88.5583579 C94.724273,97.3923279 71.6429231,88.6337888 52.0044713,68.9954661 C32.3662676,49.3571434 23.6076022,26.2757994 32.4416985,17.4417054 C41.1243127,8.75909345 63.569835,17.0710025 82.9823664,36.0040219 L54.5940577,60.5429927 L90.588726,29.43 L90.58885,29.43 Z" id="路径" fill="url(#linearGradient-3)" opacity="0.395326126"></path>
                    <path d="M96.0310916,24.9687438 C97.3226227,26.2601574 97.3229898,28.3536106 96.0320706,29.6445347 C94.9069676,30.7695195 93.1725665,30.9137985 91.8905805,30.0774941 L61.201115,65.5818833 C61.1362665,65.6569608 61.0687126,65.7296581 60.9985867,65.7998315 C59.3979399,67.4004844 56.8023957,67.3999949 55.2012594,65.7987302 C55.1310969,65.7285964 55.0635022,65.65594 54.9986087,65.5809043 C53.5177656,63.8677897 53.7054867,61.2790886 55.4181054,59.7988518 L90.9223605,29.1096376 C90.0860593,27.8276468 90.2303378,26.0931168 91.3554407,24.9680095 C92.6463599,23.6769631 94.7396829,23.6774526 96.0310916,24.9687438 Z" id="路径" fill-opacity="0.304" fill="#000000"></path>
                    <path d="M50.2546468,84.1480204 L58.8490723,114.912066 C59.4415217,117.03282 58.2371353,119.242271 56.1586597,119.846934 C55.8097324,119.948464 55.4486714,120 55.085846,120 L31.9130454,120 C29.7520265,120 28,118.212115 28,116.006718 C28,115.636723 28.0503948,115.268376 28.1496949,114.912446 L36.6985665,84.2957649 C37.5637189,81.1969325 40.3189249,79.044501 43.4761722,79.0006592 C46.6156697,78.9571975 49.3938389,81.0668008 50.2546468,84.1480204 L50.2546468,84.1480204 Z" id="路径" fill-opacity="0.574" fill="#ABABAB"></path>
                    <path d="M40,86 C40,87.6568542 41.3431458,89 43,89 C44.6568542,89 46,87.6568542 46,86 C46,84.3431458 44.6568542,83 43,83 C41.3431458,83 40,84.3431458 40,86 Z" id="路径" fill-opacity="0.304" fill="#000000"></path>
                    <path d="M114,27 C114,37.3884821 105.662651,45.8296808 95.3141498,45.9975244 L95,46 L95,43.764684 C104.166293,43.764684 111.614417,36.4082801 111.762456,27.2772638 L111.764684,27 L114,27 Z M108.925081,27.247557 C108.925081,34.8611726 102.814632,41.0477459 95.230228,41.1707818 L95,41.1726384 L95,38.9446254 C101.394893,38.9446254 106.591114,33.8128925 106.695459,27.4428795 L106.697068,27.247557 L108.925081,27.247557 Z M103.23127,27 C103.23127,31.5559153 99.5847557,35.2602345 95.0509967,35.353316 L94.8762215,35.3550489 L94.8762215,33.1270358 C98.2063583,33.1270358 100.915993,30.4702541 101.001153,27.1606645 L101.003257,27 L103.23127,27 Z M95,13.3224756 L95,15.5504886 C88.6051075,15.5504886 83.408886,20.6822215 83.3045407,27.0522345 L83.3029316,27.247557 L81.0749186,27.247557 C81.0749186,19.5569511 87.3093941,13.3224756 95,13.3224756 Z M94.8762215,18.6449511 L94.8762215,20.8729642 C91.5460847,20.8729642 88.8364495,23.5297459 88.7512899,26.8393355 L88.7491857,27 L86.5211726,27 C86.5211726,22.3855375 90.261759,18.6449511 94.8762215,18.6449511 Z M95,8 L95,10.235316 C85.8337068,10.235316 78.3855831,17.5917199 78.237544,26.7227362 L78.235316,27 L76,27 C76,16.5065537 84.5065537,8 95,8 Z" id="形状" fill-opacity="0.574" fill="#ABABAB"></path>
                </g>
            </g>
        </g>
    </g>
</svg>