<?xml version="1.0" encoding="UTF-8"?>
<svg width="72px" height="72px" viewBox="0 0 72 72" version="1.1" xmlns="http://www.w3.org/2000/svg" xmlns:xlink="http://www.w3.org/1999/xlink">
    <title>编组 4备份</title>
    <g id="页面-1" stroke="none" stroke-width="1" fill="none" fill-rule="evenodd" opacity="0.602084847">
        <g id="无数据" transform="translate(-339.000000, -1248.000000)">
            <g id="编组-4备份" transform="translate(339.000000, 1248.000000)">
                <rect id="矩形" fill="#000000" fill-rule="nonzero" opacity="0" x="0" y="0" width="72" height="72"></rect>
                <path d="M7.2,63 C7.2,64.9882251 20.0941992,66.6 36,66.6 C51.9058008,66.6 64.8,64.9882251 64.8,63 C64.8,61.0117749 51.9058008,59.4 36,59.4 C20.0941992,59.4 7.2,61.0117749 7.2,63 Z" id="路径" fill="#4A68CC" fill-rule="nonzero" opacity="0.1"></path>
                <path d="M5.688,56.376 C5.688,56.988 6.156,57.456 6.768,57.456 C7.38,57.456 7.848,56.988 7.848,56.376 C7.848,55.764 7.38,55.296 6.768,55.296 C6.192,55.296 5.688,55.8 5.688,56.376 Z" id="路径" fill="#4A68CC" fill-rule="nonzero" opacity="0.5"></path>
                <path d="M64.8,59.256 C63.72,59.544 63.468,59.76 63.18,60.876 C62.892,59.796 62.676,59.544 61.56,59.256 C62.64,58.968 62.892,58.716 63.18,57.636 C63.468,58.716 63.684,58.968 64.8,59.256 Z" id="路径" fill="#4A68CC" fill-rule="nonzero" opacity="0.5"></path>
                <path d="M10.44,53.172 C9.072,53.532 8.784,53.82 8.388,55.224 C8.028,53.856 7.74,53.568 6.336,53.172 C7.704,52.812 7.992,52.524 8.388,51.12 C8.784,52.488 9.072,52.776 10.44,53.172 Z" id="路径" fill="#4A68CC" fill-rule="nonzero" opacity="0.5"></path>
                <path d="M14.94,18.684 C13.86,18.972 13.644,19.188 13.356,20.268 C13.068,19.188 12.852,18.972 11.772,18.684 C12.852,18.396 13.068,18.18 13.356,17.1 C13.608,18.18 13.86,18.396 14.94,18.684 Z" id="路径" fill="#4A68CC" fill-rule="nonzero" opacity="0.5"></path>
                <path d="M14.04,14.58 C11.232,15.3 10.656,15.912 9.9,18.72 C9.18,15.912 8.568,15.336 5.76,14.58 C8.568,13.86 9.144,13.248 9.9,10.44 C10.62,13.212 11.232,13.824 14.04,14.58 Z" id="路径" fill="#4A68CC" fill-rule="nonzero" opacity="0.5"></path>
                <polygon id="路径" fill="#4A68CC" fill-rule="nonzero" opacity="0.2" points="50.94 9.144 50.94 9.468 53.568 11.988 63.828 6.984 54.576 12.924 54.576 15.84 56.052 14.4 56.052 14.364 56.088 14.4 57.564 15.84 65.52 6.156 65.52 5.796"></polygon>
                <rect id="矩形" fill="#000000" fill-rule="nonzero" opacity="0" x="10" y="14" width="50" height="50"></rect>
                <path d="M49.0291926,36.0397319 C51.6904793,34.3510165 53.4583499,31.3806059 53.4583499,27.9952375 C53.4583499,22.7359439 49.1949993,18.4723729 43.9357058,18.4723729 C43.671341,18.4723729 43.410063,18.4860431 43.15099,18.50721 C44.1161381,19.1806784 44.9607065,20.0122018 45.6491158,20.9667504 C48.8139965,21.7384575 51.1707897,24.5961988 51.1707898,27.9952375 C51.1707898,31.6138819 48.5006835,34.6202319 45.0273405,35.1480795 C44.7775279,35.212021 44.2309388,35.6620364 44.2309388,36.3786215 C44.2309388,37.0952066 44.883362,37.5039909 45.1424351,37.5544825 C52.1757728,38.1678793 57.7126604,44.0851083 57.7126604,51.2747718 C57.7126604,52.2147109 56.5412091,53.2031574 54.4994929,54.0015434 L54.685364,56.3709044 C57.8603872,55.2631741 60.0002205,53.5643163 60.0002205,51.2747718 C60,44.1836663 55.4034925,38.1700842 49.0291926,36.0397319 L49.0291926,36.0397319 Z M21.0215196,36.0397319 C18.3602328,34.3510165 16.5923623,31.3806059 16.5923623,27.9952375 C16.5923623,22.7359439 20.8557128,18.4723729 26.1150064,18.4723729 C26.3793712,18.4723729 26.6406491,18.4860431 26.8997222,18.50721 C25.9345741,19.1806784 25.0900057,20.0122018 24.4015963,20.9667504 C21.2367156,21.7384575 18.8799224,24.5961988 18.8799224,27.9952375 C18.8799224,31.6138819 21.5500287,34.6202319 25.0233717,35.1480795 C25.2731843,35.212021 25.8197733,35.6620364 25.8197733,36.3786215 C25.8197733,37.0952066 25.1673502,37.5039909 24.9082771,37.5544825 C17.8749394,38.1678793 12.3380518,44.0851083 12.3380518,51.2747718 C12.3380518,52.2147109 13.509503,53.2031574 15.5512193,54.0015434 L15.3653481,56.3709044 C12.190325,55.2631741 10.0504917,53.5643163 10.0504917,51.2747718 C10.0507122,44.1836663 14.6472197,38.1700842 21.0215196,36.0397319 Z" id="形状" fill="#A4B3E5" fill-rule="nonzero"></path>
                <path d="M39.6237753,37.9877658 C42.0396827,36.3828131 43.6447073,33.5595861 43.6447073,30.3421954 C43.6447073,25.3436742 39.774617,21.291584 35,21.291584 C30.2257318,21.291584 26.3551183,25.3436742 26.3551183,30.3421954 C26.3551183,33.5595861 27.9599686,36.3828131 30.3760503,37.9877658 C24.5893122,40.0124416 20.4166667,45.7279062 20.4166667,52.467393 C20.4166667,60.8996476 49.5833333,60.8996476 49.5833333,52.467393 C49.5833333,45.7279062 45.4106878,40.0126242 39.6237753,37.9877658 L39.6237753,37.9877658 Z" id="路径" fill="#DBE1F5"></path>
                <path d="M40.6145843,37.1817626 C43.5481861,35.3538998 45.4971446,32.1385579 45.4971446,28.4743074 C45.4971446,22.7815472 40.7977492,18.1666667 35,18.1666667 C29.2026744,18.1666667 24.5026437,22.7815472 24.5026437,28.4743074 C24.5026437,32.1385579 26.4513904,35.3538998 29.3852039,37.1817626 C22.3584506,39.4876434 17.2916667,45.9969225 17.2916667,53.6724492 C17.2916667,63.2758503 52.7083333,63.2758503 52.7083333,53.6724492 C52.7083333,45.9969225 47.6415495,39.4878514 40.6145843,37.1817626 L40.6145843,37.1817626 Z" id="路径" stroke="#A4B3E5" stroke-width="1.98749795" fill-rule="nonzero"></path>
                <path d="M35.4608465,43.1666667 C36.628247,43.4953748 37.3210213,44.7563808 37.0082282,45.9831794 L34.5391876,55.6666667 C33.3717529,55.3379585 32.6789786,54.0769525 32.9917716,52.8501539 L35.4608465,43.1666667 Z" id="路径" stroke="#DBE1F5" stroke-width="0.917431193" fill="#A4B3E5"></path>
                <path d="M39.8229361,44.2083333 L43.8828056,48.2374499 C44.5325108,48.8822225 44.5389875,49.9235591 43.9023059,50.5762533 L43.8828056,50.5959182 L39.8229361,54.625 C38.9479102,53.7566173 38.9479102,52.3487004 39.8229361,51.4803525 L41.9023567,49.4166493 L39.8229361,47.3530156 C38.9479102,46.4846329 38.9479102,45.0767508 39.8229361,44.2083333 L39.8229361,44.2083333 Z" id="路径" stroke="#DBE1F5" stroke-width="0.917431193" fill="#A4B3E5"></path>
                <path d="M30.1770891,44.2083333 C31.0520814,45.0767508 31.0520814,46.4846329 30.1770891,47.3530156 L28.0976299,49.416684 L30.1770891,51.4803525 C31.0433291,52.3400493 31.0519764,53.7285097 30.2030661,54.5987685 L30.1770891,54.625 L26.1171777,50.5958834 C25.4675064,49.9511108 25.4609947,48.9097742 26.0977124,48.2570801 L26.1171777,48.2374152 L30.1770891,44.2083333 L30.1770891,44.2083333 Z" id="路径" stroke="#DBE1F5" stroke-width="0.917431193" fill="#A4B3E5"></path>
            </g>
        </g>
    </g>
</svg>