<?xml version="1.0" encoding="UTF-8"?>
<svg width="140px" height="89px" viewBox="0 0 140 89" version="1.1" xmlns="http://www.w3.org/2000/svg" xmlns:xlink="http://www.w3.org/1999/xlink">
    <title>编组 13</title>
    <g id="页面-1" stroke="none" stroke-width="1" fill="none" fill-rule="evenodd">
        <g id="建木-H5" transform="translate(-30.000000, -4525.000000)" fill-rule="nonzero">
            <g id="编组-13" transform="translate(30.000000, 4525.000000)">
                <path d="M122.870492,86.5384615 L19.2832375,86.5384615 C17.3591614,86.5384615 15.7948718,84.9898603 15.7948718,83.0850809 L15.7948718,12.4533807 C15.7948718,10.5486012 17.3591614,9 19.2832375,9 L122.870492,9 C124.794568,9 126.358974,10.5486012 126.358974,12.4533807 L126.358974,83.0695949 C126.374501,84.9898603 124.810211,86.5384615 122.870492,86.5384615 Z" id="路径" stroke="#656D78" stroke-width="3.58974359" fill="#84B3F5"></path>
                <polygon id="路径" fill="#F6FAFF" points="20.8205128 14.025641 122.051282 14.025641 122.051282 78.6410256 20.8205128 78.6410256"></polygon>
                <path d="M136.781968,88.6923077 L3.09305958,88.6923077 C1.39031466,88.6923077 0,87.2400932 0,85.4615385 L0,82.2307692 L140,82.2307692 L140,85.3310023 C140,87.1911422 138.562821,88.6923077 136.781968,88.6923077 L136.781968,88.6923077 Z" id="路径" fill="#D4D6D8"></path>
                <path d="M0,85.8205128 C0.265832682,87.4615385 1.53244722,88.6923077 3.03362002,88.6923077 L136.856919,88.6923077 C138.389367,88.6923077 139.671618,87.4615385 140,85.8205128 L0,85.8205128 Z" id="路径" fill="#656D78"></path>
                <g id="编组-11" transform="translate(38.051282, 26.230769)">
                    <path d="M52.955649,31.9404961 C52.955649,31.355829 53.0352531,30.7921794 53.1717172,30.2495472 L41.9172203,30.2495472 C42.0536843,30.7921794 42.1332884,31.355829 42.1332884,31.9404961 C42.1332884,32.437272 42.0783237,32.9225839 41.977871,33.388789 L53.1072758,33.388789 C53.0073839,32.9125783 52.9565719,32.4272366 52.955649,31.9404961 L52.955649,31.9404961 Z M28.7162147,30.2495472 L13.5345845,30.2495472 L13.5345845,33.3906997 L28.6536686,33.3906997 C28.5517694,32.914742 28.4996786,32.4293214 28.4982512,31.9424067 C28.5001465,31.355829 28.5797506,30.7902687 28.7162147,30.2495472 L28.7162147,30.2495472 Z M4.09013209,6.13298566 L8.02674208,6.13298566 L8.02674208,28.3598879 L4.09013209,28.3598879 L4.09013209,6.13298566 Z" id="形状" fill="#656D78"></path>
                    <path d="M5.45350945,38.1607997 C6.89814772,38.1607997 8.07027468,37.1088443 8.18026418,35.7757497 C8.06863304,34.442655 6.89814772,33.3906997 5.45350945,33.3906997 C4.00887119,33.3906997 2.83674423,34.442655 2.72675473,35.7757497 C2.83396469,37.1189638 4.02200719,38.1581261 5.45350945,38.1607997 Z" id="路径" fill="#FFFFFF"></path>
                    <path d="M34.7661228,23.8504998 C30.2504768,23.8557787 26.5911394,27.5137965 26.5858586,32.027814 C26.5911394,36.5418315 30.2504768,40.1998493 34.7661228,40.2051282 C39.2817687,40.1998493 42.9411061,36.5418315 42.9463869,32.027814 C42.9411061,27.5137965 39.2817687,23.8557787 34.7661228,23.8504998 L34.7661228,23.8504998 Z M34.7661228,38.9195196 C32.3034077,38.9198618 30.0275824,37.606809 28.7959284,35.4749754 C27.5642743,33.3431418 27.563909,30.7164037 28.79497,28.5842278 C30.0260311,26.452052 32.301491,25.1383667 34.7642061,25.1380244 C38.5712337,25.1374954 41.6578684,28.2221593 41.6583977,32.027814 C41.658927,35.8334687 38.5731504,38.9189904 34.7661228,38.9195196 L34.7661228,38.9195196 Z" id="形状" fill="#FC355D"></path>
                    <path d="M27.9492359,32.0278139 C27.9492359,34.4623747 29.2485271,36.7120017 31.3576793,37.9292822 C33.4668315,39.1465626 36.0654141,39.1465626 38.1745662,37.9292822 C40.2837184,36.7120017 41.5830096,34.4623747 41.5830096,32.0278139 C41.5830096,28.264309 38.5309854,25.2133855 34.7661228,25.2133855 C31.0012601,25.2133855 27.9492359,28.264309 27.9492359,32.0278139 L27.9492359,32.0278139 Z" id="路径" fill="#FC355D"></path>
                    <path d="M29.3126133,32.027814 C29.3126133,35.0386179 31.7542327,37.4793568 34.7661228,37.4793568 C37.7780129,37.4793568 40.2196322,35.0386179 40.2196322,32.027814 C40.2196322,29.01701 37.7780129,26.5762712 34.7661228,26.5762712 C31.7542327,26.5762712 29.3126133,29.01701 29.3126133,32.027814 L29.3126133,32.027814 Z" id="路径" fill="#FFFFFF"></path>
                    <path d="M59.3069153,23.8504998 C54.7912694,23.8557787 51.131932,27.5137965 51.1266511,32.027814 C51.131932,36.5418315 54.7912694,40.1998493 59.3069153,40.2051282 C63.8225613,40.1998493 67.4818986,36.5418315 67.4871795,32.027814 C67.4818986,27.5137965 63.8225613,23.8557787 59.3069153,23.8504998 L59.3069153,23.8504998 Z M59.3069153,38.9195195 C55.4998876,38.9200486 52.4132529,35.8353847 52.4127236,32.02973 C52.4121943,28.2240752 55.497971,25.1385535 59.3049987,25.1380244 C63.1120263,25.1374954 66.198661,28.2221593 66.1991902,32.027814 C66.1997195,35.8334687 63.1139429,38.9189904 59.3069153,38.9195195 L59.3069153,38.9195195 Z" id="形状" fill="#71BCFF"></path>
                    <path d="M52.4900285,32.027814 C52.4900285,35.7913189 55.5420527,38.8422425 59.3069153,38.8422425 C63.0717779,38.8422425 66.1238021,35.7913189 66.1238021,32.027814 C66.1238021,28.264309 63.0717779,25.2133855 59.3069153,25.2133855 C55.5420527,25.2133855 52.4900285,28.264309 52.4900285,32.027814 L52.4900285,32.027814 Z" id="路径" fill="#71BCFF"></path>
                    <path d="M53.8534059,32.027814 C53.8534059,35.0386179 56.2950252,37.4793568 59.3069153,37.4793568 C62.3188054,37.4793568 64.7604248,35.0386179 64.7604248,32.027814 C64.7604248,29.01701 62.3188054,26.5762712 59.3069153,26.5762712 C56.2950252,26.5762712 53.8534059,29.01701 53.8534059,32.027814 Z" id="路径" fill="#FFFFFF"></path>
                    <polygon id="路径" fill="#656D78" points="7.4985755 6.13298566 8.18026418 6.13298566 8.18026418 9.54019991 7.4985755 9.54019991"></polygon>
                    <path d="M27.8816836,7.96827757 C27.8816836,7.33370206 27.9629616,6.72193809 28.0990551,6.13298566 L8.18026418,6.13298566 L8.18026418,9.54019991 L28.0385691,9.54019991 C27.9352727,9.02387344 27.8826776,8.49689404 27.8816836,7.96827757 L27.8816836,7.96827757 Z M52.4767972,6.23252691 C52.4843579,6.20142027 52.4805776,6.1640923 52.4900285,6.13298566 L41.2660979,6.13298566 C41.527209,7.24808396 41.5485626,8.41449788 41.3284741,9.54019991 L52.4276523,9.54019991 L52.4257621,9.52153593 C52.3257079,9.01102006 52.274396,8.49045834 52.272657,7.96827757 C52.272657,7.36895626 52.353935,6.79037271 52.4767972,6.23252691 L52.4767972,6.23252691 Z" id="形状" fill="#656D78"></path>
                    <path d="M34.7661228,0 C30.2562442,0 26.5858586,3.66906202 26.5858586,8.17731421 C26.5858586,12.6855664 30.2562442,16.3546284 34.7661228,16.3546284 C39.277918,16.3546284 42.9463869,12.6855664 42.9463869,8.17731421 C42.9463869,3.66906202 39.2760013,0 34.7661228,0 Z" id="路径" fill="#71BCFF"></path>
                    <path d="M27.9492359,8.17731411 C27.9492359,10.6118749 29.2485271,12.861502 31.3576793,14.0787824 C33.4668315,15.2960628 36.0654141,15.2960628 38.1745662,14.0787824 C40.2837184,12.861502 41.5830096,10.6118749 41.5830096,8.17731411 C41.5830096,4.41380922 38.5309854,1.3628857 34.7661228,1.3628857 C31.0012601,1.3628857 27.9492359,4.41380922 27.9492359,8.17731411 L27.9492359,8.17731411 Z" id="路径" fill="#FFFFFF"></path>
                    <path d="M34.7670706,1.36288577 C32.3316315,1.36254734 30.0810123,2.6610573 28.8629995,4.76927958 C27.6449868,6.87750186 27.6446255,9.47514734 28.8620518,11.5837081 C30.0794782,13.6922688 32.3297361,14.9914043 34.7651751,14.9917427 C38.5300377,14.9922659 41.5824862,11.9417666 41.5830096,8.17826165 C41.583533,4.41475674 38.5319331,1.36340905 34.7670706,1.36288577 L34.7670706,1.36288577 Z M34.7670706,13.7222677 C31.7097542,13.7222677 29.2210646,11.2363702 29.2210646,8.17826165 C29.2210646,5.12015307 31.7097542,2.63425563 34.7670706,2.63425563 C37.8262823,2.63425563 40.3130766,5.12015307 40.3130766,8.17826165 C40.3130766,11.2363702 37.8243869,13.7222677 34.7670706,13.7222677 Z" id="形状" fill="#71BCFF"></path>
                    <path d="M59.3069153,0 C54.7951201,0 51.1266511,3.66714606 51.1266511,8.17731421 C51.1266511,12.6874824 54.7970368,16.3546284 59.3069153,16.3546284 C63.8187105,16.3546284 67.4871795,12.6874824 67.4871795,8.17731421 C67.4871795,3.66714606 63.8187105,0 59.3069153,0 Z M59.3069153,15.0690197 C55.4993584,15.0690197 52.4127236,11.9834981 52.4127236,8.17731421 C52.4127236,4.37113034 55.4993584,1.28560868 59.3069153,1.28560868 C63.1144723,1.28560868 66.201107,4.37113034 66.201107,8.17731421 C66.201107,11.9834981 63.1144723,15.0690197 59.3069153,15.0690197 L59.3069153,15.0690197 Z" id="形状" fill="#EF7E3F"></path>
                    <path d="M8.18026418,21.1247284 C3.66846899,21.1247284 0,24.7918744 0,29.3020426 C0,33.8122107 3.67038564,37.4793568 8.18026418,37.4793568 C12.6920594,37.4793568 16.3605284,33.8122107 16.3605284,29.3020426 C16.3605284,24.7918744 12.6920594,21.1247284 8.18026418,21.1247284 Z M8.18026418,36.1937481 C4.37270723,36.1937481 1.28607246,33.1082265 1.28607246,29.3020426 C1.28607246,25.4958587 4.37270723,22.4103371 8.18026418,22.4103371 C11.9878211,22.4103371 15.0744559,25.4958587 15.0744559,29.3020426 C15.0744559,33.1082265 11.9878211,36.1937481 8.18026418,36.1937481 L8.18026418,36.1937481 Z" id="形状备份" fill="#EF7E3F"></path>
                    <path d="M52.4900285,8.17731421 C52.4900285,11.9408192 55.5420527,14.9917427 59.3069153,14.9917427 C63.0717779,14.9917427 66.1238021,11.9408192 66.1238021,8.17731421 C66.1238021,4.41380927 63.0717779,1.3628857 59.3069153,1.3628857 C55.5420527,1.3628857 52.4900285,4.41380927 52.4900285,8.17731421 L52.4900285,8.17731421 Z" id="路径" fill="#FFFFFF"></path>
                    <path d="M1.36337736,29.3020426 C1.36337736,33.0655475 4.41540155,36.1164711 8.18026418,36.1164711 C11.9451268,36.1164711 14.997151,33.0655475 14.997151,29.3020426 C14.997151,25.5385376 11.9451268,22.4876141 8.18026418,22.4876141 C4.41540155,22.4876141 1.36337736,25.5385376 1.36337736,29.3020426 L1.36337736,29.3020426 Z" id="路径备份" fill="#FFFFFF"></path>
                    <path d="M59.3078631,1.36288577 C56.872424,1.36254734 54.6218049,2.6610573 53.4037921,4.76927958 C52.1857793,6.87750186 52.185418,9.47514734 53.4028444,11.5837081 C54.6202707,13.6922688 56.8705286,14.9914043 59.3059677,14.9917427 C63.0708303,14.9922659 66.1232787,11.9417666 66.1238021,8.17826165 C66.1243255,4.41475674 63.0727257,1.36340905 59.3078631,1.36288577 L59.3078631,1.36288577 Z M59.3078631,13.7222677 C56.2486513,13.7222677 53.7618571,11.2363702 53.7618571,8.17826165 C53.7618571,5.12015307 56.2505467,2.63425563 59.3078631,2.63425563 C62.3670749,2.63425563 64.8538691,5.12015307 64.8538691,8.17826165 C64.8538691,11.2363702 62.3670749,13.7222677 59.3078631,13.7222677 Z" id="形状" fill="#EF7E3F"></path>
                    <path d="M8.18121198,22.4876141 C5.74577289,22.4872757 3.49515372,23.7857857 2.27714095,25.894008 C1.05912817,28.0022302 1.05876691,30.5998757 2.27619324,32.7084365 C3.49361957,34.8169972 5.74387747,36.1161327 8.17931655,36.1164711 C11.9441791,36.1169943 14.9966276,33.0664949 14.997151,29.30299 C14.9976744,25.5394851 11.9460746,22.4881374 8.18121198,22.4876141 L8.18121198,22.4876141 Z M8.18121198,34.846996 C5.12200019,34.846996 2.63520597,32.3610986 2.63520597,29.30299 C2.63520597,26.2448814 5.12389561,23.758984 8.18121198,23.758984 C11.2404238,23.758984 13.727218,26.2448814 13.727218,29.30299 C13.727218,32.3610986 11.2404238,34.846996 8.18121198,34.846996 Z" id="形状备份-2" fill="#EF7E3F"></path>
                </g>
            </g>
        </g>
    </g>
</svg>