<?xml version="1.0" encoding="UTF-8"?>
<svg width="750px" height="634px" viewBox="0 0 750 634" version="1.1" xmlns="http://www.w3.org/2000/svg" xmlns:xlink="http://www.w3.org/1999/xlink">
    <title>编组 22</title>
    <g id="页面-1" stroke="none" stroke-width="1" fill="none" fill-rule="evenodd">
        <g id="建木-H5" transform="translate(0.000000, -2205.000000)">
            <g id="编组-22" transform="translate(-169.000000, 2205.000000)">
                <path d="M0.611144473,182.228462 C30.5832683,182.228462 137.040791,126.295627 402.619842,161.800422 C579.672543,185.470286 714.045873,185.470286 805.739833,161.800422 C986.475143,405.936334 981.977516,528.033524 792.246952,528.091993 C507.651105,528.179695 574.943849,494.437459 415.865857,502.999211 C256.787865,511.560963 0,553.101525 0,528.091993 C0,503.08246 0,182.228462 0.611144473,182.228462 Z" id="路径-3备份-2" fill="#F6FAFF" opacity="0.594749273" transform="translate(469.000000, 343.000000) scale(-1, 1) translate(-469.000000, -343.000000) "></path>
                <g id="编组-9" transform="translate(109.000000, 122.000000)" fill="#EDF6FF">
                    <path d="M8,282.19349 C16.1451201,266.641083 -35.1165049,199.730121 50,97.4116528 C67.2056591,76.7287467 267,40.4737218 422,36.501308 C525.333333,33.8530321 661,48.2714229 829,79.7564804 L844,511.425446 C657.657299,436.565759 511.323965,399.195644 405,399.315101 C245.514052,399.494286 99.2583168,521.970427 8,498.865163" id="路径-3" opacity="0.499818314" transform="translate(422.018026, 273.809275) scale(1, -1) translate(-422.018026, -273.809275) "></path>
                    <path d="M8,235.043737 C16.1451201,220.368089 113,17.3438305 422,3.20231768 C628,-6.22535751 763.666667,7.3802044 829,44.0190034 L844,451.352867 C657.657299,380.713354 511.323965,345.449959 405,345.562682 C245.514052,345.731766 99.2583168,461.303381 8,439.500663" id="路径-3备份" opacity="0.545739462" transform="translate(426.000000, 225.830536) scale(1, -1) translate(-426.000000, -225.830536) "></path>
                </g>
            </g>
        </g>
    </g>
</svg>