<?xml version="1.0" encoding="UTF-8"?>
<svg width="14px" height="14px" viewBox="0 0 14 14" version="1.1" xmlns="http://www.w3.org/2000/svg" xmlns:xlink="http://www.w3.org/1999/xlink">
    <title>向下2</title>
    <g id="页面-1" stroke="none" stroke-width="1" fill="none" fill-rule="evenodd">
        <g id="建木建木贡献者界面" transform="translate(-980.000000, -2228.000000)" fill-rule="nonzero">
            <g id="编组-7" transform="translate(926.000000, 2226.000000)">
                <g id="向下2" transform="translate(61.000000, 9.000000) scale(-1, 1) translate(-61.000000, -9.000000) translate(54.000000, 2.000000)">
                    <rect id="矩形" fill="#000000" opacity="0" x="0" y="0" width="14" height="14"></rect>
                    <path d="M12.1725541,4.52417686 C12.0006115,4.35442145 11.7241063,4.35529164 11.5539276,4.52681091 L7.07175447,9.05011759 L2.52699906,4.54607244 C2.35505644,4.3758937 2.07855126,4.37718721 1.90792567,4.54870649 C1.73774694,4.7206491 1.73904045,4.99757761 1.91055972,5.16777987 L6.74099247,9.95446849 C6.74842427,9.96190029 6.75804326,9.96366417 6.76549858,9.97064912 C6.76723894,9.97238948 6.76768578,9.97457668 6.76942614,9.97634055 C6.85472717,10.0607714 6.9662982,10.103222 7.07742238,10.103222 C7.18986358,10.103222 7.30272811,10.0599012 7.38805267,9.97373002 L12.1747413,5.14329728 C12.3453669,4.97130762 12.3440734,4.69437912 12.1725541,4.52417686 Z" id="路径" fill="#7B8C9C"></path>
                </g>
            </g>
        </g>
    </g>
</svg>