<?xml version="1.0" encoding="UTF-8"?>
<svg width="72px" height="72px" viewBox="0 0 72 72" version="1.1" xmlns="http://www.w3.org/2000/svg" xmlns:xlink="http://www.w3.org/1999/xlink">
    <title>Group</title>
    <g id="页面-1" stroke="none" stroke-width="1" fill="none" fill-rule="evenodd">
        <g id="建木官网" transform="translate(-487.000000, -3640.000000)" fill="#000000">
            <g id="Group" transform="translate(487.000000, 3640.000000)">
                <rect id="Rectangle" opacity="0" x="0" y="1" width="70.7368421" height="70.7368421"></rect>
                <path d="M35.5069252,3 C16.994349,3 2,18.0027258 2,36.5069252 C2,51.3141939 11.5997341,63.8709141 24.9103601,68.2966205 C26.5857064,68.612144 27.2,67.5762216 27.2,66.6854958 C27.2,65.8897063 27.1720776,63.7815623 27.1581164,60.9893185 C17.8376067,63.010903 15.871867,56.4938061 15.871867,56.4938061 C14.3473019,52.6265485 12.1442216,51.5934183 12.1442216,51.5934183 C9.10905261,49.5159889 12.3787701,49.5578726 12.3787701,49.5578726 C15.7434238,49.7924211 17.5109141,53.0090859 17.5109141,53.0090859 C20.4986149,58.1328532 25.3543269,56.652964 27.2698061,55.7957451 C27.5713684,53.628964 28.4341717,52.151867 29.3919114,51.3141939 C21.9505817,50.4765208 14.1295069,47.5949252 14.1295069,34.7561884 C14.1295069,31.0983491 15.4279003,28.1106482 17.577928,25.7651634 C17.200975,24.9191136 16.0701163,21.5125762 17.8711136,16.8969972 C17.8711136,16.8969972 20.6773185,15.9978947 27.085518,20.3314571 C29.766072,19.585928 32.6141606,19.2173518 35.4622493,19.2005983 C38.3103379,19.2173518 41.1584266,19.585928 43.8389806,20.3314571 C50.2052964,15.9978947 53.0115014,16.8969972 53.0115014,16.8969972 C54.8124986,21.5125762 53.6816399,24.9191136 53.3465706,25.7651634 C55.4826371,28.1106482 56.7810304,31.098349 56.7810304,34.7561884 C56.7810304,47.6284321 48.9487867,50.4625596 41.4934958,51.2862715 C42.6662382,52.2914792 43.7552133,54.3465707 43.7552133,57.4850527 C43.7552133,61.9693962 43.7133296,65.5713906 43.7133296,66.6603656 C43.7133296,67.5399224 44.2997008,68.5870138 46.0169307,68.2519446 C59.4224931,63.8569529 69.0138504,51.291856 69.0138504,36.5069252 C69.0138504,18.0027258 54.0111247,3 35.5069252,3" id="Path"></path>
            </g>
        </g>
    </g>
</svg>