<?xml version="1.0" encoding="UTF-8"?>
<svg width="72px" height="72px" viewBox="0 0 72 72" version="1.1" xmlns="http://www.w3.org/2000/svg" xmlns:xlink="http://www.w3.org/1999/xlink">
    <title>分组备份 2</title>
    <g id="页面-1" stroke="none" stroke-width="1" fill="none" fill-rule="evenodd">
        <g id="建木官网" transform="translate(-809.000000, -3639.000000)">
            <g id="分组备份-2" transform="translate(809.000000, 3639.000000)">
                <rect id="矩形" fill="#000000" opacity="0" x="0" y="0" width="72" height="72"></rect>
                <g id="编组-27" transform="translate(5.142857, 6.428571)">
                    <path d="M61.4345662,32.5353149 L57.9907102,21.8976776 L51.165144,0.813715533 C50.8140807,-0.271038602 49.2849388,-0.271038602 48.9337261,0.813715533 L42.1077117,21.8975277 L19.4417227,21.8975277 L12.6158577,0.813565602 C12.2647944,-0.271188534 10.7356524,-0.271188534 10.3842904,0.813565602 L3.55872415,21.8975277 L0.115017589,32.5354648 C-0.199119754,33.5056951 0.144951287,34.5685947 0.967279691,35.1682613 L30.7740449,56.9032258 L60.581109,35.1684113 C61.4033439,34.5686854 61.7475353,33.5056713 61.4333711,32.5354648" id="路径" fill="#FC6D26"></path>
                    <polygon id="路径" fill="#E24329" points="31.3549152 58.0645161 42.9677419 22.0645161 19.7419355 22.0645161"></polygon>
                    <polygon id="路径" fill="#FC6D26" points="32.516129 58.0645161 20.9102504 22.0645161 4.64516129 22.0645161"></polygon>
                    <path d="M4.78744494,20.9032258 L1.27847524,31.8433229 C0.958394069,32.841145 1.30902893,33.9342731 2.14696579,34.5509014 L32.516129,56.9032258 L4.78744494,20.9032258 Z" id="路径" fill="#FCA326"></path>
                    <path d="M3.48387097,24.3870968 L20.9032258,24.3870968 L13.4168863,2.02432071 C13.0318539,0.873613526 11.3545875,0.873613526 10.9695551,2.02432071 L3.48387097,24.3870968 Z" id="路径" fill="#E24329"></path>
                    <polygon id="路径" fill="#FC6D26" points="30.1935484 58.0645161 41.799427 22.0645161 58.0645161 22.0645161"></polygon>
                    <path d="M57.9222325,20.9032258 L61.4312022,31.8433229 C61.7512834,32.841145 61.4006485,33.9342731 60.5627116,34.5509014 L30.1935484,56.9032258 L57.9222325,20.9032258 Z" id="路径" fill="#FCA326"></path>
                    <path d="M58.0645161,24.3870968 L40.6451613,24.3870968 L48.1315713,2.02432071 C48.5167711,0.873613526 50.1938894,0.873613526 50.5789254,2.02432071 L58.0645161,24.3870968 Z" id="路径" fill="#E24329"></path>
                </g>
            </g>
        </g>
    </g>
</svg>