<?xml version="1.0" encoding="UTF-8"?>
<svg width="122px" height="30px" viewBox="0 0 122 30" version="1.1" xmlns="http://www.w3.org/2000/svg" xmlns:xlink="http://www.w3.org/1999/xlink">
    <title>编组 10</title>
    <defs>
        <polygon id="path-1" points="0.000123203285 0.187022587 10.845462 0.187022587 10.845462 30.5543901 0.000123203285 30.5543901"></polygon>
    </defs>
    <g id="页面-1" stroke="none" stroke-width="1" fill="none" fill-rule="evenodd">
        <g id="建木官网" transform="translate(-361.000000, -29.000000)">
            <g id="编组" transform="translate(361.000000, 29.000000)">
                <g transform="translate(0.000000, 0.059384)">
                    <mask id="mask-2" fill="white">
                        <use xlink:href="#path-1"></use>
                    </mask>
                    <g id="Clip-2"></g>
                    <path d="M5.33926078,2.95685421 C5.33926078,1.42198768 6.60726899,0.186997947 8.10911704,0.186997947 C9.64398357,0.186997947 10.845462,1.42198768 10.845462,2.95685421 C10.845462,4.45845585 9.64398357,5.69319918 8.10911704,5.69319918 C6.60726899,5.69319918 5.33926078,4.45845585 5.33926078,2.95685421 M10.845462,9.76482136 L10.845462,22.2785791 C10.845462,26.8171417 7.24151951,30.5213717 2.70295688,30.5543901 C1.20135524,30.5213717 0.000123203285,29.3198932 0.000123203285,27.8180452 C0.000123203285,26.2829322 1.23462012,25.0484353 2.76973306,25.0484353 L2.6361807,25.0484353 C4.13802875,25.0484353 5.33926078,23.8469569 5.33926078,22.2785791 L5.33926078,9.76482136 C5.33926078,8.22921561 6.60726899,6.99496509 8.10911704,6.99496509 C9.64398357,6.99496509 10.845462,8.22921561 10.845462,9.76482136" id="Fill-1" fill="#012C53" mask="url(#mask-2)"></path>
                </g>
                <path d="M14.1827187,3.18347433 C14.1827187,1.6486078 15.3841971,0.41361807 16.9190637,0.41361807 C18.4541766,0.41361807 19.655655,1.6486078 19.655655,3.18347433 C19.655655,4.68507598 18.4541766,5.9198193 16.9190637,5.9198193 C15.3841971,5.9198193 14.1827187,4.68507598 14.1827187,3.18347433" id="Fill-3" fill="#012C53"></path>
                <path d="M19.6556304,9.8571499 L19.6556304,21.0363696 C19.6556304,22.5379713 18.454152,23.772961 16.9192854,23.772961 C15.3841725,23.772961 14.182694,22.5379713 14.182694,21.0363696 L14.182694,9.8571499 C14.182694,8.35554825 15.3841725,7.12080493 16.9192854,7.12080493 C18.454152,7.12080493 19.6556304,8.35554825 19.6556304,9.8571499" id="Fill-5" fill="#012C53"></path>
                <path d="M31.3688624,18.194538 C29.9604025,18.194538 28.7796222,17.1542094 28.594078,15.8228747 C28.57954,15.7045996 28.5657413,15.5855852 28.5657413,15.458193 C28.5657413,15.3305544 28.57954,15.2117864 28.594078,15.0932649 C28.7796222,13.7619302 29.9604025,12.7213552 31.3688624,12.7213552 C32.8704641,12.7213552 34.1052074,13.956345 34.1052074,15.4579466 L34.1384723,15.4579466 L34.1384723,15.4584394 L34.1052074,15.4584394 C34.1052074,16.9597947 32.8704641,18.194538 31.3688624,18.194538 L31.3688624,18.194538 Z M39.7107105,15.458193 L39.7114497,15.4579466 L39.7099713,15.4579466 C39.7072608,15.4579466 39.6781848,15.4567146 39.6781848,15.4246817 L39.6781848,9.88521561 L39.6781848,9.88472279 C39.6781848,8.34985626 38.4099302,7.11535934 36.9083285,7.11535934 C36.2871376,7.11535934 35.7477536,7.29770021 35.3027433,7.62788501 C35.169191,7.72275154 35.0442628,7.82796715 34.9299302,7.94451745 C33.5939138,7.14862423 31.3688624,7.11535934 31.3688624,7.11535934 C29.858883,7.11535934 28.4457413,7.51330595 27.2245503,8.20644764 C27.159499,8.23034908 27.0944476,8.25425051 27.0306283,8.28332649 L26.463154,8.65047228 C24.5769117,9.99782341 23.2850021,12.1524025 23.0388419,14.5817248 C23.0363778,14.6061191 23.0344066,14.6310062 23.0321889,14.6558932 C23.0215934,14.7699795 23.0114908,14.8843121 23.0058234,14.9996304 C23.0008953,15.0893224 22.9994168,15.1802464 22.9974456,15.2706776 C22.99646,15.3221766 22.9927639,15.3729363 22.9927639,15.4246817 L22.9927639,15.4579466 L22.9927639,15.4584394 L22.9927639,15.4912115 C22.9927639,15.5429569 22.99646,15.593963 22.9974456,15.645462 C22.9994168,15.7358932 23.0008953,15.8265708 23.0058234,15.9162628 C23.0114908,16.0318275 23.0215934,16.1461602 23.0321889,16.2602464 C23.0344066,16.2851335 23.0363778,16.3100205 23.0388419,16.3344148 C23.2850021,18.7637372 24.5769117,20.9183162 26.463154,22.2654209 L27.0306283,22.6328131 C27.0944476,22.6616427 27.159499,22.6855441 27.2245503,22.7094456 C28.4457413,23.4025873 29.858883,23.8005339 31.3688624,23.8005339 C31.3688624,23.8005339 33.5939138,23.767269 34.9299302,22.9716222 C35.0442628,23.0879261 35.169191,23.1933881 35.3027433,23.2882546 C35.7477536,23.6184394 36.2871376,23.8005339 36.9083285,23.8005339 C38.4099302,23.8005339 39.6781848,22.566037 39.6781848,21.0311704 L39.6781848,21.0306776 L39.6781848,15.4912115 C39.6781848,15.4591786 39.7072608,15.4584394 39.7099713,15.4584394 L39.7114497,15.4584394 L39.7107105,15.458193 Z" id="Fill-7" fill="#012C53"></path>
                <path d="M59.7347187,15.4301766 L59.7347187,21.0029076 C59.7347187,22.5380205 58.499729,23.7727639 56.9648624,23.7727639 C55.4297495,23.7727639 54.1952526,22.5380205 54.1952526,21.0029076 L54.1952526,15.4301766 C54.1952526,13.8953101 52.9269979,12.6605667 51.391885,12.6605667 C49.8570185,12.6605667 48.6222752,13.8953101 48.6222752,15.4301766 L48.6222752,21.0029076 C48.6222752,22.5380205 47.3875318,23.7727639 45.8524189,23.7727639 C44.317306,23.7727639 43.0492977,22.5380205 43.0492977,21.0029076 L43.0492977,15.4301766 C43.0492977,10.8250842 46.7867926,7.08783573 51.391885,7.08783573 C55.9972238,7.08783573 59.7347187,10.8250842 59.7347187,15.4301766" id="Fill-9" fill="#012C53"></path>
                <path d="M90.9366653,15.463614 L90.9366653,21.036345 C90.9366653,22.5379466 89.6686571,23.7729363 88.1335441,23.7729363 C86.5984312,23.7729363 85.3636879,22.5379466 85.3636879,21.036345 L85.3636879,15.463614 C85.3636879,13.9287474 84.0956797,12.6604928 82.5605667,12.6604928 C81.0254538,12.6604928 79.757692,13.9287474 79.757692,15.463614 L79.757692,21.036345 C79.757692,22.5379466 78.5227023,23.7729363 76.9878357,23.7729363 C75.4527228,23.7729363 74.1847146,22.5379466 74.1847146,21.036345 L74.1847146,15.463614 C74.1847146,13.9287474 72.9832361,12.6604928 71.4483696,12.6604928 C69.9132567,12.6604928 68.6450021,13.9287474 68.6450021,15.463614 L68.6450021,21.036345 C68.6450021,22.5379466 67.4102587,23.7729363 65.8753922,23.7729363 C64.3402793,23.7729363 63.072271,22.5379466 63.072271,21.036345 L63.072271,15.463614 C63.072271,10.8250103 66.8430308,7.08776181 71.4483696,7.08776181 C73.5839754,7.08776181 75.519499,7.88858316 76.9878357,9.22336756 C78.4561725,7.88858316 80.424961,7.08776181 82.5605667,7.08776181 C87.1659055,7.08776181 90.9366653,10.8585216 90.9366653,15.463614" id="Fill-11" fill="#096DD9"></path>
                <path d="M94.2750801,15.4301766 L94.2750801,9.85719918 C94.2750801,8.32208624 95.5098234,7.08783573 97.0449363,7.08783573 C98.5798029,7.08783573 99.8145462,8.32208624 99.8145462,9.85719918 L99.8145462,15.4301766 C99.8145462,16.9650431 101.082554,18.2000329 102.617667,18.2000329 C104.15278,18.2000329 105.38777,16.9650431 105.38777,15.4301766 L105.38777,9.85719918 C105.38777,8.32208624 106.622267,7.08783573 108.15738,7.08783573 C109.692246,7.08783573 110.960501,8.32208624 110.960501,9.85719918 L110.960501,15.4301766 C110.960501,20.0355154 107.223006,23.7727639 102.617667,23.7727639 C98.0125749,23.7727639 94.2750801,20.0355154 94.2750801,15.4301766" id="Fill-13" fill="#096DD9"></path>
                <polygon id="Fill-15" fill="#096DD9" points="113.843581 7.08771253 116.293848 7.08771253 116.293848 7.38512526 115.238242 7.38512526 115.238242 10.0781027 114.899187 10.0781027 114.899187 7.38512526 113.843581 7.38512526"></polygon>
                <polygon id="Fill-17" fill="#0181DF" points="116.666538 7.08771253 117.093561 7.08771253 118.207811 9.63826694 118.220378 9.63826694 119.330193 7.08771253 119.757216 7.08771253 119.757216 10.0781027 119.413971 10.0781027 119.413971 7.69904723 119.401405 7.69904723 118.366743 10.0781027 118.05701 10.0781027 117.022349 7.69904723 117.010029 7.69904723 117.010029 10.0781027 116.666538 10.0781027"></polygon>
            </g>
        </g>
    </g>
</svg>