<?xml version="1.0" encoding="UTF-8"?>
<svg width="98px" height="98px" viewBox="0 0 98 98" version="1.1" xmlns="http://www.w3.org/2000/svg" xmlns:xlink="http://www.w3.org/1999/xlink">
    <title>缺省页_暂无审批</title>
    <g id="页面-1" stroke="none" stroke-width="1" fill="none" fill-rule="evenodd" opacity="0.602084847">
        <g id="建木建木贡献者界面-无数据" transform="translate(-911.000000, -537.000000)">
            <g id="编组-3" transform="translate(911.000000, 537.000000)">
                <g id="缺省页_暂无审批" fill-rule="nonzero">
                    <rect id="矩形" fill="#000000" opacity="0" x="0" y="0" width="98" height="98"></rect>
                    <path d="M9.8,85.75 C9.8,88.4561953 27.3504378,90.65 49,90.65 C70.6495622,90.65 88.2,88.4561953 88.2,85.75 C88.2,83.0438047 70.6495622,80.85 49,80.85 C27.3504378,80.85 9.8,83.0438047 9.8,85.75 Z" id="路径" fill="#4A68CC" opacity="0.1"></path>
                    <path d="M7.742,76.734 C7.742,77.567 8.379,78.204 9.212,78.204 C10.045,78.204 10.682,77.567 10.682,76.734 C10.682,75.901 10.045,75.264 9.212,75.264 C8.428,75.264 7.742,75.95 7.742,76.734 Z M88.2,80.654 C86.73,81.046 86.387,81.34 85.995,82.859 C85.603,81.389 85.309,81.046 83.79,80.654 C85.26,80.262 85.603,79.919 85.995,78.449 C86.387,79.919 86.681,80.262 88.2,80.654 Z M14.21,72.373 C12.348,72.863 11.956,73.255 11.417,75.166 C10.927,73.304 10.535,72.912 8.624,72.373 C10.486,71.883 10.878,71.491 11.417,69.58 C11.956,71.442 12.348,71.834 14.21,72.373 Z M20.335,25.431 C18.865,25.823 18.571,26.117 18.179,27.587 C17.787,26.117 17.493,25.823 16.023,25.431 C17.493,25.039 17.787,24.745 18.179,23.275 C18.522,24.745 18.865,25.039 20.335,25.431 Z M19.11,19.845 C15.288,20.825 14.504,21.658 13.475,25.48 C12.495,21.658 11.662,20.874 7.84,19.845 C11.662,18.865 12.446,18.032 13.475,14.21 C14.455,17.983 15.288,18.816 19.11,19.845 Z" id="形状" fill="#4A68CC" opacity="0.5"></path>
                    <polygon id="路径" fill="#4A68CC" opacity="0.2" points="69.335 12.446 69.335 12.887 72.912 16.317 86.877 9.506 74.284 17.591 74.284 21.56 76.293 19.6 76.293 19.551 76.342 19.6 78.351 21.56 89.18 8.379 89.18 7.889"></polygon>
                </g>
                <g id="编组-2" transform="translate(23.138889, 20.416667)">
                    <path d="M28.447281,35.0642202 L28.8686884,35.0673929 C33.5336566,35.1371923 37.9114646,36.3639045 41.7150196,38.4668774 C39.9512089,39.2058527 38.5377256,40.6914706 37.9847087,42.6290664 L37.9682068,42.6879597 L37.8036611,43.2864767 C37.5964815,42.9896321 37.3639472,42.7104719 37.108552,42.4519899 L37.052486,42.3958727 L37.0265835,42.370425 L36.9507017,42.2973868 C34.455667,39.936764 30.4898658,39.9370284 27.9951692,42.2981138 L27.9200314,42.370425 L21.5659844,48.5803951 L21.5037641,48.6422628 L21.4061729,48.7421368 C18.6459579,51.6197118 18.6813965,56.1163565 21.4923345,58.9522897 L21.5783609,59.0376883 L24.0336963,61.4373089 L3.71720736,61.4373089 L3.6843388,61.4370445 C2.50560195,61.4183388 1.55599818,60.478624 1.55599818,59.3221739 C1.55599818,59.223688 1.56282889,59.1267222 1.57615216,59.0318056 L1.57364982,59.0288312 C2.81825905,45.5921721 14.3748037,35.0642202 28.447281,35.0642202 Z" id="路径备份" fill="#DBE1F5"></path>
                    <path d="M42.7434389,40.4304788 C45.1416012,41.0730419 46.5647506,43.5380734 45.9221875,45.9362357 L40.8500975,64.8656465 C38.451865,64.2230834 37.0287156,61.7580519 37.6712787,59.3598896 L42.7434389,40.4304788 Z" id="路径" stroke="#FFFFFF" stroke-width="1.19877676" fill="#A4B3E5"></path>
                    <path d="M51.3832712,42.7199785 L59.5287486,50.8655963 C60.8322778,52.1691256 60.8452724,54.2743836 59.5678727,55.5939278 L59.5287486,55.6336841 L51.3832712,63.7792317 C49.627672,62.0236325 49.627672,59.1772635 51.3832712,57.4217345 L55.5552953,53.24957 L51.3832712,49.0775459 C49.627672,47.3219467 49.627672,44.4756479 51.3832712,42.7199785 L51.3832712,42.7199785 Z" id="路径" stroke="#FFFFFF" stroke-width="1.19877676" fill="#A4B3E5"></path>
                    <path d="M32.1193736,42.7199083 C33.8749025,44.4755777 33.8749025,47.3218764 32.1193736,49.0774756 L27.9472792,53.24957 L32.1193736,57.4216643 C33.8573423,59.1597033 33.8746918,61.9667374 32.1714923,63.7261296 L32.1193736,63.7791614 L23.973826,55.6335436 C22.670367,54.3300143 22.6573022,52.2247563 23.9347721,50.9052122 L23.973826,50.8654558 L32.1193736,42.7199083 L32.1193736,42.7199083 Z" id="路径" stroke="#FFFFFF" stroke-width="1.19877676" fill="#A4B3E5"></path>
                    <path d="M27.9290869,32.1375191 C33.4498364,32.2184306 38.1845892,33.5811686 42.2991247,35.9088368 C43.2200233,36.429806 44.115495,37.0023039 44.9824329,37.6291667 C44.0223862,37.527946 43.0568619,37.6786433 42.1811851,38.0540293 C40.6736629,38.7002754 39.4648335,39.9985469 38.9906823,41.6923776 L38.9906823,41.6923776 L38.1261643,44.9043672 L36.6562315,42.7494233 C36.4821197,42.4941728 36.2870512,42.2538782 36.0728683,42.0310641 C34.9416314,40.9416834 33.5379282,40.3853015 32.1448858,40.3612351 C30.7481808,40.3371053 29.3666513,40.8488778 28.3000144,41.8784298 L28.3000144,41.8784298 L21.6436677,48.5335162 C20.3648329,49.9019505 19.7224486,51.5921898 19.7108382,53.2651561 C19.6991932,54.943119 20.3227051,56.5998988 21.5605026,57.88106 L21.5605026,57.88106 L26.238278,62.5612005 L2.20175038,62.560881 C1.25802962,62.5484424 0.405737978,62.1569067 -0.209511645,61.5313735 C-0.821317233,60.909342 -1.19877676,60.0560888 -1.19877676,59.1146789 C-0.509459651,51.3891395 2.97362698,44.6621534 8.19279615,39.8448909 C13.3951566,35.0431428 20.3227487,32.1375191 27.9290869,32.1375191 Z" id="路径" stroke="#A4B3E5" stroke-width="2.39755352"></path>
                    <path d="M28.2287811,4.49541284 C35.6770294,4.49541284 41.7150196,10.5334031 41.7150196,17.9816514 C41.7150196,25.4298997 35.6770294,31.4678899 28.2287811,31.4678899 C20.7805328,31.4678899 14.7425425,25.4298997 14.7425425,17.9816514 C14.7425425,10.5334031 20.7805328,4.49541284 28.2287811,4.49541284 Z" id="路径备份-2" fill="#DBE1F5"></path>
                    <path d="M27.9642073,0 C36.6732268,0 43.7332726,7.06004587 43.7332726,15.7690654 C43.7332726,24.4780849 36.6732268,31.5381307 27.9642073,31.5381307 C19.2551878,31.5381307 12.1951419,24.4780849 12.1951419,15.7690654 C12.1951419,7.06004587 19.2551878,0 27.9642073,0 Z" id="路径" stroke="#A4B3E5" stroke-width="2.39755352"></path>
                </g>
            </g>
        </g>
    </g>
</svg>