<?xml version="1.0" encoding="UTF-8"?>
<svg width="98px" height="98px" viewBox="0 0 98 98" version="1.1" xmlns="http://www.w3.org/2000/svg" xmlns:xlink="http://www.w3.org/1999/xlink">
    <title>编组 2</title>
    <defs>
        <path d="M0.256544503,48.9978969 C0.256544503,75.9189275 22.0785822,97.7434555 48.9985979,97.7434555 C75.9186135,97.7434555 97.7434555,75.9203296 97.7434555,48.999299 C97.7434555,22.0796705 75.9200157,0.256544503 48.9985979,0.256544503 C22.0799843,0.255142493 0.256544503,22.0782684 0.256544503,48.9978969 Z" id="path-1"></path>
        <linearGradient x1="124.828497%" y1="50%" x2="30.9251575%" y2="23.5763057%" id="linearGradient-3">
            <stop stop-color="#D5D5D5" stop-opacity="0.574" offset="0%"></stop>
            <stop stop-color="#ABABAB" stop-opacity="0.574" offset="100%"></stop>
        </linearGradient>
    </defs>
    <g id="页面-1" stroke="none" stroke-width="1" fill="none" fill-rule="evenodd">
        <g id="建木建木贡献者界面-无网络" transform="translate(-911.000000, -492.000000)">
            <g id="编组-3" transform="translate(911.000000, 492.000000)">
                <rect id="矩形" fill="#000000" fill-rule="nonzero" opacity="0" x="0" y="0" width="98" height="98"></rect>
                <g id="路径备份">
                    <mask id="mask-2" fill="white">
                        <use xlink:href="#path-1"></use>
                    </mask>
                    <use id="蒙版" fill="#C2C8D6" fill-rule="nonzero" opacity="0.068659157" xlink:href="#path-1"></use>
                    <path d="M0.256544503,85.5973754 C0.256544503,94.8556744 22.1934351,102.361257 49.255135,102.361257 C76.3168349,102.361257 98.2565445,94.8561566 98.2565445,85.5978576 C98.2565445,76.3400407 76.3182445,68.8349408 49.255135,68.8349408 C22.1948445,68.8344586 0.256544503,76.3395585 0.256544503,85.5973754 Z" fill="#C2C8D6" fill-rule="nonzero" opacity="0.1" mask="url(#mask-2)"></path>
                </g>
                <g id="暂无网络" opacity="0.610805778" transform="translate(49.026316, 50.005263) scale(-1, 1) translate(-49.026316, -50.005263) translate(15.526316, 16.505263)" fill-rule="nonzero">
                    <rect id="矩形" fill="#000000" opacity="0" x="0" y="0" width="66.0210526" height="66.0210526"></rect>
                    <path d="M44.8245285,19.7247681 C54.6304694,29.8311264 58.9354398,41.51648 54.4385362,46.0366424 L54.3730592,46.1012309 L54.3163852,46.1555499 C54.2990361,46.1767349 54.2794379,46.196499 54.2597113,46.2163276 C47.4566539,53.0545718 37.2226385,54.5593549 28.2342288,50.9292222 L30.6097793,59.3011205 C30.9166668,60.3824614 30.2934462,61.5087559 29.2177337,61.8168431 C29.0371739,61.8685139 28.8503169,61.8947368 28.6624962,61.8947368 L16.6687614,61.8925408 C16.1558788,61.8931532 15.6619889,61.6975359 15.2873823,61.3454115 L15.2364914,61.2960013 C14.86991,60.9275239 14.64315,60.4185664 14.6430214,59.8563234 C14.6430214,59.6677249 14.6690452,59.4799661 14.7204501,59.2984724 L17.6079295,49.1060823 L18.8672219,44.6607133 L18.6175866,44.4067513 C8.73627332,34.1739287 8.17345355,18.4933881 17.4264058,9.19251319 L17.4837223,9.13948602 L17.5149508,9.10570623 C17.5442516,9.07405786 17.5747091,9.04350749 17.6052307,9.01282795 C22.1021986,4.49260093 33.72736,8.81983747 43.7816509,18.6764965 L29.0785549,31.4516521 L29.0255435,31.4992539 C28.1756915,32.2874275 28.0962708,33.6173049 28.8582847,34.5033947 C28.8923405,34.5429875 28.9278099,34.5813531 28.9646929,34.6183623 C29.8054206,35.463503 31.1682939,35.4637613 32.0087646,34.6189436 L32.0629325,34.5624286 L32.1151085,34.503976 L44.8245285,19.7248327 L44.8245285,19.7247681 Z" id="路径" fill-opacity="0.421683785" fill="#D3D5D7"></path>
                    <path d="M46.7247753,15.1796842 C46.2873977,14.509316 46.3628429,13.6023097 46.951175,13.0139778 C47.6262147,12.3388743 48.7208425,12.3391302 49.3961381,13.0143617 C50.0714338,13.6896572 50.0716257,14.7843487 49.3965861,15.4593882 C48.808254,16.0476561 47.9013114,16.1231013 47.2309431,15.6857878 L31.3038716,34.1116341 L43.8400029,19.6090671 C53.6054575,29.6219078 57.8926538,41.199133 53.4143168,45.6774688 C48.8577829,50.2339375 36.9526656,45.7163753 26.8233589,35.5871351 C16.6941801,25.457895 12.1765527,13.5527807 16.7330866,8.99624806 C21.2114876,4.5178482 32.7886517,8.80504339 42.8014311,18.5704955 L28.1590403,31.2274383 L46.7247113,15.1796842 L46.7247753,15.1796842 Z" id="路径" fill="url(#linearGradient-3)" opacity="0.395326126"></path>
                    <path d="M49.5318262,12.8786152 C50.1979843,13.5447127 50.1981737,14.6244939 49.5323311,15.2903389 C48.9520149,15.8705943 48.057429,15.9450119 47.3961942,15.5136549 L31.5668909,33.8264451 C31.5334427,33.8651692 31.4985991,33.9026658 31.4624289,33.9388605 C30.6368322,34.7644604 29.2980778,34.7642079 28.4722285,33.9382924 C28.4360394,33.9021181 28.4011748,33.8646427 28.3677034,33.8259401 C27.6039002,32.9423336 27.7007247,31.6071089 28.5840754,30.8436183 L46.8967965,15.0144447 C46.4654411,14.3532073 46.5398584,13.458555 47.1201747,12.8782365 C47.7860172,12.2123283 48.8657312,12.2125808 49.5318262,12.8786152 Z" id="路径" fill-opacity="0.304" fill="#000000"></path>
                    <path d="M25.9208178,43.4026632 L30.353732,59.2704341 C30.6593112,60.3642966 30.0381014,61.5039083 28.9660455,61.8157869 C28.7860725,61.8681552 28.5998411,61.8947368 28.4126995,61.8947368 L16.4604129,61.8947368 C15.3457821,61.8947368 14.4421053,60.9725644 14.4421053,59.8350441 C14.4421053,59.6442047 14.4680984,59.454215 14.5193163,59.2706301 L18.9287343,43.4788682 C19.3749708,41.8805231 20.796077,40.7703216 22.424552,40.7477084 C24.0438717,40.7252913 25.4768221,41.8134025 25.9208178,43.4026632 L25.9208178,43.4026632 Z" id="路径" fill-opacity="0.574" fill="#ABABAB"></path>
                    <path d="M20.6315789,44.3578947 C20.6315789,45.2124827 21.3243594,45.9052632 22.1789474,45.9052632 C23.0335353,45.9052632 23.7263158,45.2124827 23.7263158,44.3578947 C23.7263158,43.5033068 23.0335353,42.8105263 22.1789474,42.8105263 C21.3243594,42.8105263 20.6315789,43.5033068 20.6315789,44.3578947 Z" id="路径" fill-opacity="0.304" fill="#000000"></path>
                    <path d="M58.8,13.9263158 C58.8,19.2845855 54.4996834,23.6384669 49.1620352,23.7250389 L49,23.7263158 L49,22.5733633 C53.7278775,22.5733633 57.5695414,18.7790076 57.6458984,14.0693256 L57.6470476,13.9263158 L58.8,13.9263158 Z M56.1824104,14.0540031 C56.1824104,17.9810259 53.0307049,21.1719953 49.1187492,21.2354559 L49,21.2364135 L49,20.0872278 C52.2984182,20.0872278 54.9785746,17.440334 55.0323948,14.1547484 L55.0332248,14.0540031 L56.1824104,14.0540031 Z M53.2456026,13.9263158 C53.2456026,16.2762089 51.3647687,18.1868578 49.0263036,18.2348682 L48.9361564,18.235762 L48.9361564,17.0865764 C50.6538059,17.0865764 52.0514072,15.7162363 52.0953316,14.0091848 L52.0964169,13.9263158 L53.2456026,13.9263158 Z M49,6.87159266 L49,8.02077833 C45.7015818,8.02077833 43.0214254,10.6676721 42.9676052,13.9532578 L42.9667752,14.0540031 L41.8175896,14.0540031 C41.8175896,10.0872695 45.0332664,6.87159266 49,6.87159266 Z M48.9361564,9.61686954 L48.9361564,10.7660552 C47.2185068,10.7660552 45.8209055,12.1363953 45.7769811,13.8434467 L45.7758958,13.9263158 L44.6267101,13.9263158 C44.6267101,11.5462246 46.5560651,9.61686954 48.9361564,9.61686954 Z M49,4.12631579 L49,5.27926823 C44.2721225,5.27926823 40.4304586,9.07362393 40.3541016,13.783306 L40.3529524,13.9263158 L39.2,13.9263158 C39.2,8.51390667 43.5875909,4.12631579 49,4.12631579 Z" id="形状" fill-opacity="0.574" fill="#ABABAB"></path>
                </g>
            </g>
        </g>
    </g>
</svg>