<?xml version="1.0" encoding="UTF-8"?>
<svg width="98px" height="98px" viewBox="0 0 98 98" version="1.1" xmlns="http://www.w3.org/2000/svg" xmlns:xlink="http://www.w3.org/1999/xlink">
    <title>编组 4备份</title>
    <g id="页面-1" stroke="none" stroke-width="1" fill="none" fill-rule="evenodd" opacity="0.602084847">
        <g id="建木建木贡献者界面-无数据" transform="translate(-911.000000, -826.000000)">
            <g id="编组-4备份" transform="translate(911.000000, 826.000000)">
                <rect id="矩形" fill="#000000" fill-rule="nonzero" opacity="0" x="0" y="0" width="98" height="98"></rect>
                <path d="M9.8,85.75 C9.8,88.4561953 27.3504378,90.65 49,90.65 C70.6495622,90.65 88.2,88.4561953 88.2,85.75 C88.2,83.0438047 70.6495622,80.85 49,80.85 C27.3504378,80.85 9.8,83.0438047 9.8,85.75 Z" id="路径" fill="#4A68CC" fill-rule="nonzero" opacity="0.1"></path>
                <path d="M7.742,76.734 C7.742,77.567 8.379,78.204 9.212,78.204 C10.045,78.204 10.682,77.567 10.682,76.734 C10.682,75.901 10.045,75.264 9.212,75.264 C8.428,75.264 7.742,75.95 7.742,76.734 Z" id="路径" fill="#4A68CC" fill-rule="nonzero" opacity="0.5"></path>
                <path d="M88.2,80.654 C86.73,81.046 86.387,81.34 85.995,82.859 C85.603,81.389 85.309,81.046 83.79,80.654 C85.26,80.262 85.603,79.919 85.995,78.449 C86.387,79.919 86.681,80.262 88.2,80.654 Z" id="路径" fill="#4A68CC" fill-rule="nonzero" opacity="0.5"></path>
                <path d="M14.21,72.373 C12.348,72.863 11.956,73.255 11.417,75.166 C10.927,73.304 10.535,72.912 8.624,72.373 C10.486,71.883 10.878,71.491 11.417,69.58 C11.956,71.442 12.348,71.834 14.21,72.373 Z" id="路径" fill="#4A68CC" fill-rule="nonzero" opacity="0.5"></path>
                <path d="M20.335,25.431 C18.865,25.823 18.571,26.117 18.179,27.587 C17.787,26.117 17.493,25.823 16.023,25.431 C17.493,25.039 17.787,24.745 18.179,23.275 C18.522,24.745 18.865,25.039 20.335,25.431 Z" id="路径" fill="#4A68CC" fill-rule="nonzero" opacity="0.5"></path>
                <path d="M19.11,19.845 C15.288,20.825 14.504,21.658 13.475,25.48 C12.495,21.658 11.662,20.874 7.84,19.845 C11.662,18.865 12.446,18.032 13.475,14.21 C14.455,17.983 15.288,18.816 19.11,19.845 Z" id="路径" fill="#4A68CC" fill-rule="nonzero" opacity="0.5"></path>
                <polygon id="路径" fill="#4A68CC" fill-rule="nonzero" opacity="0.2" points="69.335 12.446 69.335 12.887 72.912 16.317 86.877 9.506 74.284 17.591 74.284 21.56 76.293 19.6 76.293 19.551 76.342 19.6 78.351 21.56 89.18 8.379 89.18 7.889"></polygon>
                <rect id="矩形" fill="#000000" fill-rule="nonzero" opacity="0" x="13.6111111" y="19.0555556" width="68.0555556" height="68.0555556"></rect>
                <path d="M66.7341788,49.0540795 C70.3564858,46.7555502 72.762754,42.7124914 72.762754,38.1046288 C72.762754,30.9461459 66.9598602,25.142952 59.8013773,25.142952 C59.4415474,25.142952 59.0859191,25.1615587 58.7332919,25.1903691 C60.0469657,26.1070344 61.1965172,27.2388302 62.1335188,28.538077 C66.4412731,29.588456 69.6491305,33.4781594 69.6491306,38.1046288 C69.6491306,43.0300059 66.0148192,47.1219824 61.2872134,47.8404416 C60.9471907,47.927473 60.2032223,48.539994 60.2032223,49.515346 C60.2032223,50.4906979 61.0912427,51.0470987 61.4438699,51.1158234 C71.0170241,51.9507247 78.5533433,60.0047307 78.5533433,69.7906616 C78.5533433,71.0700232 76.958868,72.4154086 74.1798653,73.5021008 L74.4328566,76.7270644 C78.7544159,75.2193203 81.6669668,72.906986 81.6669668,69.7906616 C81.6666667,60.1388791 75.4103093,51.9537258 66.7341788,49.0540795 L66.7341788,49.0540795 Z M28.6126239,49.0540795 C24.9903169,46.7555502 22.5840487,42.7124914 22.5840487,38.1046288 C22.5840487,30.9461459 28.3869425,25.142952 35.5454254,25.142952 C35.9052552,25.142952 36.2608835,25.1615587 36.6135107,25.1903691 C35.2998369,26.1070344 34.1502855,27.2388302 33.2132839,28.538077 C28.9055296,29.588456 25.6976722,33.4781594 25.6976722,38.1046288 C25.6976722,43.0300059 29.3319835,47.1219824 34.0595892,47.8404416 C34.3996119,47.927473 35.1435804,48.539994 35.1435804,49.515346 C35.1435804,50.4906979 34.25556,51.0470987 33.9029327,51.1158234 C24.3297786,51.9507247 16.7934593,60.0047307 16.7934593,69.7906616 C16.7934593,71.0700232 18.3879347,72.4154086 21.1669374,73.5021008 L20.9139461,76.7270644 C16.5923868,75.2193203 13.6798359,72.906986 13.6798359,69.7906616 C13.6801361,60.1388791 19.9364935,51.9537258 28.6126239,49.0540795 Z" id="形状" fill="#A4B3E5" fill-rule="nonzero"></path>
                <path d="M53.9323609,51.7055701 C57.2206792,49.5210512 59.4052961,45.6783255 59.4052961,41.2990993 C59.4052961,34.4955565 54.1376731,28.9802115 47.6388889,28.9802115 C41.1405794,28.9802115 35.8722444,34.4955565 35.8722444,41.2990993 C35.8722444,45.6783255 38.0566239,49.5210511 41.3451796,51.7055701 C33.4687861,54.4613789 27.7893519,62.2407612 27.7893519,71.4139517 C27.7893519,82.8911871 67.4884259,82.8911871 67.4884259,71.4139517 C67.4884259,62.2407612 61.8089918,54.4616274 53.9323609,51.7055701 L53.9323609,51.7055701 Z" id="路径" fill="#DBE1F5"></path>
                <path d="M55.280962,50.6085102 C59.27392,48.1205859 61.926669,43.7441483 61.926669,38.7566962 C61.926669,31.008217 55.5302697,24.7268519 47.6388889,24.7268519 C39.7480846,24.7268519 33.3508206,31.008217 33.3508206,38.7566962 C33.3508206,43.7441483 36.0032814,48.1205858 39.9965276,50.6085102 C30.4323355,53.7470702 23.5358796,62.6069223 23.5358796,73.054167 C23.5358796,86.1254629 71.7418981,86.1254629 71.7418981,73.054167 C71.7418981,62.6069223 64.8454424,53.7473532 55.280962,50.6085102 L55.280962,50.6085102 Z" id="路径" stroke="#A4B3E5" stroke-width="2.70520555" fill-rule="nonzero"></path>
                <path d="M48.2661522,58.7546296 C49.8551139,59.2020379 50.7980567,60.9184073 50.3723107,62.5882164 L47.0116719,75.7685185 C45.4226637,75.3211102 44.4797209,73.6047409 44.9054669,71.9349317 L48.2661522,58.7546296 Z" id="路径" stroke="#DBE1F5" stroke-width="1.24872579" fill="#A4B3E5"></path>
                <path d="M54.2034408,60.1724537 L59.7293743,65.656529 C60.6136953,66.5341362 60.6225108,67.951511 59.7559164,68.8399003 L59.7293743,68.8666664 L54.2034408,74.3506944 C53.0124333,73.1687291 53.0124333,71.2523978 54.2034408,70.0704797 L57.0337633,67.2615504 L54.2034408,64.4527157 C53.0124333,63.2707503 53.0124333,61.3544664 54.2034408,60.1724537 L54.2034408,60.1724537 Z" id="路径" stroke="#DBE1F5" stroke-width="1.24872579" fill="#A4B3E5"></path>
                <path d="M41.0743712,60.1724537 C42.2653331,61.3544664 42.2653331,63.2707503 41.0743712,64.4527157 L38.2439963,67.2615977 L41.0743712,70.0704797 C42.2534201,71.2406226 42.2651901,73.1304715 41.1097289,74.3149905 L41.0743712,74.3506944 L35.5483807,68.8666191 C34.664106,67.989012 34.6552428,66.5716371 35.5218863,65.6832479 L35.5483807,65.6564817 L41.0743712,60.1724537 L41.0743712,60.1724537 Z" id="路径" stroke="#DBE1F5" stroke-width="1.24872579" fill="#A4B3E5"></path>
            </g>
        </g>
    </g>
</svg>