<?xml version="1.0" encoding="UTF-8"?>
<svg width="24px" height="24px" viewBox="0 0 24 24" version="1.1" xmlns="http://www.w3.org/2000/svg" xmlns:xlink="http://www.w3.org/1999/xlink">
    <title>组件信息</title>
    <g id="页面-1" stroke="none" stroke-width="1" fill="none" fill-rule="evenodd">
        <g id="建木官网" transform="translate(-1342.000000, -32.000000)" fill-rule="nonzero">
            <g id="组件信息" transform="translate(1342.000000, 32.000000)">
                <rect id="矩形" fill="#000000" opacity="0" x="0" y="0" width="24" height="24"></rect>
                <path d="M21.3756522,15.5154783 L13.1186087,20.4699131 C12.8663031,20.609726 12.5816256,20.6806254 12.2932174,20.6754783 C11.9947826,20.6754783 11.6953043,20.6066087 11.4667826,20.4699131 L3.20973914,15.5154783 C2.75373914,15.2420869 2.75373914,14.7975652 3.20973914,14.5252174 L4.61008695,13.6852174 L10.9815652,17.5085217 C11.3478261,17.7266087 11.8121739,17.8466087 12.2932174,17.8466087 C12.7732174,17.8466087 13.2375652,17.7266087 13.6038261,17.5085217 L19.9753043,13.6852174 L21.3756522,14.5252174 C21.8316522,14.7986087 21.8316522,15.242087 21.3756522,15.5154783 L21.3756522,15.5154783 Z" id="路径" fill="#FFFFFF"></path>
                <path d="M21.3756522,11.7443478 L13.1186087,16.6998261 C12.8663031,16.839639 12.5816256,16.9105385 12.2932174,16.9053913 C11.9947826,16.9053913 11.6953043,16.8365217 11.4667826,16.6998261 L3.20973914,11.7443478 C2.75373914,11.4709565 2.75373914,11.0264348 3.20973914,10.7540869 L4.61008695,9.91304348 L10.9815652,13.7363478 C11.3478261,13.9565217 11.8121739,14.0765217 12.2932174,14.0765217 C12.7732174,14.0765217 13.2375652,13.9565217 13.6038261,13.7363478 L19.9763478,9.91304348 L21.3766957,10.7540869 C21.8316522,11.0274783 21.8316522,11.472 21.3756522,11.7443478 Z" id="路径" fill="#FFFFFF"></path>
                <path d="M21.3756522,7.97426086 L13.1186087,12.9297391 C12.8663031,13.0695521 12.5816256,13.1404515 12.2932174,13.1353043 C11.9947826,13.1353043 11.6953043,13.0664348 11.4667826,12.9297391 L3.20973914,7.97426086 C2.75373914,7.70191303 2.75373914,7.2563478 3.20973914,6.984 L11.4667826,2.02852174 C11.6953043,1.89182609 11.9947826,1.824 12.2932174,1.824 C12.5906087,1.824 12.890087,1.89182609 13.1186087,2.02852174 L21.3756522,6.984 C21.8316522,7.25739131 21.8316522,7.70191305 21.3756522,7.97426086 Z" id="路径" fill="#FFFFFF"></path>
            </g>
        </g>
    </g>
</svg>