<?xml version="1.0" encoding="UTF-8"?>
<svg width="24px" height="24px" viewBox="0 0 24 24" version="1.1" xmlns="http://www.w3.org/2000/svg" xmlns:xlink="http://www.w3.org/1999/xlink">
    <title>进行中</title>
    <g id="页面-1" stroke="none" stroke-width="1" fill="none" fill-rule="evenodd">
        <g id="建木官网" transform="translate(-476.000000, -548.000000)" fill-rule="nonzero">
            <g id="编组-17" transform="translate(360.000000, 532.000000)">
                <g id="进行中" transform="translate(116.000000, 16.000000)">
                    <rect id="矩形" fill="#000000" opacity="0" x="0" y="0" width="24" height="24"></rect>
                    <path d="M7.71428571,12 L19.7142857,12 C20.2285714,12 20.5714286,12.3428571 20.5714286,12.8571429 C20.5714286,13.3714286 20.2285714,13.7142857 19.7142857,13.7142857 L7.71428571,13.7142857 C7.2,13.7142857 6.85714287,13.3714286 6.85714287,12.8571429 C6.85714287,12.3428572 7.2,12 7.71428571,12 Z M0.857142867,12 C1.37142858,12 1.71428571,12.3428571 1.71428571,12.8571429 C1.71428571,13.3714286 1.37142858,13.7142857 0.857142867,13.7142857 C0.342857156,13.7142857 0,13.3714286 0,12.8571429 C0,12.3428572 0.342857133,12 0.857142867,12 L0.857142867,12 Z M4.28571429,12 C4.8,12 5.14285713,12.3428571 5.14285713,12.8571429 C5.14285713,13.3714286 4.8,13.7142857 4.28571429,13.7142857 C3.77142858,13.7142857 3.42857142,13.3714286 3.42857142,12.8571429 C3.42857142,12.3428572 3.77142855,12 4.28571429,12 Z M20.4,12.8571429 L12.5142857,4.97142858 C12.1714286,4.62857145 12.1714286,4.11428571 12.5142857,3.77142858 C12.8571428,3.42857145 13.5428571,3.42857145 13.8857143,3.77142858 L22.2857143,12.1714286 C22.4571429,12.3428572 22.4571429,12.5142857 22.4571429,12.8571429 C22.4571429,13.0285714 22.4571429,13.3714286 22.2857143,13.5428571 L13.8857143,21.9428571 C13.5428572,22.2857143 13.0285714,22.2857143 12.6857143,21.9428571 C12.3428572,21.6 12.3428572,21.0857143 12.6857143,20.7428571 L20.4,12.8571429 L20.4,12.8571429 Z" id="形状" fill="#FFFFFF"></path>
                </g>
            </g>
        </g>
    </g>
</svg>