<?xml version="1.0" encoding="UTF-8"?>
<svg width="72px" height="72px" viewBox="0 0 72 72" version="1.1" xmlns="http://www.w3.org/2000/svg" xmlns:xlink="http://www.w3.org/1999/xlink">
    <title>bitbucket</title>
    <g id="页面-1" stroke="none" stroke-width="1" fill="none" fill-rule="evenodd">
        <g id="建木官网" transform="translate(-842.000000, -3787.000000)" fill-rule="nonzero">
            <g id="编组-14" transform="translate(520.000000, 3638.000000)">
                <g id="bitbucket" transform="translate(322.000000, 149.000000)">
                    <rect id="矩形" fill="#000000" opacity="0" x="0" y="0" width="72" height="72"></rect>
                    <path d="M40.2455357,34.2203701 C40.4598214,35.9078701 39.7834821,37.2605487 38.2165178,38.2784059 C36.6495535,39.296263 35.1562499,39.3766201 33.7366071,38.5194772 C32.6919642,38.0641201 31.9754464,37.2873344 31.5870535,36.1891201 C31.1986606,35.0909059 31.2656249,33.9926916 31.7879463,32.8944772 C32.3102678,31.7962629 33.0066964,31.0194772 33.8772321,30.5641201 C34.8415178,30.0819773 35.8124999,29.921263 36.7901785,30.0819772 C37.767857,30.2426915 38.6249999,30.7181379 39.3616071,31.5083165 C40.0982143,32.2984951 40.4665178,33.202513 40.4665178,34.2203701 L40.2455357,34.2203701 Z M44.7053571,33.3766201 C44.3303571,30.5105487 42.8169642,28.3141201 40.1651785,26.7873344 C37.5133927,25.2605486 34.8749999,25.0864415 32.2499999,26.265013 C30.5624999,27.015013 29.2165177,28.2002809 28.2120535,29.8208166 C27.2075892,31.4413523 26.7455356,33.1757273 26.8258927,35.0239416 C26.9330356,37.4614416 27.970982,39.5373345 29.939732,41.2516202 C31.908482,42.9659059 34.1249999,43.7159059 36.5892856,43.5016202 C39.0267856,43.2873345 41.0624999,42.1623345 42.6964285,40.1266202 C44.330357,38.0909059 44.9999999,35.8409059 44.7053571,33.3766202 L44.7053571,33.3766201 Z M54.3080357,11.5998344 C53.7723214,10.8766201 53.0223214,10.280638 52.0580357,9.81188798 C51.0937499,9.34313798 50.3169642,9.04849512 49.7276785,8.92795938 C49.1383928,8.80742365 48.1875,8.64001294 46.8749999,8.42572725 C39.0803571,7.16679867 31.5,7.19358438 24.1339285,8.50608438 C22.9821428,8.69358438 22.0982142,8.85429867 21.4821428,8.98822725 C20.8660714,9.12215583 20.1294642,9.4167987 19.2723214,9.87215585 C18.4151786,10.327513 17.7455357,10.9034059 17.2633928,11.5998345 C18.0669642,12.3498345 19.0848214,12.9592095 20.3169642,13.4279595 C21.549107,13.8967095 22.533482,14.1913523 23.2700892,14.3118881 C24.0066964,14.4324238 25.1785714,14.5864417 26.7857142,14.7739417 C32.892857,15.5507274 38.892857,15.5641203 44.7857142,14.8141203 C46.4732142,14.5998345 47.6718749,14.4391202 48.3816963,14.3319774 C49.0915178,14.2248345 50.0624999,13.9368881 51.2946427,13.4681381 C52.5267856,12.9993881 53.5312499,12.3766203 54.3080357,11.5998345 L54.3080357,11.5998344 Z M56.5982143,53.1846558 C56.3839285,53.8810844 56.1763392,54.9056379 55.9754464,56.2583165 C55.7745536,57.6109951 55.5870536,58.7359951 55.4129464,59.6333165 C55.2388392,60.5306379 54.8571428,61.4681379 54.2678571,62.4458165 C53.6785714,63.4234951 52.9017857,64.1801915 51.9375,64.7159058 C49.6339286,66.00162 47.0959822,66.9592093 44.3236607,67.5886736 C41.5513393,68.218138 38.8459822,68.5127808 36.2075893,68.4726022 C33.5691965,68.4324237 30.8705358,68.1846558 28.1116072,67.7292986 C26.8794644,67.5150129 25.7879465,67.2739415 24.8370536,67.0060844 C23.8861607,66.7382273 22.8616071,66.3766201 21.7633929,65.921263 C20.6651786,65.4659059 19.6875,64.8833165 18.8303571,64.1734951 C17.9732142,63.4636737 17.2767857,62.640013 16.7410714,61.702513 C16.0714286,59.1310844 15.3080357,55.2203701 14.4508928,49.9703701 L14.6919642,49.327513 L15.4151785,48.9659059 C21.3883927,52.9301916 28.1718749,54.9123345 35.7656249,54.9123345 C43.3593749,54.9123345 50.1562499,52.9301916 56.1562499,48.9659059 C56.7187499,49.1266201 57.0401784,49.4346558 57.1205356,49.890013 C57.2008927,50.3453701 57.1339285,50.9480487 56.9196427,51.6980487 C56.705357,52.4480487 56.5982141,52.9435844 56.5982141,53.1846559 L56.5982143,53.1846558 Z M63.8705357,14.5730486 C63.1741071,19.0462629 61.6875,27.8185843 59.4107143,40.8900129 C59.2767857,41.6935843 58.9151786,42.4435843 58.3258929,43.1400129 C57.7366072,43.8364415 57.1540179,44.3721558 56.578125,44.7471558 C56.0022321,45.1221558 55.2723214,45.5373344 54.3883929,45.9926915 C47.6383929,49.3676915 39.46875,50.5462629 29.8794643,49.5284058 C23.2366071,48.8051915 17.9598214,46.9435844 14.0491071,43.9435844 C13.6473214,43.6221558 13.3058035,43.2672451 13.0245535,42.8788522 C12.7433035,42.4904594 12.515625,42.0217094 12.3415178,41.4726022 C12.1674106,40.9234951 12.0468749,40.468138 11.9799107,40.1065309 C11.9129464,39.7449237 11.8325893,39.2159059 11.7388393,38.5194772 C11.6450893,37.8230486 11.5714286,37.3542986 11.5178571,37.1132272 C11.2767857,35.7739415 10.921875,33.7650129 10.453125,31.0864415 C9.984375,28.4078701 9.609375,26.2449237 9.328125,24.5976022 C9.046875,22.9502808 8.73214287,20.9748344 8.3839286,18.671263 C8.03571434,16.3676916 7.74107147,14.2516201 7.5,12.3230487 C7.58035716,11.6266201 7.81473216,10.9770666 8.203125,10.374388 C8.59151784,9.77170941 9.01339284,9.26947727 9.46875,8.86769159 C9.92410716,8.4659059 10.5267857,8.06412019 11.2767857,7.66233445 C12.0267857,7.26054872 12.6428572,6.95920943 13.125,6.75831659 C13.6071428,6.55742374 14.25,6.30965587 15.0535714,6.01501298 C18.4017857,4.78287014 22.59375,3.92572727 27.6294643,3.44358438 C37.78125,2.45251296 46.8348214,3.12215583 54.7901785,5.45251298 C58.9419643,6.68465583 61.8214286,8.31858441 63.4285714,10.3542987 C63.8571428,10.890013 64.078125,11.5730487 64.0915178,12.4034059 C64.1049106,13.233763 64.0312499,13.9569773 63.8705357,14.5730487 L63.8705357,14.5730486 Z" id="形状" fill="#205082"></path>
                </g>
            </g>
        </g>
    </g>
</svg>