<?xml version="1.0" encoding="UTF-8"?>
<svg width="24px" height="24px" viewBox="0 0 24 24" version="1.1" xmlns="http://www.w3.org/2000/svg" xmlns:xlink="http://www.w3.org/1999/xlink">
    <title>文档</title>
    <g id="页面-1" stroke="none" stroke-width="1" fill="none" fill-rule="evenodd">
        <g id="建木官网" transform="translate(-722.000000, -505.000000)" fill-rule="nonzero">
            <g id="文档" transform="translate(722.000000, 505.000000)">
                <rect id="矩形" fill="#000000" opacity="0" x="0" y="0" width="24" height="24"></rect>
                <path d="M7.69530882,3 C9.27154213,3 10.6695285,3.7630737 11.5401396,4.93861966 C12.4299093,3.73173529 13.8355267,3.01364816 15.3348845,3 L21.8710969,3 C21.9827359,3 22.0741433,3.0887502 22.077333,3.20034367 L22.077333,19.0510638 C22.077333,19.1627028 21.9885828,19.2541102 21.8769893,19.2572999 L14.4200799,19.2572999 C13.4227809,19.2572999 12.6007826,20.0056424 12.4844065,20.9690598 L12.4814603,20.9985221 C12.4700463,21.1159263 12.3710838,21.2053118 12.2531274,21.2047608 L10.8227325,21.2047608 C10.7086596,21.2049836 10.6121603,21.1204679 10.5973459,21.0073608 L10.5958727,21 C10.4917548,20.0204711 9.67311134,19.2726293 8.68818849,19.2572999 L1.20623614,19.2572999 C1.09459709,19.2573455 1.00318969,19.1685497 1,19.0569562 L1,3.20623614 C1,3.09459709 1.08875021,3.00318969 1.20034369,3 L7.69678194,3 L7.69530882,3 Z M7.69530882,4.86496391 L2.86349079,4.86496391 L2.86349079,17.392336 L8.65725307,17.392336 C9.34372477,17.392336 9.98747614,17.5735291 10.5428406,17.8902489 L10.5649373,17.9020339 L10.6061845,17.9270768 L10.6061845,7.72280748 C10.5802501,6.17182429 9.34147803,4.9142535 7.79106132,4.86496391 L7.69530882,4.86496391 Z M20.2138422,4.86496391 L15.3820242,4.86496391 C13.7910597,4.86496391 12.4976645,6.13920861 12.4711485,7.72280748 L12.4711485,17.9285499 L12.5123957,17.903507 C13.0500827,17.5941527 13.6687912,17.4100133 14.3302199,17.3938091 L20.2153153,17.3938091 L20.2153153,4.86496391 L20.2138422,4.86496391 Z" id="形状" fill="#7B8C9C"></path>
            </g>
        </g>
    </g>
</svg>