<?xml version="1.0" encoding="UTF-8"?>
<svg width="24px" height="24px" viewBox="0 0 24 24" version="1.1" xmlns="http://www.w3.org/2000/svg" xmlns:xlink="http://www.w3.org/1999/xlink">
    <title>代码管理</title>
    <g id="页面-1" stroke="none" stroke-width="1" fill="none" fill-rule="evenodd">
        <g id="建木官网" transform="translate(-930.000000, -505.000000)" fill-rule="nonzero">
            <g id="代码管理" transform="translate(930.000000, 505.000000)">
                <rect id="矩形" fill="#000000" opacity="0" x="0" y="0" width="24" height="24"></rect>
                <path d="M22.4842969,5.1178125 L22.4842969,4.43882813 C22.4842969,3.61828125 21.819375,2.95335938 20.9990625,2.95335938 L2.99765625,2.95335938 C2.17265625,2.95335938 1.50398438,3.62226563 1.50398438,4.4475 L1.50398438,5.49070313 C1.50140625,5.536875 1.50023434,5.58351563 1.50023434,5.63039063 L1.50023434,18.4652344 C1.5,19.8885938 2.65804688,21.046875 4.08164063,21.046875 L19.8323438,21.046875 C21.3032813,21.046875 22.5,19.8499219 22.5,18.37875 L22.5,5.38757813 C22.5,5.29640625 22.4946094,5.20640625 22.4842969,5.1178125 Z M10.5021094,4.12523438 C10.8904688,4.12523438 11.2052344,4.44 11.2052344,4.82859375 C11.2052344,5.2171875 10.8904688,5.53195313 10.5021094,5.53195313 C10.11375,5.53195313 9.79898438,5.2171875 9.79898438,4.82859375 C9.79898438,4.44 10.11375,4.12523438 10.5021094,4.12523438 Z M7.50140625,4.12523438 C7.88976563,4.12523438 8.20453125,4.44 8.20453125,4.82859375 C8.20453125,5.2171875 7.88976563,5.53195313 7.50140625,5.53195313 C7.11304688,5.53195313 6.79828125,5.2171875 6.79828125,4.82859375 C6.79828125,4.44 7.11304688,4.12523438 7.50140625,4.12523438 Z M4.5009375,4.12523438 C4.88929688,4.12523438 5.2040625,4.44 5.2040625,4.82859375 C5.2040625,5.2171875 4.88929688,5.53195313 4.5009375,5.53195313 C4.11257813,5.53195313 3.7978125,5.2171875 3.7978125,4.82859375 C3.7978125,4.44 4.11257813,4.12523438 4.5009375,4.12523438 Z M21,18.37875 C21,19.0225781 20.4761719,19.5466406 19.8323438,19.5466406 L4.08164063,19.5466406 C3.48515625,19.5466406 3,19.06125 3,18.4647656 L3,6.53203125 L21,6.53203125 L21,18.37875 Z M8.6953125,17.25 C8.503125,17.25 8.31117188,17.1766406 8.16445313,17.0299219 L4.64882813,13.5089062 C4.3565625,13.2161719 4.3565625,12.7417969 4.64882813,12.4490625 L8.15390625,8.93882812 C8.44664063,8.645625 8.92148438,8.64539062 9.21445313,8.938125 C9.50765625,9.23085937 9.50789063,9.70570312 9.21539063,9.99867187 L6.23953125,12.9789844 L9.2259375,15.9700781 C9.51867188,16.2632812 9.51820313,16.738125 9.225,17.030625 C9.07875,17.176875 8.88703125,17.25 8.6953125,17.25 Z M15.3984375,17.25 C15.2067188,17.25 15.015,17.176875 14.8685156,17.030625 C14.5753125,16.7378906 14.5750781,16.2630469 14.8678125,15.9700781 L17.8542188,12.9789844 L14.8785938,9.99867187 C14.5858594,9.70546875 14.5863281,9.230625 14.8792969,8.938125 C15.1722656,8.64539062 15.6473438,8.64585937 15.9398438,8.93882812 L19.4446875,12.4490625 C19.7369531,12.7417969 19.7369531,13.2161719 19.4446875,13.5089062 L15.9290625,17.0299219 C15.7828125,17.1766406 15.590625,17.25 15.3984375,17.25 Z M10.8515625,17.2971094 C10.7685938,17.2971094 10.6844531,17.2832812 10.6017188,17.2539844 C10.21125,17.1159375 10.0064063,16.6875 10.1444531,16.2970312 L12.6288281,9.26578125 C12.766875,8.8753125 13.1953125,8.67046875 13.5857813,8.80851562 C13.97625,8.9465625 14.1810938,9.375 14.0430469,9.76546875 L11.5586719,16.7967187 C11.4499219,17.1046875 11.1604688,17.2971094 10.8515625,17.2971094 L10.8515625,17.2971094 Z" id="形状" fill="#7B8C9C"></path>
            </g>
        </g>
    </g>
</svg>