<?xml version="1.0" encoding="UTF-8"?>
<svg width="72px" height="72px" viewBox="0 0 72 72" version="1.1" xmlns="http://www.w3.org/2000/svg" xmlns:xlink="http://www.w3.org/1999/xlink">
    <title>编组 4</title>
    <g id="页面-1" stroke="none" stroke-width="1" fill="none" fill-rule="evenodd">
        <g id="建木官网" transform="translate(-1172.000000, -3638.000000)" fill-rule="nonzero">
            <g id="编组-4" transform="translate(1172.000000, 3638.000000)">
                <rect id="矩形" fill="#000000" opacity="0" x="4" y="4" width="64.5423729" height="64.5423729"></rect>
                <path d="M36.2711864,68.5423729 C18.5220339,68.5423729 4,54.020339 4,36.2711864 C4,18.5220339 18.5220339,4 36.2711864,4 C54.020339,4 68.5423729,18.5220339 68.5423729,36.2711864 C68.5423729,54.020339 54.020339,68.5423729 36.2711864,68.5423729 Z M52.6084746,32.640678 L34.2542373,32.640678 C33.4474576,32.640678 32.640678,33.4474576 32.640678,34.2542373 L32.640678,38.2881356 C32.640678,39.0949153 33.4474576,39.9016949 34.2542373,39.9016949 L45.3474576,39.9016949 C46.1542373,39.9016949 46.9610169,40.7084746 46.9610169,41.5152542 L46.9610169,42.3220339 C46.9610169,44.9440678 44.7423729,47.1627119 42.120339,47.1627119 L26.9932203,47.1627119 C26.1864407,47.1627119 25.379661,46.3559322 25.379661,45.5491525 L25.379661,30.220339 C25.379661,27.5983051 27.5983051,25.379661 30.220339,25.379661 L52.6084746,25.379661 C53.4152542,25.379661 54.2220339,24.5728814 54.2220339,23.7661017 L54.2220339,19.7322034 C54.2220339,18.9254237 53.4152542,18.1186441 52.6084746,18.1186441 L30.220339,18.1186441 C23.5644068,18.1186441 18.320339,23.5644068 18.320339,30.0186441 L18.320339,52.4067797 C18.320339,53.2135593 19.1271186,54.020339 19.9338983,54.020339 L43.5322034,54.020339 C49.3813559,54.020339 54.2220339,49.179661 54.2220339,43.3305085 L54.2220339,34.2542373 C54.2220339,33.4474576 53.4152542,32.640678 52.6084746,32.640678 Z" id="形状" fill="#C71D23"></path>
            </g>
        </g>
    </g>
</svg>