<?xml version="1.0" encoding="UTF-8"?>
<svg width="72px" height="72px" viewBox="0 0 72 72" version="1.1" xmlns="http://www.w3.org/2000/svg" xmlns:xlink="http://www.w3.org/1999/xlink">
    <title>gitea</title>
    <g id="页面-1" stroke="none" stroke-width="1" fill="none" fill-rule="evenodd">
        <g id="建木官网" transform="translate(-486.000000, -3788.000000)" fill-rule="nonzero">
            <g id="gitea" transform="translate(486.000000, 3788.000000)">
                <rect id="矩形" fill="#000000" opacity="0" x="1" y="1" width="70.7368421" height="70.7368421"></rect>
                <path d="M13.3358565,17.0000299 C7.89796175,16.9882704 0.615014334,20.4455336 1.01585646,29.1137441 C1.64364594,42.6539547 15.5169091,43.9095336 21.0609091,44.0185862 C21.668067,46.5592178 28.1935406,55.3187967 33.0242775,55.7785862 L54.1863828,55.7785862 C66.8777512,54.9356388 76.380067,17.3979547 69.3358564,17.256481 C57.6849091,17.8046915 50.7792249,18.0817442 44.8579617,18.128902 L44.8579617,29.8446915 L43.0129091,29.0282705 L43.0011196,18.1347968 C36.2044881,18.1318494 30.2213301,17.816481 18.8651196,17.256481 C17.444488,17.2476389 15.4638565,17.0059546 13.3358565,17.0000299 Z M14.1051196,21.7895336 L14.7535406,21.7895336 C15.5257512,28.7305862 16.7813301,32.7891125 19.3219617,38.9903757 C12.8377512,38.22406 7.32027752,36.3406915 6.3063828,29.3082705 C5.7817512,25.6682705 7.55017225,21.8691125 14.1051196,21.7865863 L14.1051196,21.7895336 Z M39.3257512,28.6126915 C39.7678564,28.6185862 40.2188038,28.7011126 40.6432249,28.8956389 L42.8508039,29.8476389 L41.268067,32.7331126 C41.0255738,32.7315002 40.7848089,32.7694632 40.5577512,32.8451126 C40.0632627,33.0030012 39.6596618,33.3289834 39.4357866,33.7513061 C39.2119113,34.1736288 39.1861118,34.6576758 39.364067,35.096902 C39.4407823,35.2831553 39.5523901,35.456546 39.6941723,35.6097441 L36.9649091,40.5790073 C36.7412492,40.5832446 36.5200136,40.6211138 36.3105933,40.6910073 C35.8161047,40.848896 35.4125039,41.1748781 35.1886286,41.5972008 C34.9647534,42.0195236 34.9389539,42.5035706 35.1169091,42.9427968 C35.2944993,43.3822176 35.6613883,43.7409211 36.1367954,43.9399287 C36.6122024,44.1389363 37.1571475,44.1619308 37.651646,44.0038494 C38.14639,43.8454668 38.5499234,43.5187898 38.7732887,43.0958333 C38.996654,42.6728767 39.0215119,42.1883671 38.8423828,41.7491126 C38.74288,41.5051075 38.583853,41.2836775 38.3766986,41.1006915 L41.0352249,36.2611126 C41.3269032,36.2888152 41.6218663,36.2586142 41.8988038,36.1726915 C42.1292687,36.098138 42.3421419,35.9862046 42.5265933,35.8425862 C43.5522775,36.272902 44.3922775,36.6236389 44.996488,36.9213231 C45.9042775,37.3693231 46.2255407,37.6670073 46.3228038,37.9971125 C46.420067,38.321323 46.3139617,38.9461652 45.8011196,40.0425862 C45.4179617,40.8590073 44.7842775,42.0173231 44.035646,43.3819546 C43.7832687,43.3770643 43.5321657,43.4150799 43.2958564,43.4939547 C42.8013679,43.6518433 42.3977671,43.9778255 42.1738918,44.4001482 C41.9500165,44.8224709 41.9242171,45.3065179 42.1021722,45.7457441 C42.2797625,46.185165 42.6466515,46.5438684 43.1220585,46.742876 C43.5974656,46.9418836 44.1424106,46.9648782 44.6369091,46.8067968 C45.6654833,46.476931 46.1985119,45.4689264 45.8276459,44.5550073 C45.7389499,44.3346727 45.6016754,44.132268 45.4238565,43.9596389 C46.1636459,42.6097442 46.8002775,41.448481 47.2099617,40.57606 C47.764067,39.3912178 48.0529091,38.5099547 47.7994354,37.6581652 C47.5459617,36.8063757 46.7678565,36.2522705 45.7362775,35.7423757 C45.0583828,35.4093231 44.212488,35.0556389 43.2015407,34.6312178 C43.2185846,34.3920853 43.1804724,34.1523798 43.0895407,33.9267968 C42.9966608,33.6973773 42.8511278,33.4876091 42.6621723,33.3107967 L44.2183828,30.472481 L52.836488,34.1950073 C54.3926985,34.8699547 55.0352248,36.5234284 54.2806986,37.9086915 L48.356488,48.7550073 C47.5990144,50.1373231 45.7392249,50.7091126 44.1830144,50.0371126 L31.9897512,44.7672178 C30.4335407,44.0952178 29.788067,42.4387968 30.5455406,41.0535336 L36.4697512,30.2101652 C36.988488,29.2581652 38.0318564,28.6922705 39.1371196,28.64806 L39.3257512,28.64806 L39.3257512,28.6126915 Z" id="形状" fill="#096DD9"></path>
            </g>
        </g>
    </g>
</svg>