<?xml version="1.0" encoding="UTF-8"?>
<svg width="1920px" height="811px" viewBox="0 0 1920 811" version="1.1" xmlns="http://www.w3.org/2000/svg" xmlns:xlink="http://www.w3.org/1999/xlink">
    <title>编组 6 + 编组 6 蒙版</title>
    <defs>
        <polygon id="path-1" points="0.883116146 708.833031 2101.73391 0.0277632981 2102.80851 807.647707 33.1212357 807.647707"></polygon>
        <filter id="filter-3">
            <feColorMatrix in="SourceGraphic" type="matrix" values="0 0 0 0 0.000000 0 0 0 0 0.568627 0 0 0 0 1.000000 0 0 0 1.000000 0"></feColorMatrix>
        </filter>
        <linearGradient x1="100%" y1="53.8654558%" x2="0%" y2="50.3313651%" id="linearGradient-4">
            <stop stop-color="#EBF5FE" offset="0%"></stop>
            <stop stop-color="#E9F5FF" offset="100%"></stop>
        </linearGradient>
    </defs>
    <g id="页面-1" stroke="none" stroke-width="1" fill="none" fill-rule="evenodd" opacity="0.527457304">
        <g id="建木官网（修改版本）" transform="translate(0.000000, -2373.000000)">
            <g id="编组-7" transform="translate(-160.000000, 2373.000000)">
                <g id="编组-6-+-编组-6-蒙版">
                    <mask id="mask-2" fill="white">
                        <use xlink:href="#path-1"></use>
                    </mask>
                    <use id="蒙版" fill="#F6FAFE" opacity="0.544126999" xlink:href="#path-1"></use>
                    <g id="编组-6" opacity="0.726607922" mask="url(#mask-2)" stroke="#597EF7">
                        <g transform="translate(1065.981279, 756.263451) rotate(5.000000) translate(-1065.981279, -756.263451) translate(-45.518721, -8.736549)">
                            <line x1="0.880173735" y1="879.174036" x2="2078.39256" y2="0.458287571" id="路径-4备份-2"></line>
                            <line x1="0.880173735" y1="1055.52023" x2="2078.17612" y2="146.970829" id="路径-4备份-4"></line>
                            <line x1="0.880173735" y1="1140.65287" x2="2100.66907" y2="224.169555" id="路径-4备份-5"></line>
                            <line x1="33.1182933" y1="1212.10348" x2="2100.35995" y2="308.883505" id="路径-4备份-6"></line>
                            <line x1="131.718741" y1="1254.04885" x2="2188.40723" y2="356.03529" id="路径-4备份-7"></line>
                            <line x1="121.455569" y1="1343.98416" x2="2221.70081" y2="426.509083" id="路径-4备份-8"></line>
                            <line x1="142.902641" y1="1412.11043" x2="2221.39169" y2="511.223033" id="路径-4备份-9"></line>
                            <line x1="131.98186" y1="1529.07056" x2="2221.59113" y2="591.327412" id="路径-4备份-10"></line>
                            <line x1="0.880173735" y1="962.786453" x2="2100.8724" y2="60.108447" id="路径-4备份-3"></line>
                        </g>
                    </g>
                    <g filter="url(#filter-3)" id="编组-6" opacity="0.431322674">
                        <g mask="url(#mask-2)">
                            <g transform="translate(1602.621448, 606.484826) scale(1, -1) rotate(-5.000000) translate(-1602.621448, -606.484826) translate(-53.878552, -371.515174)" stroke="#597EF7">
                                <line x1="0.537301993" y1="860.067733" x2="2100.31349" y2="0.380056444" id="路径-4"></line>
                                <line x1="0.537301993" y1="945.960489" x2="2100.31349" y2="86.2728128" id="路径-4备份"></line>
                                <line x1="0.537301993" y1="1037.17404" x2="2100.31349" y2="177.486359" id="路径-4备份-2"></line>
                                <line x1="0.537301993" y1="1213.52023" x2="2100.31349" y2="353.832549" id="路径-4备份-4"></line>
                                <line x1="0.537301993" y1="1298.65287" x2="2100.31349" y2="438.965193" id="路径-4备份-5"></line>
                                <line x1="1081.58891" y1="1298.65287" x2="3181.3651" y2="438.965193" id="路径-4备份-11"></line>
                                <line x1="32.7754216" y1="1370.10348" x2="2132.55161" y2="510.415804" id="路径-4备份-6"></line>
                                <line x1="1113.82703" y1="1370.10348" x2="3213.60322" y2="510.415804" id="路径-4备份-12"></line>
                                <line x1="67.1627491" y1="1445.35466" x2="2166.93894" y2="585.66698" id="路径-4备份-7"></line>
                                <line x1="1148.21436" y1="1445.35466" x2="3247.99055" y2="585.66698" id="路径-4备份-13"></line>
                                <line x1="67.1627491" y1="1532.76764" x2="2166.93894" y2="673.079962" id="路径-4备份-8"></line>
                                <line x1="1148.21436" y1="1532.76764" x2="3247.99055" y2="673.079962" id="路径-4备份-14"></line>
                                <line x1="1148.21436" y1="1800.32738" x2="3247.99055" y2="940.639699" id="路径-4备份-17"></line>
                                <line x1="102.624681" y1="1605.73848" x2="2202.40087" y2="746.0508" id="路径-4备份-9"></line>
                                <line x1="1183.67629" y1="1605.73848" x2="3283.45248" y2="746.0508" id="路径-4备份-15"></line>
                                <line x1="1183.67629" y1="1873.29821" x2="3283.45248" y2="1013.61054" id="路径-4备份-18"></line>
                                <line x1="1212.6906" y1="1687.07056" x2="3312.46679" y2="827.382879" id="路径-4备份-16"></line>
                                <line x1="1212.6906" y1="1954.63029" x2="3312.46679" y2="1094.94262" id="路径-4备份-19"></line>
                                <line x1="0.537301993" y1="1120.78645" x2="2100.31349" y2="261.098777" id="路径-4备份-3"></line>
                            </g>
                        </g>
                    </g>
                </g>
                <polygon id="三角形" fill="url(#linearGradient-4)" opacity="0.490484193" points="37 234.11477 2101 808 38.0744404 808"></polygon>
                <ellipse id="椭圆形" stroke="#A4E9A3" stroke-width="3" fill="#FFFFFF" opacity="0.501930414" cx="326" cy="377" rx="15.5" ry="7.5"></ellipse>
                <ellipse id="椭圆形备份-10" stroke="#A4E9A3" stroke-width="3" fill="#FFFFFF" opacity="0.501930414" cx="554" cy="752" rx="15.5" ry="7.5"></ellipse>
                <ellipse id="椭圆形备份-5" stroke="#A4E9A3" stroke-width="3" fill="#FFFFFF" opacity="0.501930414" cx="2005" cy="743" rx="15.5" ry="7.5"></ellipse>
                <ellipse id="椭圆形备份-9" stroke="#A4E9A3" stroke-width="3" fill="#FFFFFF" opacity="0.501930414" cx="1888" cy="440" rx="15.5" ry="7.5"></ellipse>
                <ellipse id="椭圆形备份-6" stroke="#A4E9A3" stroke-width="3" fill="#FFFFFF" opacity="0.501930414" cx="715" cy="555" rx="15.5" ry="7.5"></ellipse>
                <ellipse id="椭圆形备份-7" stroke="#A4E9A3" stroke-width="3" fill="#FFFFFF" opacity="0.501930414" cx="1306" cy="737" rx="15.5" ry="7.5"></ellipse>
                <ellipse id="椭圆形备份-3" stroke="#80B5FF" stroke-width="3" fill="#FFFFFF" opacity="0.501930414" cx="537" cy="431" rx="15.5" ry="7.5"></ellipse>
                <ellipse id="椭圆形备份-4" stroke="#80B5FF" stroke-width="3" fill="#FFFFFF" opacity="0.501930414" cx="862" cy="413" rx="15.5" ry="7.5"></ellipse>
                <ellipse id="椭圆形备份-8" stroke="#80B5FF" stroke-width="3" fill="#FFFFFF" opacity="0.501930414" cx="1785" cy="573" rx="15.5" ry="7.5"></ellipse>
                <ellipse id="椭圆形备份-11" stroke="#80B5FF" stroke-width="3" fill="#FFFFFF" opacity="0.501930414" cx="1802" cy="162" rx="15.5" ry="7.5"></ellipse>
            </g>
        </g>
    </g>
</svg>