<?xml version="1.0" encoding="UTF-8"?>
<svg width="1141px" height="676px" viewBox="0 0 1141 676" version="1.1" xmlns="http://www.w3.org/2000/svg" xmlns:xlink="http://www.w3.org/1999/xlink">
    <title>位图</title>
    <defs>
        <rect id="path-1" x="0.492105468" y="2.27373675e-12" width="1140" height="675"></rect>
    </defs>
    <g id="页面-1" stroke="none" stroke-width="1" fill="none" fill-rule="evenodd">
        <g id="建木官网" transform="translate(-389.000000, -1098.000000)">
            <g id="编组-26" transform="translate(389.507895, 1052.000000)">
                <g id="位图" transform="translate(0.000000, -0.000000)">
                    <mask id="mask-2" fill="white">
                        <use xlink:href="#path-1"></use>
                    </mask>
                    <g id="蒙版" opacity="0.721611555"></g>
                    <path d="M-68.5434518,171.321106 C-21.2446571,171.321106 418.821608,182.735664 650.287863,171.321106 C804.598699,163.711401 976.698146,121.604365 1166.5862,45 C1241.42867,357.465159 1246.14372,543.395622 1180.73136,602.79139 C1082.61283,691.885041 837.806889,560.80682 586.767046,571.487743 C335.727203,582.168666 -69.5078945,633.991181 -69.5078945,602.79139 C-69.5078945,571.591598 -69.5078945,171.321106 -68.5434518,171.321106 Z" id="路径-3备份-2" fill="#F6FAFF" mask="url(#mask-2)" transform="translate(578.492105, 339.500000) scale(-1, 1) translate(-578.492105, -339.500000) "></path>
                    <path d="M-21.5078945,345.30251 C-9.32598344,333.606341 22.6515332,310.521797 149.952504,233.573316 C175.685435,218.018761 389.664448,128 609.550929,128 C756.141916,128 941.904117,163.191105 1166.83753,233.573316 L1170.49211,594 C873.916853,472.099733 681.239626,411.156536 592.460424,411.17041 C459.291622,411.19122 114.978823,548.739171 -21.5078945,531.362885" id="路径-3" fill="#EDF6FF" opacity="0.610238009" mask="url(#mask-2)" transform="translate(574.492105, 361.000000) scale(1, -1) translate(-574.492105, -361.000000) "></path>
                </g>
            </g>
        </g>
    </g>
</svg>