<?xml version="1.0" encoding="UTF-8"?>
<svg width="240px" height="139px" viewBox="0 0 240 139" version="1.1" xmlns="http://www.w3.org/2000/svg" xmlns:xlink="http://www.w3.org/1999/xlink">
    <title>编组</title>
    <defs>
        <polygon id="path-1" points="0.0993566434 0.36648951 87.6255105 0.36648951 87.6255105 40.958042 0.0993566434 40.958042"></polygon>
        <polygon id="path-3" points="0.531020979 0.735104895 117.38249 0.735104895 117.38249 120.234629 0.531020979 120.234629"></polygon>
    </defs>
    <g id="页面-1" stroke="none" stroke-width="1" fill="none" fill-rule="evenodd">
        <g id="建木官网" transform="translate(-420.000000, -4167.000000)">
            <g id="编组" transform="translate(420.000000, 4167.000000)">
                <path d="M197.176615,117.754797 L198.089622,99.4174545 C193.345007,101.686545 187.751161,102.822769 181.306406,102.822769 C172.015217,102.822769 163.776336,100.113958 156.576336,94.7265455 L139.734378,95.2166154 L139.59172,95.3508811 L139.063049,109.821371 C151.309762,122.90221 166.52207,129.476196 184.736895,129.476196 C195.452979,129.476196 204.831441,127.020811 212.884028,122.13186 L199.004308,120.099413 L197.176615,117.754797 Z" id="Fill-1" fill="#2AAF6F"></path>
                <path d="M168.950098,25.2003916 L164.81807,39.9427692 C169.958769,37.7961958 175.554294,36.7187133 181.604643,36.7187133 C191.243245,36.7187133 199.173315,39.9964755 205.386462,46.546965 C206.052755,47.2518601 206.668699,47.9785734 207.264503,48.7153566 L224.180308,55.3128392 L224.364923,55.2457063 L231.454154,40.0871049 C229.099469,35.5673846 226.184224,31.390042 222.683245,27.5668252 C211.994014,15.8974545 198.152895,10.0636084 181.156531,10.0636084 C170.761007,10.0636084 161.426182,12.3494825 153.130238,16.8792727 L167.688,22.5083636 L168.950098,25.2003916 Z" id="Fill-3" fill="#0084FF"></path>
                <path d="M224.587133,59.9396364 L211.251189,54.9214545 C213.54042,59.5636923 214.705175,64.7094266 214.705175,70.3771189 C214.705175,80.3396364 211.721119,88.2361399 205.758042,94.0733427 C204.786294,95.0215944 203.735664,95.8641119 202.651469,96.6596364 L201.45986,115.955301 L201.579021,116.109706 L218.362238,118.257958 C220.205035,116.757538 221.970629,115.124531 223.648951,113.325371 C233.688671,102.553902 238.708531,88.8655105 238.708531,72.2618741 C238.708531,62.3866294 237.110769,53.4780979 233.94042,45.5194965 L227.378182,58.9158601 L224.587133,59.9396364 Z" id="Fill-5" fill="#FB6915"></path>
                <g transform="translate(13.426573, 95.251413)">
                    <mask id="mask-2" fill="white">
                        <use xlink:href="#path-1"></use>
                    </mask>
                    <g id="Clip-8"></g>
                    <path d="M87.5097063,12.635021 L84.8881678,12.0794965 L69.8739021,8.89907692 C63.2176783,12.5846713 55.8313846,14.4358601 47.704951,14.4358601 C37.0677483,14.4358601 28.1978182,10.7553007 21.0918042,3.39753846 C20.1536224,2.42746853 19.2825734,1.41376224 18.4669091,0.36648951 L19.0946014,12.9841119 L17.2669091,15.3287273 L0.0993566434,17.8428531 C1.21544056,19.344951 2.39194406,20.795021 3.64732867,22.177958 C9.20593007,28.2954406 15.7060699,32.9074685 23.1292867,36.0358601 C30.8999161,39.3102657 39.6825734,40.9583776 49.494042,40.9583776 C59.0789371,40.9583776 67.7390769,39.3102657 75.4862098,36.0358601 C78.7841119,34.6411748 81.9225734,32.9594965 84.8881678,30.9723636 C84.9318042,30.9421538 84.9771189,30.9136224 85.0207552,30.8834126 L87.6255105,12.7927832 L87.5097063,12.635021 Z" id="Fill-7" fill="#E53935" mask="url(#mask-2)"></path>
                </g>
                <path d="M27.0580699,87.3008112 C24.9282797,82.1819301 23.8558322,76.4101818 23.8558322,69.9738182 C23.8558322,64.3413706 24.6396084,59.2124196 26.1853427,54.5701818 L11.9128951,59.9391329 L9.12016783,58.9153566 L5.26841958,51.0524196 L2.47737063,45.3578741 C1.97387413,47.2073846 1.55261538,49.1089231 1.20184615,51.0524196 C0.409678322,55.4596923 0.000167832168,60.1019301 0.000167832168,64.9925594 C0.000167832168,82.6938182 3.55820979,97.2968951 10.6424056,108.826965 L28.1187692,106.589762 L28.2396084,106.435357 L27.0580699,87.3008112 Z" id="Fill-9" fill="#00C1DE"></path>
                <path d="M43.3201678,11.3084196 L53.8382098,2.94702098 C38.9766713,4.23765035 26.6443636,9.92883916 16.848,20.0273007 C11.4555524,25.5842238 7.3721958,31.9383497 4.5693986,39.0678601 L10.1733147,51.0527552 L12.1352727,55.2452028 L12.3182098,55.3123357 L23.2440839,51.0527552 L28.5375105,48.9867413 C30.1453427,45.8919161 32.155972,43.0555524 34.5912168,40.4893986 C39.7537343,35.049958 45.9568112,31.5859021 53.187021,30.0703776 L42.9173706,14.2538741 L43.3201678,11.3084196 Z" id="Fill-11" fill="#509CD7"></path>
                <g transform="translate(46.993007, 1.943720)">
                    <mask id="mask-4" fill="white">
                        <use xlink:href="#path-3"></use>
                    </mask>
                    <g id="Clip-14"></g>
                    <path d="M112.495217,40.7291748 L117.38249,24.0617622 L117.298573,23.8838601 L101.20179,17.9912727 C92.2412308,24.2027413 84.6333986,33.3260979 78.4017902,45.4133706 L75.3455664,40.3012028 C75.3455664,40.3012028 75.3438881,40.2995245 75.3438881,40.2978462 C74.5416503,38.7302937 73.7108811,37.2147692 72.8582937,35.7412028 C72.8096224,35.6572867 72.760951,35.570014 72.7122797,35.4860979 C71.8848671,34.0662378 71.0322797,32.695049 70.1578741,31.3607832 C70.078993,31.2416224 70.0017902,31.1174266 69.9212308,30.9982657 C69.0602517,29.6992448 68.1757762,28.4438601 67.2694825,27.2287552 C67.1704615,27.0961678 67.0731189,26.9635804 66.9724196,26.8326713 C66.0678042,25.6343497 65.143049,24.477986 64.1931189,23.3635804 C64.0873846,23.2393846 63.9816503,23.1168671 63.8742378,22.9943497 C62.9175944,21.8833007 61.9408112,20.8125315 60.9388531,19.7853986 C60.8398322,19.683021 60.7374545,19.584 60.6367552,19.4816224 C59.6146573,18.4477762 58.5724196,17.4508531 57.5033287,16.5009231 C57.4311608,16.4354685 57.3556364,16.375049 57.2834685,16.3095944 C56.1774545,15.3361678 55.0496224,14.403021 53.8949371,13.5219021 C53.8764755,13.5067972 53.858014,13.4933706 53.8395524,13.4799441 C52.6429091,12.5686154 51.4210909,11.7042797 50.1724196,10.8902937 C50.1707413,10.8869371 50.1673846,10.8852587 50.164028,10.8835804 C48.958993,10.0981259 47.7237483,9.36302098 46.4683636,8.6681958 C46.3794126,8.61952448 46.2938182,8.5674965 46.2048671,8.5205035 C44.9998322,7.86092308 43.7696224,7.25001399 42.5192727,6.67434965 C42.3732587,6.60721678 42.2289231,6.53672727 42.0829091,6.47127273 C40.8610909,5.92078322 39.6157762,5.41393007 38.3503217,4.94232168 C38.1707413,4.87518881 37.9911608,4.80637762 37.8082238,4.74092308 C36.5545175,4.2860979 35.278993,3.87155245 33.9816503,3.49393007 C33.7852867,3.43686713 33.5855664,3.38148252 33.3875245,3.3260979 C32.0851469,2.9619021 30.765986,2.63295105 29.4216503,2.34427972 C29.226965,2.30232168 29.0289231,2.2653986 28.8308811,2.22344056 C27.4664056,1.94483916 26.0851469,1.6998042 24.6787133,1.49840559 C24.5041678,1.47323077 24.3279441,1.45476923 24.1533986,1.42959441 C22.7066853,1.23490909 21.2415105,1.07379021 19.7511608,0.961342657 C19.6353566,0.952951049 19.5178741,0.947916084 19.4003916,0.939524476 C17.8378741,0.828755245 16.2552168,0.754909091 14.644028,0.734769231 L0.557874126,11.523021 L0.531020979,11.716028 L10.992,27.410014 C12.3094825,27.2958881 13.6554965,27.2371469 15.0333986,27.2371469 C16.2266853,27.2371469 17.4015105,27.2908531 18.5645874,27.3714126 C18.9153566,27.3949091 19.2610909,27.4284755 19.6085035,27.4586853 C20.4661259,27.5358881 21.3153566,27.6382657 22.1578741,27.7591049 C22.4935385,27.8077762 22.8308811,27.8480559 23.1615105,27.9034406 C24.2306014,28.0796643 25.2845874,28.2928112 26.3251469,28.5428811 C26.6926993,28.6318322 27.0535385,28.7409231 27.4194126,28.8382657 C28.1108811,29.0228811 28.7956364,29.2226014 29.4753566,29.4391049 C29.9486434,29.5901538 30.4202517,29.7495944 30.8868252,29.9174266 C31.4557762,30.1205035 32.0163357,30.3453986 32.5752168,30.571972 C33.4210909,30.916028 34.2552168,31.2869371 35.0792727,31.683021 C35.5475245,31.9095944 36.0191329,32.1277762 36.4806713,32.3711329 C37.0764755,32.684979 37.6638881,33.0223217 38.2479441,33.3646993 C38.5651469,33.550993 38.8806713,33.738965 39.1945175,33.9336503 C39.8222098,34.323021 40.4482238,34.7157483 41.0641678,35.1386853 C41.1229091,35.178965 41.1816503,35.2242797 41.2403916,35.2662378 C42.6871049,36.2681958 44.0968951,37.3624615 45.4697622,38.5523916 C45.5133986,38.590993 45.5587133,38.6262378 45.6006713,38.6631608 C46.2971748,39.2707133 46.9852867,39.9034406 47.6633287,40.5596643 C47.712,40.6066573 47.7606713,40.657007 47.8093427,40.704 C49.8954965,42.7347692 51.8926993,44.9937902 53.8026294,47.4827413 C54.7492028,48.717986 55.6756364,50.011972 56.5802517,51.357986 C56.6306014,51.4335105 56.6826294,51.5056783 56.7313007,51.5812028 C57.1844476,52.2592448 57.6308811,52.949035 58.0706014,53.6539301 C58.5740979,54.4595245 59.0692028,55.2785455 59.5575944,56.1210629 C59.8462657,56.6178462 60.1299021,57.1263776 60.4135385,57.6349091 C61.005986,58.7056783 61.5950769,59.7915524 62.1657063,60.9177063 C62.3016503,61.1862378 62.4342378,61.4631608 62.5685035,61.735049 C63.2381538,63.0793846 63.8960559,64.4505734 64.5354965,65.8737902 C64.4733986,66.0281958 64.4079441,66.1742098 64.3458462,66.3252587 L64.3458462,66.3252587 C60.6115804,75.5006434 56.2714406,83.1504336 51.3220699,89.277986 L51.3220699,101.063161 L56.8219301,102.296727 L58.5925594,104.684979 L56.638993,120.234629 C65.4401119,112.719105 72.5478042,102.187636 77.9536783,88.6267972 L78.5478042,88.6267972 C81.3673846,93.9185455 84.4454266,98.6396643 87.7550769,102.852252 L88.3928392,91.2046993 L90.5629091,89.1722517 L104.751441,88.5898741 C99.3757762,83.2746294 94.6596923,76.2609231 90.6266853,67.4916923 C96.3883636,54.9697343 103.684028,46.0612028 112.495217,40.7291748" id="Fill-13" fill="#0084FF" mask="url(#mask-4)"></path>
                </g>
                <path d="M137.647049,69.493986 L137.736,69.1885315 C137.69572,69.2724476 137.657119,69.3513287 137.618517,69.4352448 C137.626909,69.4553846 137.636979,69.4738462 137.647049,69.493986" id="Fill-15" fill="#000000"></path>
                <path d="M149.818238,88.521958 C145.462993,83.7387413 141.577678,77.7504895 138.158937,70.5572028 C137.989427,70.1997203 137.814881,69.8573427 137.647049,69.4948252 C137.636979,69.4746853 137.626909,69.4562238 137.618517,69.4344056 C137.657119,69.3521678 137.69572,69.2732867 137.736,69.1893706 L137.90551,68.5986014 L124.980755,90.5711888 L125.541315,90.5711888 C126.707748,92.7613986 127.929566,94.8307692 129.183273,96.8296503 C130.958937,99.660979 132.806769,102.327832 134.748587,104.794965 L135.309147,94.5236364 L135.384671,93.1490909 L137.554741,91.1166434 L145.201175,90.8011189 L151.743273,90.5325874 C151.092084,89.8881119 150.450965,89.2167832 149.818238,88.521958" id="Fill-17" fill="#0084FF"></path>
                <path d="M164.292084,25.8282517 L148.193622,19.9356643 C139.407608,26.0262937 131.929007,34.9381818 125.762853,46.6797203 L125.836699,46.9734266 L112.237259,67.3717483 L110.877818,68.7311888 C107.143552,77.9065734 103.264951,85.0948252 98.3155804,91.2206993 C95.2677483,94.9918881 91.989986,98.1857343 88.483972,100.800559 L98.3155804,103.007552 L103.813762,104.239441 L105.58607,106.629371 L103.630825,122.179021 C112.12649,114.921958 119.027748,104.833566 124.358098,91.9490909 C124.520895,91.5597203 124.692084,91.1888112 124.851524,90.7927273 C124.881734,90.7172028 124.915301,90.6483916 124.947189,90.5711888 L124.980755,90.5711888 L137.90551,68.5986014 L137.736,69.1893706 C143.482573,56.8 150.73628,47.9703497 159.488727,42.6735664 L164.376,26.0061538 L164.292084,25.8282517 Z" id="Fill-19" fill="#2AAF6F"></path>
                <path d="M45.3376783,60.2444196 L45.3376783,72.3048392 L47.4892867,72.3048392 C49.3606154,72.3048392 50.8308252,71.7476364 51.8999161,70.6298741 C52.9673287,69.5137902 53.501035,68.004979 53.501035,66.1000839 C53.501035,64.2606434 52.9421538,62.824 51.8277483,61.7918322 C50.7116643,60.7613427 49.2615944,60.2444196 47.4758601,60.2444196 L45.3376783,60.2444196 Z M41.3919441,75.5305734 L41.3919441,57.017007 L47.788028,57.017007 C54.362014,57.017007 57.6481678,60.0245594 57.6481678,66.0413427 C57.6481678,68.9012028 56.7284476,71.1971469 54.8873287,72.9325315 C53.0478881,74.6645594 50.6730629,75.5305734 47.7628531,75.5305734 L41.3919441,75.5305734 Z" id="Fill-21" fill="#2AAF6F"></path>
                <path d="M68.5243636,67.5953007 C68.5243636,65.6182378 67.7238042,64.6297063 66.121007,64.6297063 C65.4614266,64.6297063 64.8756923,64.9032727 64.3638042,65.4436923 C63.8552727,65.9857902 63.5363916,66.7024336 63.4088392,67.5953007 L68.5243636,67.5953007 Z M72.1226853,70.0087273 L63.4205874,70.0087273 C63.5565315,72.0562797 64.7900979,73.0817343 67.1263217,73.0817343 C68.5847832,73.0817343 69.8720559,72.7225734 70.9881399,72.0059301 L70.9881399,74.8372587 C69.7831049,75.5153007 68.2071608,75.8543217 66.2535944,75.8543217 C64.1506573,75.8543217 62.5142937,75.2601958 61.3478601,74.0719441 C60.1797483,72.8853706 59.5973706,71.2322238 59.5973706,69.1125035 C59.5973706,67.0011748 60.2183497,65.2859301 61.4603077,63.9667692 C62.7039441,62.6492867 64.2664615,61.9897063 66.1461818,61.9897063 C68.0175105,61.9897063 69.4826853,62.556979 70.5383497,63.6932028 C71.594014,64.8294266 72.1226853,66.3869091 72.1226853,68.3723636 L72.1226853,70.0087273 Z" id="Fill-23" fill="#2AAF6F"></path>
                <path d="M86.9793566,62.3112727 L82.0199161,75.5314126 L77.6562797,75.5314126 L72.9351608,62.3112727 L77.0722238,62.3112727 L79.4973986,70.6307133 C79.7608951,71.5386853 79.9069091,72.3006434 79.9404755,72.9132308 L79.9992168,72.9132308 C80.062993,72.2838601 80.2190769,71.5470769 80.4657902,70.7028811 L82.9396364,62.3112727 L86.9793566,62.3112727 Z" id="Fill-25" fill="#2AAF6F"></path>
                <path d="M158.614657,66.3038322 C158.614657,68.1046713 159.047664,69.5765594 159.915357,70.7211748 C160.784727,71.8641119 161.976336,72.4347413 163.490182,72.4347413 C165.035916,72.4347413 166.239273,71.8876084 167.100252,70.7916643 C167.959552,69.6957203 168.390881,68.2255105 168.390881,66.376 C168.390881,64.4476084 167.972979,62.9236923 167.135497,61.8025734 C166.299692,60.6848112 165.119832,60.1242517 163.599273,60.1242517 C162.05186,60.1242517 160.835077,60.6982378 159.947245,61.8462098 C159.057734,62.9925035 158.614657,64.4794965 158.614657,66.3038322 M154.465846,66.5186573 C154.465846,63.6185175 155.313399,61.2587972 157.006825,59.4378182 C158.700252,57.6168392 160.937455,56.7055105 163.716755,56.7055105 C166.36179,56.7055105 168.493259,57.5866294 170.106126,59.3471888 C171.720671,61.1077483 172.526266,63.3718042 172.526266,66.136 C172.526266,69.021035 171.687105,71.3622937 170.010462,73.1580979 C168.33214,74.9555804 166.135217,75.8534825 163.418014,75.8534825 C160.764587,75.8534825 158.609622,74.9841119 156.953119,73.242014 C155.294937,71.5015944 154.465846,69.261035 154.465846,66.5186573" id="Fill-27" fill="#3E3A39"></path>
                <path d="M179.075748,69.6866573 C179.075748,70.6281958 179.330853,71.3968671 179.841063,71.9926713 C180.351273,72.5901538 181.010853,72.8888951 181.824839,72.8888951 C182.789874,72.8888951 183.540084,72.5163077 184.077147,71.7660979 C184.615888,71.0175664 184.88442,69.9568671 184.88442,68.5873566 C184.88442,66.1638601 183.939524,64.9537902 182.051413,64.9537902 C181.175329,64.9537902 180.460364,65.2877762 179.906517,65.9574266 C179.352671,66.6270769 179.075748,67.4863776 179.075748,68.5386853 L179.075748,69.6866573 Z M179.136168,73.9412028 L179.136168,81.6144895 L175.27435,81.6144895 L175.27435,62.3104336 L179.136168,62.3104336 L179.136168,64.3328112 L179.183161,64.3328112 C180.195189,62.7702937 181.626797,61.9898741 183.474629,61.9898741 C185.154629,61.9898741 186.470434,62.5772867 187.418685,63.7521119 C188.366937,64.9269371 188.840224,66.5263776 188.840224,68.5504336 C188.840224,70.7591049 188.291413,72.5263776 187.192112,73.8572867 C186.092811,75.1881958 184.649455,75.8544895 182.865399,75.8544895 C181.247497,75.8544895 180.018965,75.2167273 179.183161,73.9412028 L179.136168,73.9412028 Z" id="Fill-29" fill="#3E3A39"></path>
                <path d="M191.232,71.9812587 C192.552839,72.7851748 193.850182,73.1896503 195.115636,73.1896503 C196.710042,73.1896503 197.505566,72.7633566 197.505566,71.9090909 C197.505566,71.3048951 196.849343,70.798042 195.533538,70.3918881 C193.89214,69.8816783 192.764308,69.3144056 192.15172,68.6883916 C191.539133,68.0623776 191.232,67.2165035 191.232,66.1474126 C191.232,64.8500699 191.755636,63.833007 192.807944,63.0945455 C193.860252,62.3577622 195.239832,61.9902098 196.943329,61.9902098 C198.155077,61.9902098 199.323189,62.1681119 200.445986,62.5272727 L200.445986,65.5633566 C199.418853,64.9574825 198.287664,64.6553846 197.05242,64.6553846 C196.439832,64.6553846 195.944727,64.7644755 195.570462,64.9826573 C195.194517,65.2025175 195.008224,65.4911888 195.008224,65.8503497 C195.008224,66.4562238 195.565427,66.9462937 196.68151,67.3205594 C197.876476,67.7183217 198.774378,68.0808392 199.376895,68.4081119 C199.977734,68.7337063 200.435916,69.165035 200.751441,69.6987413 C201.065287,70.2324476 201.223049,70.8500699 201.223049,71.5516084 C201.223049,72.9144056 200.677594,73.9717483 199.586685,74.7253147 C198.494098,75.4772028 197.035636,75.8548252 195.211301,75.8548252 C193.778014,75.8548252 192.450462,75.6265734 191.232,75.1717483 L191.232,71.9812587 Z" id="Fill-31" fill="#3E3A39"></path>
                <path d="M14.7574825,42.8449231 C12.5756643,40.3475804 12.9046154,37.4776503 14.8195804,35.8043636 C15.7812587,34.9635245 16.9527273,34.7537343 17.8892308,34.835972 L17.9328671,36.4958322 C17.233007,36.4572308 16.5583217,36.5780699 15.9843357,37.0782098 C14.838042,38.0801678 14.838042,39.8138741 16.2612587,41.4435245 C17.6995804,43.0916364 19.3443357,43.4054825 20.5443357,42.3582098 C21.1888112,41.7942937 21.4338462,41.039049 21.459021,40.2401678 L23.0802797,40.4868811 C23.092028,41.759049 22.6220979,42.854993 21.6402797,43.7142937 C19.7236364,45.3875804 16.9661538,45.3741538 14.7574825,42.8449231" id="Fill-33" fill="#FFFFFF"></path>
                <path d="M26.1467413,34.4862098 C25.1968112,33.4020212 24.1394685,33.0780979 23.3607273,33.7561399 C22.581986,34.4392168 22.7582098,35.5301259 23.7081399,36.616 C24.6463217,37.6901259 25.6952727,38.0022937 26.474014,37.3225734 C27.2527552,36.6428531 27.0849231,35.562014 26.1467413,34.4862098 M22.1724755,37.956979 C20.4991888,36.0436923 20.854993,33.782993 22.2882797,32.530965 C23.7232448,31.2789371 26.0091189,31.2302657 27.6824056,33.1435524 C29.3355524,35.0383776 28.9814266,37.3007552 27.5481399,38.5527832 C26.1131748,39.8048112 23.8256224,39.8518042 22.1724755,37.956979" id="Fill-35" fill="#FFFFFF"></path>
                <path d="M33.4336783,30.1772867 L31.2317203,27.6598042 C30.6057063,27.6463776 30.1492028,27.8460979 29.7917203,28.1599441 C29.1455664,28.7238601 29.1388531,29.8097343 30.1424895,30.9593846 C31.1796923,32.145958 32.1296224,32.3641399 32.8865455,31.7012028 C33.285986,31.3521119 33.478993,30.8939301 33.4336783,30.1772867 M28.6152168,32.3305734 C26.9754965,30.4558881 27.1433287,28.2891748 28.3819301,27.2066573 C29.0280839,26.6444196 29.6406713,26.5403636 30.3824895,26.5621818 L29.5332587,25.712951 L27.7693427,23.6972867 L29.2747972,22.3798042 L36.4143776,30.5532308 L35.1975944,31.6156084 L34.5547972,31.1305734 L34.5229091,31.1574266 C34.4624895,31.9344895 34.1738182,32.7635804 33.5813706,33.2821818 C32.1564755,34.5258182 30.2515804,34.2052587 28.6152168,32.3305734" id="Fill-37" fill="#FFFFFF"></path>
                <path d="M38.4458182,22.7100979 C37.7677762,21.9313566 36.989035,21.7450629 36.2522517,22.3895385 C35.6480559,22.9165315 35.491972,23.8110769 36.1112727,24.7509371 L38.4458182,22.7100979 Z M35.1798042,26.5937343 C33.5501538,24.7324755 33.8405035,22.4382098 35.2133706,21.2398881 C36.790993,19.861986 38.6203636,20.3033846 40.0066573,21.8910769 C40.2483357,22.1663217 40.4581259,22.4684196 40.5336503,22.6379301 L37.0007832,25.726042 C37.9473566,26.5584895 38.992951,26.5165315 39.8421818,25.773035 C40.3137902,25.3618462 40.5957483,24.8583497 40.782042,24.2457622 L42.1012028,24.719049 C41.8763077,25.6018462 41.3627413,26.482965 40.6477762,27.108979 C39.0483357,28.5053427 36.8245594,28.4801678 35.1798042,26.5937343 L35.1798042,26.5937343 Z" id="Fill-39" fill="#FFFFFF"></path>
                <path d="M180.962182,24.7031049 C182.67407,25.4717762 184.152671,25.0303776 185.154629,22.7982098 C186.163301,20.5526154 185.47351,19.2300979 183.761622,18.4614266 L183.190993,18.2063217 L180.391552,24.448 L180.962182,24.7031049 Z M182.009455,15.9187692 L184.528615,17.0482797 C187.333091,18.3036643 188.418965,20.5375105 187.027636,23.6373706 C185.643021,26.7288392 183.21449,27.4857622 180.509035,26.274014 L177.890853,25.0991888 L182.009455,15.9187692 Z" id="Fill-41" fill="#FFFFFF"></path>
                <path d="M192.615441,26.6961119 C193.038378,25.7528951 192.883972,24.9691189 191.991105,24.568 C191.257678,24.2407273 190.379916,24.4723357 189.78579,25.4273007 L192.615441,26.6961119 Z M187.721455,25.3500979 C188.733483,23.0927552 190.938797,22.3962517 192.602014,23.1431049 C194.511944,24.0007273 194.87614,25.8468811 194.011804,27.7719161 C193.862434,28.1059021 193.674462,28.4231049 193.553622,28.5624056 L189.273902,26.6424056 C188.909706,27.8491189 189.38635,28.7805874 190.416839,29.2438042 C190.987469,29.4989091 191.561455,29.5475804 192.197538,29.4586294 L192.316699,30.854993 C191.420476,31.0194685 190.408448,30.9238042 189.540755,30.5327552 C187.603972,29.6650629 186.697678,27.6342937 187.721455,25.3500979 L187.721455,25.3500979 Z" id="Fill-43" fill="#FFFFFF"></path>
                <path d="M199.976056,30.7279441 C200.570182,29.4003916 200.477874,28.478993 199.521231,28.0493427 C199.049622,27.8378741 198.522629,27.8865455 197.822769,28.1517203 L196.45158,31.2029091 C196.725147,31.7886434 197.112839,32.125986 197.485427,32.2938182 C198.327944,32.6714406 199.298014,32.2417902 199.976056,30.7279441 L199.976056,30.7279441 Z M196.928224,25.2918601 L198.416895,25.9598322 L198.217175,26.7352168 L198.267524,26.7587133 C199.073119,26.5220699 199.971021,26.4482238 200.716196,26.7822098 C202.428084,27.5492028 202.817455,29.4104615 201.860811,31.5436084 C200.79172,33.9251469 198.745846,34.6636084 197.220252,33.9788531 C196.611021,33.7052867 196.152839,33.1699021 195.835636,32.4465455 L195.374098,33.6113007 L194.427524,35.720951 L192.614937,34.906965 L196.928224,25.2918601 Z" id="Fill-45" fill="#FFFFFF"></path>
                <path d="M202.675469,33.8764755 L206.241902,25.9229091 L208.05449,26.7352168 L204.449455,34.7760559 C204.264839,35.1855664 204.400783,35.4121399 204.575329,35.4893427 C204.649175,35.5212308 204.699524,35.543049 204.835469,35.5766154 L204.452811,37.0283636 C204.201063,37.019972 203.858685,36.9561958 203.435748,36.7665455 C202.170294,36.1992727 202.094769,35.1671049 202.675469,33.8764755" id="Fill-47" fill="#FFFFFF"></path>
                <path d="M211.644084,36.080951 C212.234853,34.7668252 212.083804,33.6692028 211.140587,33.2479441 C210.197371,32.825007 209.281007,33.4426294 208.690238,34.7567552 C208.106182,36.0591329 208.258909,37.1416503 209.203804,37.5662657 C210.145343,37.9892028 211.05835,37.3833287 211.644084,36.080951 M206.830657,33.920951 C207.871217,31.6015105 210.071497,30.9788531 211.810238,31.7592727 C213.545622,32.538014 214.545902,34.5956364 213.505343,36.9167552 C212.476531,39.211021 210.272895,39.832 208.535832,39.0532587 C206.798769,38.2761958 205.801846,36.2168951 206.830657,33.920951" id="Fill-49" fill="#FFFFFF"></path>
                <path d="M211.840615,43.5169231 L212.803972,42.2648951 C212.911385,42.3588811 213.089287,42.4965035 213.250406,42.5686713 C213.958657,42.8858741 214.554462,42.6173427 215.024392,42.0987413 L215.333203,41.7446154 L215.689007,33.7071329 L217.526769,34.5311888 L217.184392,38.252028 C217.117259,38.9686713 216.988028,39.7155245 216.887329,40.4741259 L216.949427,40.5026573 C217.399217,39.9286713 217.87586,39.3379021 218.323972,38.7655944 L220.727329,35.9678322 L222.477818,36.7532867 L216.795021,42.8036364 C215.452364,44.1681119 214.28593,44.7773427 212.735161,44.0825175 C212.32565,43.8995804 212.07558,43.7267133 211.840615,43.5169231" id="Fill-51" fill="#FFFFFF"></path>
                <path d="M230.498853,72.763021 C232.445706,73.7045594 234.02165,73.4091748 234.672839,72.0614825 C235.324028,70.7154685 234.577175,69.2972867 232.630322,68.3557483 C230.695217,67.4192448 229.043748,67.6810629 228.392559,69.0253986 C227.739692,70.3730909 228.565427,71.8265175 230.498853,72.763021 M233.523189,66.5062378 C236.473678,67.9328112 237.386685,70.4133706 236.228643,72.8133706 C235.068923,75.2133706 232.544727,76.0307133 229.604308,74.6108531 C226.667245,73.190993 225.665287,70.6684755 226.826685,68.2667972 C227.984727,65.8684755 230.584448,65.0846993 233.523189,66.5062378" id="Fill-53" fill="#FFFFFF"></path>
                <path d="M225.585231,80.2367552 C226.896,80.8694825 227.819077,80.8023497 228.27558,79.8574545 C228.498797,79.3942378 228.470266,78.8655664 228.221874,78.1573147 L225.209287,76.7022098 C224.618517,76.958993 224.271105,77.3349371 224.093203,77.7008112 C223.690406,78.5332587 224.091524,79.5133986 225.585231,80.2367552 L225.585231,80.2367552 Z M231.105231,77.345007 L230.395301,78.8152168 L229.626629,78.5936783 L229.603133,78.644028 C229.81628,79.4546573 229.863273,80.3542378 229.509147,81.0893427 C228.691804,82.7794126 226.822154,83.1150769 224.717538,82.0963357 C222.36621,80.9617902 221.688168,78.8957762 222.416559,77.3903217 C222.706909,76.7894825 223.252364,76.3447273 223.98579,76.0493427 L222.83614,75.5542378 L220.753343,74.5472448 L221.617678,72.7598322 L231.105231,77.345007 Z" id="Fill-55" fill="#FFFFFF"></path>
                <path d="M222.577678,87.9958042 C223.507469,88.4455944 224.29628,88.3113287 224.722573,87.4302098 C225.069986,86.7085315 224.863552,85.8240559 223.927049,85.2047552 L222.577678,87.9958042 Z M224.062993,83.1387413 C226.290126,84.2162238 226.922853,86.44 226.129007,88.0813986 C225.217678,89.9661538 223.361455,90.2766434 221.463273,89.3602797 C221.134322,89.2008392 220.820476,89.0044755 220.684531,88.8769231 L222.727049,84.6542657 C221.530406,84.2565035 220.58551,84.7062937 220.095441,85.7233566 C219.821874,86.2855944 219.758098,86.8595804 219.825231,87.4973427 L218.428867,87.5762238 C218.287888,86.6783217 218.417119,85.6662937 218.829986,84.8103497 C219.753063,82.9004196 221.809007,82.0511888 224.062993,83.1387413 L224.062993,83.1387413 Z" id="Fill-57" fill="#FFFFFF"></path>
                <path d="M223.856056,92.3456783 L223.146126,93.8142098 L221.873958,93.350993 L221.85214,93.3996643 C222.503329,94.3344895 222.635916,95.3045594 222.293538,96.0161678 C222.110601,96.3954685 221.942769,96.5851189 221.756476,96.752951 L220.356755,95.6805035 C220.541371,95.4858182 220.673958,95.3079161 220.809902,95.025958 C221.070042,94.4872168 221.026406,93.6665175 220.225846,92.7954685 L216.135776,90.8184056 L217.000112,89.030993 L223.856056,92.3456783 Z" id="Fill-59" fill="#FFFFFF"></path>
                <path d="M214.77449,98.5131748 L216.157427,99.1811469 C216.743161,97.4088392 216.561902,96.6284196 215.949315,96.3313566 C215.410573,96.0712168 214.99435,96.3380699 214.739245,96.8650629 C214.490853,97.3786294 214.551273,97.8770909 214.77449,98.5131748 M216.629035,94.5473007 C218.100923,95.2589091 218.297287,96.8163916 217.260084,99.7148531 C217.944839,100.015273 218.599385,99.9682797 219.007217,99.1240839 C219.316028,98.4863217 219.331133,97.7394685 219.272392,96.9271608 L220.771133,96.8516364 C220.885259,97.9022657 220.814769,99.0770909 220.29449,100.154573 C219.45365,101.893315 217.980084,102.282685 215.997986,101.324364 L211.99351,99.3875804 L212.703441,97.919049 L213.504,98.1405874 L213.522462,98.1036643 C213.297566,97.2544336 213.237147,96.380028 213.616448,95.5962517 C214.207217,94.3710769 215.465958,93.9850629 216.629035,94.5473007" id="Fill-61" fill="#FFFFFF"></path>
                <path d="M213.492755,102.410573 L216.530517,103.879105 L216.997091,102.910713 L218.331357,103.556867 L217.90842,104.649455 L219.645483,105.745399 L218.917091,107.252531 L217.079329,106.363021 L216.261986,108.053091 L214.843804,107.366657 L215.659469,105.676587 L212.623385,104.208056 C211.841287,103.830434 211.319329,103.971413 211.022266,104.584 C210.916531,104.80386 210.861147,105.107636 210.844364,105.327497 L209.394294,104.988476 C209.448,104.562182 209.543664,104.020084 209.834014,103.420923 C210.621147,101.791273 211.952056,101.665399 213.492755,102.410573" id="Fill-63" fill="#FFFFFF"></path>
                <path d="M210.983497,111.980699 C211.913287,112.43049 212.702098,112.296224 213.128392,111.416783 C213.477483,110.693427 213.271049,109.808951 212.332867,109.18965 L210.983497,111.980699 Z M212.47049,107.123636 C214.695944,108.202797 215.328671,110.424895 214.534825,112.066294 C213.623497,113.952727 211.767273,114.261538 209.869091,113.345175 C209.54014,113.185734 209.226294,112.989371 209.09035,112.863497 L211.132867,108.639161 C209.936224,108.241399 208.991329,108.692867 208.501259,109.708252 C208.227692,110.27049 208.163916,110.844476 208.231049,111.482238 L206.834685,111.562797 C206.693706,110.663217 206.822937,109.651189 207.237483,108.795245 C208.158881,106.885315 210.214825,106.036084 212.47049,107.123636 L212.47049,107.123636 Z" id="Fill-65" fill="#FFFFFF"></path>
                <path d="M148.311944,100.148867 L150.423273,100.868867 L150.52565,105.873622 C150.530685,106.536559 150.497119,107.229706 150.476979,107.911105 L150.542434,107.934601 C150.960336,107.38579 151.342993,106.813483 151.749147,106.289846 L154.850685,102.377678 L156.960336,103.096 L153.71614,112.622154 L151.977399,112.028028 L153.331804,108.052084 C153.638937,107.150825 154.233063,105.871944 154.630825,105.004252 L154.578797,104.984112 L153.043133,106.962853 L150.211804,110.463832 L149.117538,110.091245 L149.001734,105.583273 L149.005091,103.08593 L148.954741,103.067469 C148.738238,104.000615 148.439497,105.376839 148.134042,106.278098 L146.777958,110.25572 L145.06607,109.673343 L148.311944,100.148867 Z" id="Fill-67" fill="#FFFFFF"></path>
                <path d="M161.671385,111.323469 C162.134601,109.960671 161.88621,108.883189 160.907748,108.550881 C159.929287,108.215217 159.073343,108.915077 158.610126,110.281231 C158.146909,111.63228 158.402014,112.694657 159.380476,113.030322 C160.358937,113.362629 161.209846,112.676196 161.671385,111.323469 M156.678378,109.62165 C157.499077,107.216615 159.630545,106.390881 161.433063,107.006825 C163.23558,107.619413 164.423832,109.576336 163.601455,111.983049 C162.790825,114.364587 160.656,115.188643 158.853483,114.574378 C157.050965,113.958434 155.86607,112.003189 156.678378,109.62165" id="Fill-69" fill="#FFFFFF"></path>
                <path d="M166.416168,108.906014 L167.961902,109.431329 L167.768895,110.426573 L167.817566,110.445035 C168.660084,110.043916 169.569734,109.778741 170.546517,110.111049 C172.105678,110.641399 172.40442,111.95049 171.786797,113.766434 L170.256168,118.257622 L168.364699,117.613147 L169.816448,113.351888 C170.19407,112.245874 170.019524,111.740699 169.314629,111.500699 C168.720503,111.299301 168.250573,111.455385 167.530573,111.799441 L165.842182,116.753846 L163.960783,116.112727 L166.416168,108.906014 Z" id="Fill-71" fill="#FFFFFF"></path>
                <path d="M175.232224,109.468084 C175.443692,108.848783 176.061315,108.598713 176.717538,108.82193 C177.362014,109.04179 177.697678,109.617455 177.48621,110.235077 C177.284811,110.827524 176.658797,111.102769 176.014322,110.882909 C175.358098,110.658014 175.030825,110.060531 175.232224,109.468084 L175.232224,109.468084 Z M174.666629,111.717035 L176.54635,112.358154 L174.090965,119.566545 L172.211245,118.925427 L174.666629,111.717035 Z" id="Fill-73" fill="#FFFFFF"></path>
                <path d="M177.256448,117.828643 L178.344,114.636476 L177.326937,114.289063 L177.805259,112.887664 L178.943161,113.174657 L179.819245,111.316755 L181.40358,111.855497 L180.744,113.788923 L182.519664,114.393119 L182.011133,115.885147 L180.235469,115.279273 L179.147916,118.473119 C178.867636,119.297175 179.070713,119.797315 179.715189,120.017175 C179.946797,120.096056 180.255608,120.114517 180.475469,120.101091 L180.312671,121.584727 C179.883021,121.583049 179.332531,121.552839 178.701483,121.338014 C176.991273,120.753958 176.70428,119.449902 177.256448,117.828643" id="Fill-75" fill="#FFFFFF"></path>
                <path d="M187.056,119.974042 C187.519217,118.611245 187.269147,117.533762 186.290685,117.201455 C185.312224,116.86579 184.45628,117.56565 183.991385,118.931804 C183.529846,120.282853 183.784951,121.345231 184.763413,121.680895 C185.741874,122.013203 186.594462,121.328448 187.056,119.974042 M182.059636,118.272224 C182.882014,115.867189 185.015161,115.041455 186.816,115.657399 C188.618517,116.269986 189.806769,118.226909 188.98607,120.633622 C188.173762,123.015161 186.038937,123.839217 184.23642,123.224951 C182.43558,122.609007 181.249007,120.653762 182.059636,118.272224" id="Fill-77" fill="#FFFFFF"></path>
                <path d="M191.800783,117.556587 L193.344839,118.081902 L193.041063,119.401063 L193.093091,119.416168 C193.938965,118.657566 194.887217,118.407497 195.63407,118.659245 C196.03351,118.796867 196.243301,118.939524 196.431273,119.105678 L195.540084,120.624559 C195.321902,120.465119 195.127217,120.356028 194.83351,120.25365 C194.266238,120.062322 193.455608,120.203301 192.690294,121.104559 L191.225119,125.40442 L189.345399,124.763301 L191.800783,117.556587 Z" id="Fill-79" fill="#FFFFFF"></path>
                <path d="M84.316028,19.2960559 C85.5042797,20.0160559 86.377007,19.8616503 86.9761678,18.8731189 C87.582042,17.8728392 87.1574266,17.1545175 85.9708531,16.4361958 L84.9940699,15.8420699 L83.2821818,18.6683636 L84.316028,19.2960559 Z M84.0995245,13.4387133 L86.9258182,15.1522797 C88.8323916,16.3103217 89.8947692,17.8610909 88.6628811,19.8935385 C87.4712727,21.8588531 85.458965,21.8487832 83.6077762,20.7276643 L82.4581259,20.0294825 L80.6019021,23.0873846 L78.8816224,22.0434685 L84.0995245,13.4387133 Z" id="Fill-81" fill="#FFFFFF"></path>
                <path d="M87.6055385,24.8358601 L92.1235804,17.3841119 L93.822042,18.4129231 L89.251972,25.9485874 C89.0203636,26.3329231 89.1294545,26.5729231 89.2922517,26.6719441 C89.3610629,26.7122238 89.4080559,26.7424336 89.538965,26.7877483 L88.9784056,28.1824336 C88.7333706,28.1438322 88.4010629,28.0380979 88.0033007,27.7980979 C86.8167273,27.0780979 86.8721119,26.0459301 87.6055385,24.8358601" id="Fill-83" fill="#FFFFFF"></path>
                <path d="M94.6793287,29.1431049 L95.4765315,27.828979 C93.768,27.0787692 92.9724755,27.1845035 92.620028,27.7668811 C92.3095385,28.2770909 92.5377902,28.7184895 93.0362517,29.0222657 C93.5263217,29.3176503 94.0247832,29.3025455 94.6793287,29.1431049 M90.9081399,26.9193287 C91.754014,25.522965 93.3249231,25.4742937 96.1126154,26.7833846 C96.4751329,26.1288392 96.4935944,25.4709371 95.693035,24.9842238 C95.0854825,24.6183497 94.341986,24.5327552 93.5263217,24.5142937 L93.5951329,23.0138741 C94.6507972,23.0021259 95.8121958,23.1817063 96.835972,23.8026853 C98.4874406,24.8046434 98.7375105,26.3067413 97.5945734,28.1914965 L95.2885594,31.9928951 L93.8938741,31.147021 L94.1875804,30.369958 L94.1556923,30.3514965 C93.2896783,30.4941538 92.4102378,30.4706573 91.6667413,30.0175105 C90.5053427,29.3142937 90.2384895,28.0236643 90.9081399,26.9193287" id="Fill-85" fill="#FFFFFF"></path>
                <path d="M100.97958,26.5386853 L102.375944,27.3845594 L101.971469,28.316028 L102.016783,28.3428811 C102.924755,28.1314126 103.871329,28.0693147 104.752448,28.603021 C106.160559,29.4556084 106.173986,30.7999441 105.18042,32.4413427 L102.718322,36.4995245 L101.00979,35.4606434 L103.342657,31.6122517 C103.95021,30.6136503 103.888112,30.0833007 103.25035,29.6956084 C102.713287,29.370014 102.221538,29.422042 101.444476,29.6033007 L98.7306294,34.0793846 L97.0304895,33.0505734 L100.97958,26.5386853 Z" id="Fill-87" fill="#FFFFFF"></path>
                <path d="M20.924979,96.2857063 C20.6144895,94.9480839 19.9716923,94.3287832 18.9512727,94.5654266 C17.997986,94.7852867 17.7646993,95.5925594 18.0768671,96.9436084 L18.3907133,98.3097622 L21.2388252,97.6501818 L20.924979,96.2857063 Z M16.6721119,97.5092028 C16.3834406,96.2622098 15.7523916,95.8325594 14.971972,96.0138182 C14.1126713,96.2118601 13.9012028,96.8764755 14.1747692,98.0563357 L14.4433007,99.2210909 L16.9339301,98.6454266 L16.6721119,97.5092028 Z M13.3993846,101.528783 L12.6474965,98.2812308 C12.1826014,96.2672448 12.4125315,94.5973147 14.2419021,94.1743776 C15.1431608,93.9662657 16.1853986,94.2549371 16.6704336,95.0236084 L16.7358881,95.0085035 C16.7442797,93.8907413 17.3065175,92.9357762 18.6273566,92.6286434 C20.6044196,92.1738182 21.8967273,93.6054266 22.3968671,95.7654266 L23.2041399,99.263049 L13.3993846,101.528783 Z" id="Fill-89" fill="#FFFFFF"></path>
                <path d="M18.3944056,91.1213427 L13.7555245,92.1937902 L13.3057343,90.2469371 L17.6911888,89.2332308 C18.8441958,88.9663776 19.1681119,88.5568671 19.0036364,87.8419021 C18.8626573,87.2326713 18.5034965,86.8953287 17.7264336,86.5445594 L12.7166434,87.7026014 L12.2685315,85.7540699 L19.6883916,84.0388252 L20.0542657,85.6315524 L19.0271329,86.0209231 L19.0405594,86.072951 C19.9418182,86.5361678 20.5963636,87.137007 20.833007,88.1574266 C21.2005594,89.7484755 20.2472727,90.6933706 18.3944056,91.1213427" id="Fill-91" fill="#FFFFFF"></path>
                <path d="M11.786014,83.6737902 L11.3395804,81.7386853 L18.7594406,80.0234406 L19.2075524,81.9602238 L11.786014,83.6737902 Z M9.57734266,84.3786853 C8.94125874,84.5263776 8.40251748,84.1336503 8.24811189,83.458965 C8.09538462,82.796028 8.40587413,82.2069371 9.04027972,82.0609231 C9.65286713,81.9199441 10.2134266,82.305958 10.3661538,82.9688951 C10.5239161,83.6435804 10.1865734,84.2377063 9.57734266,84.3786853 L9.57734266,84.3786853 Z" id="Fill-93" fill="#FFFFFF"></path>
                <path d="M16.194965,78.4125874 L7.70265734,80.3762238 L7.25622378,78.4394406 L15.8408392,76.4556643 C16.2788811,76.3532867 16.3745455,76.1082517 16.3325874,75.9236364 C16.3141259,75.8447552 16.3006993,75.791049 16.2436364,75.6634965 L17.6332867,75.0911888 C17.7776224,75.2976224 17.9337063,75.6081119 18.0394406,76.0612587 C18.3516084,77.4106294 17.5728671,78.0953846 16.194965,78.4125874" id="Fill-95" fill="#FFFFFF"></path>
                <path d="M14.0871608,69.7702378 L10.8278601,70.5221259 C10.5207273,71.0692587 10.4838042,71.5643636 10.5895385,72.0309371 C10.7825455,72.8633846 11.7408671,73.381986 13.2245035,73.0396084 C14.7601678,72.6838042 15.4012867,71.9520559 15.173035,70.9719161 C15.0538741,70.4533147 14.7417063,70.0656224 14.0871608,69.7702378 M13.7112168,75.0351329 C11.2877203,75.5956923 9.45499301,74.4259021 9.08576224,72.8231049 C8.89107692,71.988979 9.0907972,71.3998881 9.45834965,70.7554126 L8.31205594,71.1045035 L5.70058741,71.7086993 L5.24911888,69.7584895 L15.8242238,67.3165315 L16.1884196,68.8958322 L15.454993,69.2298182 L15.4650629,69.2700979 C16.1212867,69.6896783 16.7154126,70.3358322 16.8933147,71.1045035 C17.3196084,72.9456224 16.1363916,74.4762517 13.7112168,75.0351329" id="Fill-97" fill="#FFFFFF"></path>
                <polygon id="Fill-99" fill="#FFFFFF" points="51.1904895 117.281175 48.3608392 117.281175 48.3608392 115.607888 56.0576224 115.607888 56.0576224 117.281175 53.2027972 117.281175 53.2027972 125.671105 51.1904895 125.671105"></polygon>
                <path d="M60.9408671,121.101706 C60.9408671,120.069538 60.4793287,119.414993 59.4991888,119.414993 C58.696951,119.414993 57.9886993,119.987301 57.8393287,121.101706 L60.9408671,121.101706 Z M55.9226853,121.877091 C55.9226853,119.401566 57.6496783,117.865902 59.4723357,117.865902 C61.5652028,117.865902 62.6544336,119.401566 62.6544336,121.509538 C62.6544336,121.877091 62.6124755,122.244643 62.5587692,122.420867 L57.8678601,122.420867 C58.0306573,123.671217 58.8463217,124.325762 59.9758322,124.325762 C60.6001678,124.325762 61.1439441,124.134434 61.6877203,123.793734 L62.3691189,125.018909 C61.6189091,125.535832 60.6538741,125.861427 59.7039441,125.861427 C57.5808671,125.861427 55.9226853,124.379469 55.9226853,121.877091 L55.9226853,121.877091 Z" id="Fill-101" fill="#FFFFFF"></path>
                <path d="M63.5796923,124.787636 L64.491021,123.535608 C65.1690629,124.065958 65.8236084,124.366378 66.5301818,124.366378 C67.2921399,124.366378 67.6311608,124.039105 67.6311608,123.56414 C67.6311608,122.99351 66.8423497,122.733371 66.0401119,122.421203 C65.0750769,122.05365 63.9606713,121.467916 63.9606713,120.205818 C63.9606713,118.831273 65.0750769,117.866238 66.7886434,117.866238 C67.903049,117.866238 68.7472448,118.327776 69.385007,118.80442 L68.4887832,120.012811 C67.945007,119.63351 67.412979,119.361622 66.8423497,119.361622 C66.1626294,119.361622 65.837035,119.660364 65.837035,120.095049 C65.837035,120.652252 66.5838881,120.857007 67.3878042,121.155748 C68.3931189,121.536727 69.5075245,122.040224 69.5075245,123.455049 C69.5075245,124.787636 68.4602517,125.861762 66.4764755,125.861762 C65.4560559,125.861762 64.3265455,125.411972 63.5796923,124.787636" id="Fill-103" fill="#FFFFFF"></path>
                <path d="M71.0042517,123.006098 L71.0042517,119.632671 L69.9284476,119.632671 L69.9284476,118.150713 L71.0999161,118.056727 L71.3298462,116.015888 L73.0014545,116.015888 L73.0014545,118.056727 L74.8794965,118.056727 L74.8794965,119.632671 L73.0014545,119.632671 L73.0014545,123.006098 C73.0014545,123.877147 73.3555804,124.284979 74.036979,124.284979 C74.2803357,124.284979 74.5807552,124.202741 74.7838322,124.120503 L75.1094266,125.575608 C74.7015944,125.711552 74.1729231,125.860923 73.504951,125.860923 C71.6973986,125.860923 71.0042517,124.719664 71.0042517,123.006098" id="Fill-105" fill="#FFFFFF"></path>
                <path d="M114.278434,85.1636364 L114.899413,84.0156643 C115.515357,82.8811189 115.372699,81.9983217 114.429483,81.4881119 C113.474517,80.9695105 112.814937,81.4176224 112.198993,82.5521678 L111.578014,83.7001399 L114.278434,85.1636364 Z M120.677874,84.686993 L116.344448,84.6903497 L115.678154,85.9222378 L119.024727,87.7348252 L118.066406,89.5054545 L109.218294,84.7104895 L110.888224,81.6274126 C111.893538,79.7728671 113.335217,78.6517483 115.367664,79.7527273 C116.695217,80.4744056 117.158434,81.5888112 117.00235,82.8206993 L121.745287,82.714965 L120.677874,84.686993 Z" id="Fill-107" fill="#FFFFFF"></path>
                <path d="M120.475469,75.4673007 C119.567497,74.9755524 118.771972,75.0712168 118.305399,75.9305175 C117.922741,76.6354126 118.088895,77.529958 118.998545,78.1945734 L120.475469,75.4673007 Z M118.765259,80.2505175 C116.590154,79.068979 116.063161,76.820028 116.932531,75.2189091 C117.929455,73.3761119 119.797427,73.1512168 121.650294,74.1565315 C121.97421,74.3310769 122.276308,74.5408671 122.405538,74.6734545 L120.171692,78.7987692 C121.349874,79.2502378 122.311552,78.8457622 122.848615,77.8521958 C123.147357,77.3033846 123.237986,76.7344336 123.199385,76.0933147 L124.599105,76.0782098 C124.698126,76.9811469 124.52358,77.9864615 124.070434,78.8239441 C123.060084,80.6885594 120.967217,81.4421259 118.765259,80.2505175 L118.765259,80.2505175 Z" id="Fill-109" fill="#FFFFFF"></path>
                <path d="M124.215608,73.6743497 L116.552392,69.5205035 L117.497287,67.775049 L125.246098,71.9742098 C125.640503,72.1873566 125.877147,72.0681958 125.967776,71.9003636 C126.006378,71.8281958 126.033231,71.7812028 126.071832,71.6486154 L127.490014,72.1386853 C127.464839,72.3870769 127.37421,72.7260979 127.15435,73.1322517 C126.493091,74.3507133 125.457566,74.3473566 124.215608,73.6743497" id="Fill-111" fill="#FFFFFF"></path>
                <path d="M126.280615,64.7549091 C125.372643,64.2631608 124.575441,64.3588252 124.110545,65.2181259 C123.727888,65.923021 123.894042,66.8175664 124.803692,67.4805035 L126.280615,64.7549091 Z M124.570406,69.5364476 C122.395301,68.3565874 121.868308,66.1076364 122.737678,64.5065175 C123.734601,62.6637203 125.602573,62.4388252 127.455441,63.4441399 C127.779357,63.6186853 128.081455,63.8284755 128.210685,63.9610629 L125.975161,68.0846993 C127.155021,68.5378462 128.116699,68.1333706 128.653762,67.1398042 C128.952503,66.590993 129.043133,66.0203636 129.004531,65.3792448 L130.404252,65.3658182 C130.501594,66.2687552 130.328727,67.2740699 129.87558,68.1098741 C128.863552,69.9744895 126.772364,70.7297343 124.570406,69.5364476 L124.570406,69.5364476 Z" id="Fill-113" fill="#FFFFFF"></path>
                <path d="M131.84828,59.6199161 L130.495552,58.8881678 C129.830937,60.6319441 129.975273,61.4190769 130.572755,61.7446713 C131.099748,62.029986 131.52772,61.7815944 131.806322,61.268028 C132.07821,60.7662098 132.039608,60.2660699 131.84828,59.6199161 M129.809119,63.4968392 C128.374154,62.7180979 128.249958,61.1505455 129.419748,58.3057902 C128.74842,57.9734825 128.092196,57.9869091 127.645762,58.8143217 C127.30842,59.4353007 127.25807,60.1804755 127.279888,60.9961399 L125.77779,61.0028531 C125.715692,59.9471888 125.839888,58.7773986 126.410517,57.7250909 C127.331916,56.0266294 128.817231,55.7060699 130.755692,56.755021 L134.664503,58.8730629 L133.887441,60.308028 L133.096951,60.0512448 L133.076811,60.0864895 C133.264783,60.9441119 133.281566,61.8218741 132.867021,62.5871888 C132.220867,63.7821538 130.943664,64.1111049 129.809119,63.4968392" id="Fill-115" fill="#FFFFFF"></path>
                <path d="M134.516643,57.2925874 L133.852028,55.8945455 C134.640839,55.5504895 135.214825,55.1191608 135.552168,54.4981818 C135.914685,53.8285315 135.79049,53.372028 135.372587,53.1454545 C134.870769,52.8735664 134.266573,53.4441958 133.608671,54.0013986 C132.824895,54.6744056 131.779301,55.3759441 130.668252,54.7751049 C129.45986,54.1188811 129.144336,52.6805594 129.961678,51.1734266 C130.493706,50.1932867 131.299301,49.673007 132.022657,49.3373427 L132.658741,50.7018182 C132.064615,50.9988811 131.571189,51.3362238 131.299301,51.838042 C130.977063,52.4355245 131.084476,52.8651748 131.467133,53.0716084 C131.957203,53.3384615 132.492587,52.7779021 133.137063,52.2156643 C133.952727,51.5124476 134.926154,50.7706294 136.16979,51.4453147 C137.341259,52.0813986 137.786014,53.5113287 136.841119,55.2567832 C136.354406,56.1546853 135.421259,56.9317483 134.516643,57.2925874" id="Fill-117" fill="#FFFFFF"></path>
                <path d="M136.989818,44.9904895 C136.081846,44.4987413 135.286322,44.5944056 134.819748,45.4537063 C134.437091,46.1602797 134.604923,47.0531469 135.512895,47.7177622 L136.989818,44.9904895 Z M135.281287,49.7737063 C133.106182,48.5921678 132.579189,46.3432168 133.446881,44.7420979 C134.443804,42.8993007 136.311776,42.6744056 138.164643,43.6797203 C138.488559,43.8542657 138.790657,44.0640559 138.921566,44.1966434 L136.686042,48.321958 C137.864224,48.7734266 138.82758,48.368951 139.364643,47.3770629 C139.661706,46.8265734 139.754014,46.2576224 139.715413,45.6165035 L141.113455,45.6013986 C141.212476,46.5043357 141.03793,47.5096503 140.584783,48.3471329 C139.574434,50.2117483 137.483245,50.9653147 135.281287,49.7737063 L135.281287,49.7737063 Z" id="Fill-119" fill="#FFFFFF"></path>
            </g>
        </g>
    </g>
</svg>