<?xml version="1.0" encoding="UTF-8"?>
<svg width="32px" height="33px" viewBox="0 0 32 33" version="1.1" xmlns="http://www.w3.org/2000/svg" xmlns:xlink="http://www.w3.org/1999/xlink">
    <title>进入箭头2小备份</title>
    <g id="页面-1" stroke="none" stroke-width="1" fill="none" fill-rule="evenodd">
        <g id="建木-H5" transform="translate(-60.000000, -1528.000000)" fill-rule="nonzero">
            <g id="进入箭头2小备份" transform="translate(76.000000, 1544.500000) scale(-1, 1) translate(-76.000000, -1544.500000) translate(60.000000, 1528.000000)">
                <rect id="矩形" fill="#000000" opacity="0" x="0" y="1" width="32" height="32"></rect>
                <path d="M30.328,17.9946667 L31.2706667,17.052 L18.276,4.05466666 C17.7542831,3.53796243 16.9137169,3.53796243 16.392,4.05466666 C16.1410543,4.30418016 15.9999535,4.64345381 15.9999535,4.99733333 C15.9999535,5.35121284 16.1410543,5.69048649 16.392,5.94 L27.4986667,17.0493333 L16.392,28.152 C16.1411346,28.4012852 15.9999535,28.7403383 15.9999535,29.094 C15.9999535,29.4476617 16.1411346,29.7867148 16.392,30.036 C16.912,30.556 17.7626667,30.5506667 18.276,30.0373333 L30.2733333,18.0466667 L30.328,17.9946667 L30.328,17.9946667 Z" id="路径" fill="#7B8C9C" opacity="0.496207304"></path>
            </g>
        </g>
    </g>
</svg>