<?xml version="1.0" encoding="UTF-8"?>
<svg width="201px" height="54px" viewBox="0 0 201 54" version="1.1" xmlns="http://www.w3.org/2000/svg" xmlns:xlink="http://www.w3.org/1999/xlink">
    <title>编组 15</title>
    <defs>
        <polygon id="path-1" points="0.000199471986 0.326659398 17.5593194 0.326659398 17.5593194 53.3672367 0.000199471986 53.3672367"></polygon>
    </defs>
    <g id="页面-1" stroke="none" stroke-width="1" fill="none" fill-rule="evenodd">
        <g id="建木-H5" transform="translate(-30.000000, -210.000000)">
            <rect fill="#FFFFFF" x="0" y="0" width="750" height="7055"></rect>
            <rect id="矩形备份-8" fill="#FFFFFF" opacity="0.301507994" x="0" y="177" width="750" height="120"></rect>
            <g id="编组备份-2" transform="translate(30.000000, 210.000000)">
                <g id="编组">
                    <mask id="mask-2" fill="white">
                        <use xlink:href="#path-1"></use>
                    </mask>
                    <g id="Clip-2"></g>
                    <path d="M8.64451745,5.16453242 C8.64451745,2.48368738 10.6974831,0.32661636 13.1290466,0.32661636 C15.6140686,0.32661636 17.5593194,2.48368738 17.5593194,5.16453242 C17.5593194,7.78727599 15.6140686,9.94391662 13.1290466,9.94391662 C10.6974831,9.94391662 8.64451745,7.78727599 8.64451745,5.16453242 M17.5593194,17.055537 L17.5593194,38.9124507 C17.5593194,46.8396437 11.7243649,53.3095656 4.3762159,53.3672367 C1.94505133,53.3095656 0.000199471988,51.2110264 0.000199471988,48.5878525 C0.000199471988,45.9065771 1.99890877,43.7503668 4.48432972,43.7503668 L4.26810208,43.7503668 C6.69966559,43.7503668 8.64451745,41.6518276 8.64451745,38.9124507 L8.64451745,17.055537 C8.64451745,14.3734008 10.6974831,12.217621 13.1290466,12.217621 C15.6140686,12.217621 17.5593194,14.3734008 17.5593194,17.055537" id="Fill-1" fill="#012C53" mask="url(#mask-2)"></path>
                </g>
                <path d="M24.1758242,5.7451223 C24.1758242,3.19519147 26.1057658,1.1434571 28.5712307,1.1434571 C31.0370913,1.1434571 32.967033,3.19519147 32.967033,5.7451223 C32.967033,8.23978895 31.0370913,10.2911139 28.5712307,10.2911139 C26.1057658,10.2911139 24.1758242,8.23978895 24.1758242,5.7451223" id="Fill-3" fill="#012C53"></path>
                <path d="M32.967033,17.2754576 L32.967033,36.4666034 C32.967033,39.0443733 31.0370913,41.1644558 28.5716265,41.1644558 C26.1057658,41.1644558 24.1758242,39.0443733 24.1758242,36.4666034 L24.1758242,17.2754576 C24.1758242,14.6976877 26.1057658,12.5780282 28.5716265,12.5780282 C31.0370913,12.5780282 32.967033,14.6976877 32.967033,17.2754576" id="Fill-5" fill="#012C53"></path>
                <path d="M52.2253355,31.5597977 C49.9109218,31.5597977 47.9706366,29.7774204 47.6657462,27.4964672 C47.641857,27.2938283 47.6191826,27.089923 47.6191826,26.8716641 C47.6191826,26.6529831 47.641857,26.4494999 47.6657462,26.2464389 C47.9706366,23.9654857 49.9109218,22.1826862 52.2253355,22.1826862 C54.6928017,22.1826862 56.7217602,24.2985732 56.7217602,26.871242 L56.7764218,26.871242 L56.7764218,26.8720863 L56.7217602,26.8720863 C56.7217602,29.4443329 54.6928017,31.5597977 52.2253355,31.5597977 L52.2253355,31.5597977 Z M65.9328512,26.8716641 L65.9340659,26.871242 L65.9316365,26.871242 C65.9271826,26.871242 65.8794043,26.8691311 65.8794043,26.8142498 L65.8794043,17.3235761 L65.8794043,17.3227318 C65.8794043,14.6930709 63.7953793,12.5780282 61.3279131,12.5780282 C60.3071578,12.5780282 59.4208297,12.8904297 58.6895787,13.4561297 C58.4701224,13.6186629 58.2648376,13.7989271 58.0769636,13.9986107 C55.8815908,12.6350203 52.2253355,12.5780282 52.2253355,12.5780282 C49.7441026,12.5780282 47.4219958,13.2598234 45.4153069,14.4473713 C45.308413,14.4883212 45.2015192,14.5292712 45.0966498,14.5790865 L44.164163,15.2081112 C41.0646465,17.5165051 38.941751,21.207909 38.5372549,25.370026 C38.5332059,25.4118203 38.5299667,25.4544589 38.5263226,25.4970974 C38.5089119,25.6925595 38.4923109,25.8884437 38.4829982,26.0860165 C38.4749002,26.2396843 38.4724708,26.3954629 38.4692316,26.5503972 C38.467612,26.6386295 38.4615385,26.7255953 38.4615385,26.8142498 L38.4615385,26.871242 L38.4615385,26.8720863 L38.4615385,26.9282341 C38.4615385,27.0168886 38.467612,27.1042766 38.4692316,27.1925089 C38.4724708,27.3474432 38.4749002,27.5027996 38.4829982,27.6564674 C38.4923109,27.8544624 38.5089119,28.0503466 38.5263226,28.2458086 C38.5299667,28.2884472 38.5332059,28.3310858 38.5372549,28.3728801 C38.941751,32.5349971 41.0646465,36.226401 44.164163,38.5343727 L45.0966498,39.1638196 C45.2015192,39.2132128 45.308413,39.2541627 45.4153069,39.2951126 C47.4219958,40.4826606 49.7441026,41.1644558 52.2253355,41.1644558 C52.2253355,41.1644558 55.8815908,41.1074636 58.0769636,39.7442954 C58.2648376,39.9435569 58.4701224,40.1242432 58.6895787,40.2867764 C59.4208297,40.8524764 60.3071578,41.1644558 61.3279131,41.1644558 C63.7953793,41.1644558 65.8794043,39.0494131 65.8794043,36.4197522 L65.8794043,36.4189078 L65.8794043,26.9282341 C65.8794043,26.8733528 65.9271826,26.8720863 65.9316365,26.8720863 L65.9340659,26.8720863 L65.9328512,26.8716641 Z" id="Fill-7" fill="#012C53"></path>
                <path d="M98.9010989,26.8710309 L98.9010989,36.4188378 C98.9010989,39.0489597 96.8676896,41.1644558 94.3405336,41.1644558 C91.8129718,41.1644558 89.7803739,39.0489597 89.7803739,36.4188378 L89.7803739,26.8710309 C89.7803739,24.2413312 87.6921941,22.125835 85.1646323,22.125835 C82.6374762,22.125835 80.6044727,24.2413312 80.6044727,26.8710309 L80.6044727,36.4188378 C80.6044727,39.0489597 78.5714691,41.1644558 76.0439074,41.1644558 C73.5163456,41.1644558 71.4285714,39.0489597 71.4285714,36.4188378 L71.4285714,26.8710309 C71.4285714,18.9810874 77.5823527,12.5780282 85.1646323,12.5780282 C92.7473177,12.5780282 98.9010989,18.9810874 98.9010989,26.8710309" id="Fill-9" fill="#012C53"></path>
                <path d="M151.648352,26.9282341 L151.648352,36.4759 C151.648352,39.0485687 149.548056,41.1644558 147.005336,41.1644558 C144.462615,41.1644558 142.417419,39.0485687 142.417419,36.4759 L142.417419,26.9282341 C142.417419,24.2985732 140.317124,22.125694 137.774403,22.125694 C135.231683,22.125694 133.131796,24.2985732 133.131796,26.9282341 L133.131796,36.4759 C133.131796,39.0485687 131.086191,41.1644558 128.543879,41.1644558 C126.001159,41.1644558 123.900863,39.0485687 123.900863,36.4759 L123.900863,26.9282341 C123.900863,24.2985732 121.910766,22.125694 119.368454,22.125694 C116.825733,22.125694 114.72503,24.2985732 114.72503,26.9282341 L114.72503,36.4759 C114.72503,39.0485687 112.679834,41.1644558 110.137521,41.1644558 C107.594801,41.1644558 105.494505,39.0485687 105.494505,36.4759 L105.494505,26.9282341 C105.494505,18.9809928 111.740292,12.5780282 119.368454,12.5780282 C122.905815,12.5780282 126.111765,13.9500619 128.543879,16.2369254 C130.975993,13.9500619 134.237042,12.5780282 137.774403,12.5780282 C145.402565,12.5780282 151.648352,19.0384071 151.648352,26.9282341" id="Fill-11" fill="#096DD9"></path>
                <path d="M157.142857,26.8710309 L157.142857,17.3228018 C157.142857,14.6926799 159.175861,12.5780282 161.703422,12.5780282 C164.230579,12.5780282 166.263582,14.6926799 166.263582,17.3228018 L166.263582,26.8710309 C166.263582,29.5007306 168.351356,31.6166489 170.878918,31.6166489 C173.40648,31.6166489 175.439889,29.5007306 175.439889,26.8710309 L175.439889,17.3228018 C175.439889,14.6926799 177.472487,12.5780282 180.000049,12.5780282 C182.527205,12.5780282 184.615385,14.6926799 184.615385,17.3228018 L184.615385,26.8710309 C184.615385,34.7613966 178.461603,41.1644558 170.878918,41.1644558 C163.296638,41.1644558 157.142857,34.7613966 157.142857,26.8710309" id="Fill-13" fill="#096DD9"></path>
                <polygon id="Fill-15" fill="#096DD9" points="190.10989 12.5780282 194.505495 12.5780282 194.505495 13.1466474 192.611813 13.1466474 192.611813 18.2953137 192.003572 18.2953137 192.003572 13.1466474 190.10989 13.1466474"></polygon>
                <polygon id="Fill-17" fill="#0181DF" points="194.505495 12.5780282 195.264641 12.5780282 197.245519 17.4543978 197.26786 17.4543978 199.240853 12.5780282 200 12.5780282 200 18.2953137 199.389791 18.2953137 199.389791 13.7468305 199.367451 13.7468305 197.528064 18.2953137 196.977431 18.2953137 195.138044 13.7468305 195.116141 13.7468305 195.116141 18.2953137 194.505495 18.2953137"></polygon>
            </g>
        </g>
    </g>
</svg>