<?xml version="1.0" encoding="UTF-8"?>
<svg width="36px" height="36px" viewBox="0 0 36 36" version="1.1" xmlns="http://www.w3.org/2000/svg" xmlns:xlink="http://www.w3.org/1999/xlink">
    <title>更多</title>
    <g id="页面-1" stroke="none" stroke-width="1" fill="none" fill-rule="evenodd">
        <g id="建木-H5" transform="translate(-684.000000, -219.000000)" fill="#000000" fill-rule="nonzero">
            <g id="更多" transform="translate(684.000000, 219.000000)">
                <rect id="矩形" opacity="0" x="0" y="0" width="36" height="36"></rect>
                <path d="M2.8575,7.80525 L33.1425,7.80525 C34.101,7.80525 34.875,7.04925 34.875,6.11775 C34.875,5.18625 34.101,4.43025 33.1425,4.43025 L2.8575,4.43025 C1.90125,4.43025 1.125,5.18625 1.125,6.11775 C1.125,7.04925 1.90125,7.80525 2.8575,7.80525 Z M33.1425,16.24275 L2.8575,16.24275 C1.899,16.24275 1.125,16.99875 1.125,17.93025 C1.125,18.86175 1.899,19.61775 2.8575,19.61775 L33.1425,19.61775 C34.101,19.61775 34.875,18.86175 34.875,17.93025 C34.875,16.99875 34.0965,16.24275 33.1425,16.24275 L33.1425,16.24275 Z M33.1425,28.19475 L2.8575,28.19475 C1.90125,28.19475 1.125,28.95075 1.125,29.88225 C1.125,30.81375 1.90125,31.56975 2.8575,31.56975 L33.1425,31.56975 C34.101,31.56975 34.875,30.81375 34.875,29.88225 C34.875,28.95075 34.101,28.19475 33.1425,28.19475 Z" id="形状"></path>
            </g>
        </g>
    </g>
</svg>