<?xml version="1.0" encoding="UTF-8"?>
<svg width="750px" height="1031px" viewBox="0 0 750 1031" version="1.1" xmlns="http://www.w3.org/2000/svg" xmlns:xlink="http://www.w3.org/1999/xlink">
    <title>编组 2</title>
    <defs>
        <linearGradient x1="54.3125632%" y1="100%" x2="54.3125632%" y2="11.8971523%" id="linearGradient-1">
            <stop stop-color="#ECF6FF" offset="0%"></stop>
            <stop stop-color="#CCE3FF" offset="36.289882%"></stop>
            <stop stop-color="#E8F3FF" offset="100%"></stop>
        </linearGradient>
        <polygon id="path-2" points="0 0.0350664267 105.146575 0.0350664267 105.146575 86.9130812 0 86.9130812"></polygon>
        <polygon id="path-4" points="0.201337533 0.0250070462 312.995352 0.0250070462 312.995352 111.292208 0.201337533 111.292208"></polygon>
        <polygon id="path-6" points="0 0.0350664267 105.146575 0.0350664267 105.146575 86.9130812 0 86.9130812"></polygon>
        <polygon id="path-8" points="0.201337533 0.0250070462 312.995352 0.0250070462 312.995352 111.292208 0.201337533 111.292208"></polygon>
        <linearGradient x1="51.624279%" y1="33.8965361%" x2="51.624279%" y2="100%" id="linearGradient-10">
            <stop stop-color="#F5FAFF" offset="0%"></stop>
            <stop stop-color="#D3E9FE" offset="75.6067369%"></stop>
            <stop stop-color="#F6FBFF" offset="100%"></stop>
        </linearGradient>
    </defs>
    <g id="页面-1" stroke="none" stroke-width="1" fill="none" fill-rule="evenodd">
        <g id="建木-H5" transform="translate(0.000000, -3779.000000)">
            <g id="编组-2" transform="translate(-37.000000, 3779.000000)">
                <path d="M37,51.1490043 C199.455311,75.6967542 325.38696,77.9340591 414.794946,57.8609193 C504.202933,37.7877795 628.271284,61.7609539 787,129.780443 L784.662763,873 L37.1363388,873 L37,51.1490043 Z" id="蒙版备份" fill="url(#linearGradient-1)" opacity="0.146234557" transform="translate(412.000000, 462.000000) scale(-1, 1) translate(-412.000000, -462.000000) "></path>
                <g id="编组" opacity="0.0658839026" transform="translate(412.000000, 270.500000) scale(-1, -1) translate(-412.000000, -270.500000) translate(0.000000, 61.000000)">
                    <path d="M393.463468,221.026637 L312.505749,185.999301 C308.820172,184.404507 304.237431,184.398787 300.545478,185.984526 L254.302324,205.837957 C250.227785,207.586226 245.17,207.581459 241.103112,205.826518 L210.501982,192.620607 C206.809391,191.027242 202.222824,191.027242 198.530233,192.620607 L180.821608,200.263325 L180.194805,199.451629 L197.904067,191.808911 C201.982432,190.048726 207.049782,190.048726 211.128785,191.808911 L241.729278,205.014822 C245.411667,206.603897 249.989306,206.608186 253.678072,205.025307 L299.921863,185.1714 C303.99959,183.421225 309.063114,183.426468 313.133828,185.188559 L394.090909,220.215894 L393.463468,221.026637 Z" id="Fill-1" fill="#4F9DED"></path>
                    <path d="M404.373673,199.999767 L288.206617,150.15945 C286.948882,149.620193 286.167562,148.615557 286.168831,147.538455 C286.168831,146.461823 286.952058,145.458128 288.211699,144.919342 L303.486825,138.386147 L304.110611,139.187973 L288.835485,145.720698 C287.961422,146.094319 287.418945,146.791683 287.41831,147.538925 C287.417039,148.287109 287.958882,148.984002 288.832309,149.359035 L405,199.199351 L404.373673,199.999767 Z" id="Fill-3" fill="#4F9DED"></path>
                    <path d="M163.196558,193.153809 L162.570198,192.35318 L231.687031,162.660235 C232.560504,162.285573 233.102375,161.588023 233.101105,160.84011 C233.100469,160.092197 232.556692,159.395117 231.683219,159.021396 L145.995169,122.36613 C144.734826,121.826729 143.951559,120.822295 143.951559,119.744434 C143.951559,118.666103 144.734826,117.661198 145.995169,117.122738 L170.216743,106.761155 C171.092122,106.386492 171.635263,105.688942 171.634628,104.940088 C171.633993,104.190763 171.090216,103.493684 170.214202,103.119492 L29.025974,42.8553113 L29.6497928,42.0537407 L170.837385,102.317921 C172.098998,102.85591 172.883536,103.860345 172.884171,104.939147 C172.884807,106.017949 172.102175,107.023325 170.840561,107.562726 L146.618987,117.924309 C145.744244,118.298501 145.201102,118.99558 145.201102,119.744434 C145.201102,120.492818 145.744244,121.189897 146.619623,121.56456 L232.307038,158.219825 C233.565475,158.758756 234.350649,159.762249 234.350649,160.839168 C234.350649,161.916558 233.571192,162.921463 232.314026,163.460864 L163.196558,193.153809 Z" id="Fill-5" fill="#4F9DED"></path>
                    <g transform="translate(0.194805, 106.601343)">
                        <mask id="mask-3" fill="white">
                            <use xlink:href="#path-2"></use>
                        </mask>
                        <g id="Clip-8"></g>
                        <path d="M104.518723,86.9130812 L35.4178974,57.5030011 C34.1487664,56.9633363 33.361074,55.9575332 33.361074,54.877261 C33.361074,53.7974601 34.1487664,52.791657 35.4178974,52.2519922 L73.8268519,35.9041561 C74.7072516,35.5299257 75.2545444,34.8314251 75.2545444,34.0815503 C75.2545444,33.3321468 74.7072516,32.6336462 73.8268519,32.2589445 L-0.00012787214,0.837729392 L0.628363694,0.0350664267 L74.4553435,31.4562815 C75.7238351,31.9959463 76.5115275,33.0017494 76.5115275,34.0815503 C76.5115275,35.1618224 75.7238351,36.1676256 74.4553435,36.706819 L36.0457496,53.0546552 C35.1653499,53.4293569 34.6186965,54.1278575 34.6186965,54.877261 C34.6186965,55.6271358 35.1653499,56.3256364 36.0457496,56.6998668 L105.146575,86.1104182 L104.518723,86.9130812 Z" id="Fill-7" fill="#4F9DED" mask="url(#mask-3)"></path>
                    </g>
                    <path d="M192.79892,272.37132 L157.706571,257.265448 C156.439396,256.71947 155.651291,255.70972 155.649351,254.630118 C155.648705,253.550516 156.43487,252.539815 157.701399,251.992411 L189.16161,238.40663 C190.042167,238.026489 190.588475,237.324177 190.585889,236.573398 C190.584596,235.822618 190.035702,235.121733 189.152558,234.743492 L170.428752,226.724407 L171.069451,225.916607 L189.793258,233.936166 C191.063665,234.481194 191.855003,235.490945 191.857589,236.571497 C191.860176,237.653 191.07401,238.664651 189.805541,239.21253 L158.345331,252.798311 C157.466713,253.177977 156.920405,253.879813 156.921052,254.629167 C156.921698,255.378996 157.469299,256.080357 158.34921,256.459073 L193.441558,271.564945 L192.79892,272.37132 Z" id="Fill-9" fill="#4F9DED"></path>
                    <path d="M701.256594,234.718552 L654.638945,214.62308 C653.383996,214.081394 652.606549,213.077419 652.610988,212.001563 C652.615427,210.926178 653.400483,209.925491 654.660505,209.389913 L687.733075,195.332384 C688.609446,194.959828 689.154166,194.264046 689.155435,193.515645 C689.156703,192.767244 688.613885,192.070053 687.740684,191.696087 L646.168831,173.905482 L646.792818,173.104932 L688.364037,190.896008 C689.622791,191.434405 690.404042,192.43885 690.402774,193.517054 C690.400238,194.594789 689.615181,195.597354 688.353257,196.133403 L655.280687,210.190932 C654.406218,210.563018 653.861498,211.257861 653.858327,212.004382 C653.855156,212.751373 654.394804,213.449035 655.266102,213.82441 L701.883117,233.920352 L701.256594,234.718552 Z" id="Fill-11" fill="#4F9DED"></path>
                    <path d="M641.339782,137.89715 L640.714286,137.101039 L711.408096,106.986438 C712.282138,106.613422 712.825633,105.920277 712.824998,105.176117 C712.824362,104.431958 712.280866,103.738812 711.406189,103.367201 L693.051301,95.5647558 C691.795858,95.0307392 691.012717,94.0366541 691.00636,92.9695571 C691.000639,91.9024601 691.77361,90.9036947 693.023332,90.3626578 L820.470772,35.2077829 L821.103896,36.0010853 L693.656456,91.1559602 C692.788135,91.5317843 692.252267,92.2249293 692.256717,92.9658129 C692.259895,93.7066965 692.804026,94.3975014 693.675526,94.7677092 L712.030414,102.570154 C713.290941,103.105575 714.074719,104.103872 714.075355,105.176117 C714.07599,106.246959 713.293484,107.246192 712.034228,107.782549 L641.339782,137.89715 Z" id="Fill-13" fill="#4F9DED"></path>
                    <g transform="translate(304.090909, 0.000000)">
                        <mask id="mask-5" fill="white">
                            <use xlink:href="#path-4"></use>
                        </mask>
                        <g id="Clip-16"></g>
                        <path d="M312.37394,111.292208 L259.77443,89.0689648 C256.07655,87.5076758 251.495308,87.5223026 247.817186,89.1104859 L232.112348,95.8883391 C227.990633,97.6666704 222.874658,97.6610084 218.759317,95.8713532 L0.201337533,0.824760694 L0.836133934,0.0250070462 L219.394113,95.0715996 C223.118762,96.6913956 227.750991,96.6965857 231.481376,95.0862263 L247.186213,88.308845 C251.24993,86.5555207 256.310455,86.5375912 260.395205,88.2635492 L312.995352,110.486792 L312.37394,111.292208 Z" id="Fill-15" fill="#4F9DED" mask="url(#mask-5)"></path>
                    </g>
                    <path d="M586.715239,137.89715 L520.498842,110.316165 C516.836293,108.791129 512.286297,108.789738 508.62311,110.314774 L481.283634,121.69364 C477.19297,123.395855 472.125668,123.378694 468.057301,121.647258 L416.949159,99.8974039 C413.273868,98.3334069 408.692656,98.3143903 404.993793,99.8487029 L381.464031,109.604667 L380.844156,108.812001 L404.374555,99.0560366 C408.460123,97.3612427 413.521691,97.3821146 417.581139,99.1103034 L468.68928,120.860158 C472.372853,122.426938 476.959163,122.443635 480.661211,120.901902 L508.000687,109.523035 C512.047393,107.838445 517.074559,107.838909 521.120628,109.524427 L587.337662,137.105411 L586.715239,137.89715 Z" id="Fill-17" fill="#4F9DED"></path>
                    <path d="M457.438853,229.339586 L456.818182,228.534665 L498.540121,210.725376 C499.416923,210.351005 499.96215,209.651361 499.963418,208.898843 C499.96532,208.146796 499.423263,207.446208 498.548363,207.070421 L489.633262,203.237959 C488.381141,202.698827 487.600071,201.696099 487.594365,200.620195 C487.589293,199.54382 488.358951,198.535899 489.605366,197.99063 L526.824742,181.696292 C530.898731,179.913663 535.971248,179.897612 540.063623,181.65758 L541.873017,182.43512 C545.544426,184.012859 550.104682,184.013803 553.776091,182.43512 L577.753416,172.126938 L578.376623,172.930915 L554.398665,183.239568 C550.343695,184.983013 545.305414,184.983013 541.24981,183.239568 L539.441049,182.461557 C535.736673,180.869182 531.144718,180.882873 527.456191,182.496492 L490.236816,198.79083 C489.37206,199.169449 488.836976,199.869093 488.841414,200.616419 C488.844584,201.363744 489.387275,202.060083 490.257103,202.433982 L499.170937,206.266444 C500.431299,206.807937 501.212369,207.817274 501.210467,208.900731 C501.207931,209.984188 500.422424,210.991637 499.160793,211.530297 L457.438853,229.339586 Z" id="Fill-19" fill="#4F9DED"></path>
                    <path d="M757.052983,275.794299 L756.428571,274.992264 L797.039508,257.766153 C797.918781,257.393595 798.466096,256.69646 798.468008,255.948521 C798.469919,255.200582 797.92579,254.502036 797.048428,254.126655 L784.668521,248.831343 C783.405682,248.290852 782.623256,247.286074 782.625168,246.208854 C782.627716,245.132104 783.413965,244.129208 784.677442,243.591538 L821.648316,227.872595 L822.272727,228.673689 L785.303127,244.392633 C784.425766,244.766132 783.879725,245.462796 783.87845,246.210735 C783.876539,246.958204 784.420031,247.65628 785.296756,248.030719 L797.677299,253.326502 C798.940139,253.867464 799.723202,254.872242 799.72129,255.949932 C799.718104,257.028093 798.929945,258.03099 797.663282,258.568188 L757.052983,275.794299 Z" id="Fill-21" fill="#4F9DED"></path>
                    <path d="M745.89199,143.765113 C743.636479,143.765113 741.382234,143.340783 739.368544,142.491657 L703.413306,127.328617 C699.789802,125.801029 695.283212,125.792636 691.650212,127.308566 L653.795231,143.102972 L653.181818,142.305138 L691.037433,126.510733 C695.050887,124.835794 700.029724,124.84512 704.031784,126.532649 L739.987021,141.695688 C743.645975,143.238664 748.185483,143.232602 751.834942,141.679834 L822.819283,111.491312 L823.441558,112.285416 L752.456584,142.473938 C750.434031,143.334255 748.162694,143.765113 745.89199,143.765113" id="Fill-23" fill="#4F9DED"></path>
                    <path d="M259.12687,323.227007 L258.506494,322.426461 L328.134554,292.513407 C329.00447,292.139694 329.545246,291.443506 329.545246,290.695609 C329.545246,289.948182 329.00447,289.251994 328.133922,288.877811 L322.139901,286.302244 C320.889672,285.764943 320.110728,284.764143 320.107569,283.690011 C320.105042,282.615408 320.877669,281.612728 322.125371,281.071196 L378.270674,256.723417 L378.896104,257.522552 L322.750801,281.869862 C321.884675,282.245456 321.347689,282.942114 321.350216,283.68813 C321.352112,284.434147 321.892888,285.128925 322.760909,285.501698 L328.755562,288.077265 C330.008949,288.615976 330.787894,289.619126 330.787894,290.695609 C330.787894,291.772562 330.008949,292.776182 328.755562,293.313953 L259.12687,323.227007 Z" id="Fill-25" fill="#4F9DED"></path>
                    <path d="M318.80242,379.950657 C316.520732,379.950657 314.239683,379.513273 312.203009,378.638983 L237.467532,346.53322 L238.093465,345.720868 L312.828941,377.826631 C316.52137,379.413218 321.104525,379.40893 324.792488,377.819484 L394.359712,347.827742 C398.438164,346.070108 403.505603,346.068202 407.58597,347.824883 L454.480519,368.014088 L453.853949,368.825487 L406.959399,348.636282 C403.265694,347.046836 398.679349,347.046836 394.986282,348.63914 L325.419058,378.630883 C323.379832,379.510415 321.091126,379.950657 318.80242,379.950657" id="Fill-27" fill="#4F9DED"></path>
                    <path d="M299.193115,360.879774 C296.921766,360.879774 294.652329,360.454034 292.625205,359.602083 L251.103896,342.155604 L251.726891,341.35611 L293.248199,358.80259 C296.92878,360.350057 301.497622,360.3435 305.171188,358.789007 L492.910758,279.31081 C496.989239,277.58396 502.053545,277.586301 506.1282,279.314088 L542.759922,294.848246 C546.446241,296.41117 551.028475,296.414448 554.717345,294.854335 L624.529129,265.347538 C628.597408,263.629586 633.650235,263.628181 637.718513,265.346133 L666.818182,277.637353 L666.192636,278.43591 L637.093605,266.14469 C633.412387,264.589728 628.837168,264.590197 625.154037,266.146095 L555.34289,295.652892 C551.267598,297.375527 546.205205,297.37178 542.133739,295.645866 L505.502016,280.111709 C501.813146,278.547848 497.228362,278.545507 493.537579,280.10843 L305.797372,359.586627 C303.761957,360.448413 301.477217,360.879774 299.193115,360.879774" id="Fill-29" fill="#4F9DED"></path>
                    <path d="M497.105657,352.566826 L426.120788,321.927406 C424.856709,321.381839 424.078426,320.365681 424.090909,319.275491 C424.104327,318.185773 424.905352,317.179988 426.181434,316.650454 L446.251919,308.327857 C447.140122,307.959116 447.696671,307.258886 447.702988,306.500186 C447.709305,305.740542 447.16476,305.035126 446.282242,304.65884 L429.841639,297.642395 C428.577561,297.102487 427.793592,296.091516 427.795487,295.004627 C427.798014,293.917738 428.585773,292.909124 429.851747,292.372517 L470.828488,274.995027 C471.705952,274.622986 472.253025,273.924642 472.256183,273.1716 C472.259974,272.41903 471.719218,271.717857 470.846808,271.3411 L445.620196,260.460423 L446.241812,259.657399 L471.468424,270.538075 C472.725554,271.080341 473.503837,272.090841 473.498783,273.175372 C473.493098,274.259432 472.705339,275.265217 471.441892,275.800881 L430.46515,293.178371 C429.586423,293.551355 429.03935,294.251585 429.038087,295.006513 C429.036192,295.76097 429.580737,296.462614 430.458833,296.837013 L446.898804,303.85393 C448.169832,304.396195 448.9538,305.412354 448.945588,306.505373 C448.93548,307.599334 448.134455,308.607477 446.855215,309.137954 L426.784729,317.461024 C425.898421,317.828349 425.341873,318.527165 425.333661,319.283979 C425.324817,320.040793 425.86494,320.74621 426.742404,321.124381 L497.727273,351.764273 L497.105657,352.566826 Z" id="Fill-31" fill="#4F9DED"></path>
                    <path d="M693.468975,265.525362 L581.794408,217.677226 C580.537872,217.138697 579.755705,216.133662 579.755071,215.055662 C579.755071,213.97625 580.535972,212.971215 581.792508,212.432215 L604.137174,202.843664 C605.011809,202.468482 605.553943,201.768959 605.55141,201.018125 C605.548877,200.267291 605.002309,199.569651 604.125774,199.197293 L572.248793,185.670041 C570.971991,185.129158 570.18539,184.114237 570.194805,183.021644 C570.20439,181.929051 571.008725,180.921663 572.29376,180.392078 L585.236579,175.06092 L585.840147,175.871068 L572.897328,181.202225 C572.00496,181.569404 571.446359,182.269398 571.440025,183.027764 C571.433692,183.78613 571.979626,184.490361 572.865661,184.866484 L604.742642,198.393736 C606.006144,198.929441 606.793378,199.934476 606.796545,201.0153 C606.800345,202.097066 606.020077,203.104455 604.759742,203.645338 L582.414442,213.233889 C581.542341,213.608129 581.00084,214.305769 581.00084,215.055191 C581.001473,215.803672 581.543607,216.501312 582.416342,216.875552 L694.090909,264.723688 L693.468975,265.525362 Z" id="Fill-33" fill="#4F9DED"></path>
                    <path d="M531.080601,361.368771 L530.454545,360.565402 L574.160107,342.085071 C578.256004,340.352996 583.336708,340.362891 587.418537,342.10863 L607.954299,350.888684 C611.695922,352.488355 616.338579,352.479403 620.069331,350.860884 L641.297655,341.65535 C642.17183,341.276518 642.710276,340.576809 642.70516,339.829981 C642.699405,339.082682 642.150088,338.388627 641.270157,338.016392 L627.570483,332.228831 C626.29663,331.69121 625.504309,330.684759 625.50239,329.602448 C625.501751,328.520609 626.292154,327.512745 627.564728,326.973238 L681.386292,304.156124 L682.012987,304.959494 L628.191422,327.776137 C627.308294,328.150729 626.759617,328.850438 626.760256,329.601506 C626.760896,330.353045 627.310852,331.051812 628.195899,331.425462 L641.895573,337.213022 C643.162391,337.747816 643.954713,338.748613 643.963026,339.824327 C643.9707,340.900984 643.193726,341.907905 641.93586,342.454008 L620.707536,351.660013 C616.586699,353.447216 611.458034,353.458524 607.323767,351.690169 L586.787365,342.910115 C583.091146,341.329291 578.492613,341.321752 574.786162,342.88844 L531.080601,361.368771 Z" id="Fill-35" fill="#4F9DED"></path>
                    <path d="M786.082425,315.403055 C783.774335,315.403055 781.466887,314.947148 779.408964,314.035334 L750.194805,301.084418 L750.82826,300.244148 L780.041775,313.194571 C783.765974,314.846 788.394374,314.846493 792.119859,313.196051 L801.608817,308.99322 C805.722093,307.170579 810.832818,307.170579 814.946736,308.99322 L821.493506,311.893459 L820.861981,312.733729 L814.314568,309.83349 C810.590369,308.184528 805.964542,308.183541 802.240343,309.83349 L792.751384,314.036321 C790.694747,314.947641 788.387943,315.403055 786.082425,315.403055" id="Fill-37" fill="#4F9DED"></path>
                    <path d="M791.807737,196.576788 C789.550274,196.576788 787.292174,196.169594 785.266328,195.352492 L727.769952,172.165535 C724.101736,170.686065 719.548528,170.691494 715.887968,172.180465 L691.948532,181.916915 C687.951075,183.542522 682.965899,183.566049 678.937816,181.979804 L653.181818,171.835256 L653.791167,171.057968 L679.547803,181.202517 C683.193049,182.639005 687.707336,182.616383 691.324507,181.14551 L715.263305,171.40906 C719.30734,169.763998 724.337819,169.758116 728.390148,171.39232 L785.887162,194.579277 C789.630032,196.088608 794.253427,196.05377 797.952271,194.487885 L822.798392,183.964194 L823.441558,184.727908 L798.595437,195.251147 C796.510889,196.134304 794.16027,196.576788 791.807737,196.576788" id="Fill-39" fill="#4F9DED"></path>
                    <path d="M424.232151,216.136667 L423.591317,215.340188 L511.431,177.074322 C512.295678,176.697514 512.832904,176.003715 512.832904,175.263757 C512.832265,174.523328 512.295039,173.83 511.431,173.453662 L485.54565,162.180959 C484.289564,161.634115 483.515703,160.627094 483.525296,159.552247 C483.536168,158.4774 484.328577,157.478386 485.594896,156.94426 L496.993045,152.135239 C497.878829,151.761727 498.429486,151.062276 498.428846,150.310543 C498.428846,149.557867 497.87819,148.858887 496.992406,148.485376 L437.405066,123.35883 C433.764719,121.824276 429.232192,121.808262 425.575856,123.315968 L390.05561,137.953101 C385.94647,139.645915 380.876717,139.601169 376.824496,137.835349 L376.558442,137.719951 L377.197997,136.922059 L377.464691,137.037927 C381.133179,138.636538 385.722625,138.678458 389.440998,137.144376 L424.961244,122.507713 C429.002592,120.84269 434.010308,120.860117 438.029271,122.554814 L497.616612,147.68136 C498.893163,148.220196 499.686212,149.226747 499.686212,150.310072 C499.686851,151.393397 498.894443,152.400889 497.617251,152.939254 L486.219741,157.748275 C485.340993,158.11849 484.790336,158.81276 484.783301,159.558841 C484.776266,160.304922 485.314131,161.003903 486.185205,161.383537 L512.070555,172.655769 C513.315768,173.198374 514.090909,174.197388 514.090909,175.263286 C514.090909,176.329183 513.317048,177.328668 512.071834,177.871273 L424.232151,216.136667 Z" id="Fill-41" fill="#4F9DED"></path>
                    <path d="M678.348379,418.581419 L677.727273,417.777331 L771.507973,377.419037 C772.379546,377.04367 772.920958,376.344402 772.92159,375.592724 C772.922223,374.841991 772.381443,374.142251 771.509871,373.766412 L742.303335,361.178643 C741.053533,360.639437 740.274304,359.635626 740.268612,358.558159 C740.264817,357.480219 741.035823,356.472158 742.281831,355.927759 L793.91776,333.354764 C794.783641,332.976092 795.31936,332.276352 795.314933,331.527979 C795.311771,330.779134 794.769093,330.081755 793.900051,329.707805 L740.869478,306.9162 L741.489319,306.112112 L794.520524,328.903717 C795.772224,329.441979 796.55335,330.44579 796.558442,331.524202 C796.564103,332.602142 795.793729,333.610674 794.546456,334.156018 L742.910527,356.729013 C742.045279,357.107213 741.509559,357.806481 741.512722,358.554853 C741.515884,359.303226 742.057929,360.000605 742.925706,360.374556 L772.130977,372.962325 C773.387104,373.503419 774.166333,374.511479 774.1657,375.593669 C774.165068,376.675386 773.384574,377.683446 772.129079,378.223124 L678.348379,418.581419 Z" id="Fill-43" fill="#4F9DED"></path>
                    <path d="M120.036858,411.735461 L119.415584,410.937993 L185.343679,382.528274 C186.216991,382.151809 186.755092,381.451857 186.747531,380.702209 C186.7406,379.951624 186.189897,379.257298 185.310914,378.89021 L154.583704,366.069315 C153.324144,365.543764 152.530855,364.54986 152.513212,363.475318 C152.496199,362.401246 153.256724,361.393277 154.498641,360.845223 L178.803294,350.121841 L179.434649,350.915089 L155.129996,361.638471 C154.268026,362.018686 153.740007,362.71817 153.752609,363.464067 C153.76395,364.209964 154.314653,364.90054 155.189225,365.265284 L185.916435,378.086647 C187.182926,378.615011 187.976216,379.614541 187.987013,380.695646 C187.996379,381.776282 187.221992,382.783782 185.965583,383.325741 L120.036858,411.735461 Z" id="Fill-45" fill="#4F9DED"></path>
                    <path d="M18.3537836,385.818621 L17.7272727,385.024494 L49.6933633,371.539729 C53.8581932,369.782205 59.0080871,369.817178 63.1295334,371.628794 L76.1082612,377.336434 C79.8424447,378.978779 84.5074625,379.008157 88.2805637,377.413375 L167.878069,343.76488 L168.506494,344.55854 L88.9083505,378.206569 C84.7403306,379.968756 79.5878848,379.935648 75.4619725,378.122167 L62.4826067,372.414993 C58.7522512,370.773581 54.0929753,370.742804 50.3198742,372.333855 L18.3537836,385.818621 Z" id="Fill-47" fill="#4F9DED"></path>
                    <path d="M18.3606937,287.04123 L17.7272727,286.250643 L80.2171275,259.783884 C81.0911204,259.41395 81.6349667,258.727596 81.6362463,257.992847 C81.6388056,257.257634 81.099438,256.569883 80.2273646,256.197158 L67.8743766,250.911996 C66.6190515,250.375011 65.8410314,249.383868 65.8448704,248.324789 C65.8487093,247.265709 66.6324877,246.276893 67.8916518,245.745026 L105.53669,229.828583 L106.168831,230.61917 L68.5237931,246.535614 C67.6498001,246.905547 67.1059539,247.591902 67.1033946,248.327581 C67.1008353,249.062329 67.6402028,249.750545 68.5116365,250.12327 L80.8652642,255.408432 C82.1199496,255.945417 82.8973298,256.93656 82.8947705,257.994709 C82.8915714,259.053789 82.1084328,260.042139 80.8499086,260.574471 L18.3606937,287.04123 Z" id="Fill-49" fill="#4F9DED"></path>
                    <path d="M37.8725128,249.877459 C35.6173172,249.877459 33.3621217,249.445798 31.3527531,248.582477 L17.7272727,242.731443 L18.3446694,241.934999 L31.9701498,247.786033 C35.5990845,249.344314 40.1107331,249.348523 43.7428113,247.800064 L96.2026712,225.42761 L96.8181818,226.224989 L44.3576932,248.597443 C42.3571266,249.450943 40.1145054,249.877459 37.8725128,249.877459" id="Fill-51" fill="#4F9DED"></path>
                    <path d="M268.05306,139.853138 C265.770418,139.853138 263.487777,139.418484 261.452113,138.548707 L239.40355,129.131378 C238.14065,128.591712 237.355793,127.586782 237.355793,126.50839 C237.355793,125.429998 238.14065,124.425069 239.402914,123.885402 L269.16701,111.17262 C270.043529,110.798715 270.587773,110.10035 270.587773,109.351598 C270.587773,108.602845 270.043529,107.90448 269.16701,107.530104 L250.744194,99.6611392 C247.057975,98.0868753 242.478688,98.0868753 238.79247,99.6611392 L227.149469,104.634457 C223.078779,106.374011 218.018265,106.37307 213.947575,104.634457 L174.491481,87.7818746 C173.227944,87.2426786 172.443724,86.2377492 172.443724,85.1584154 C172.443724,84.0800234 173.227944,83.0755649 174.490845,82.5354271 L185.20513,77.9595604 C186.081013,77.5851841 186.625257,76.8877612 186.625257,76.1390087 C186.625893,75.3902562 186.082286,74.6923623 185.205767,74.3179861 L57.8571429,19.8728481 L58.4841373,19.0708824 L185.832125,73.5160203 C187.093752,74.0556872 187.877972,75.0610876 187.877336,76.1394796 C187.877336,77.2174006 187.092479,78.2223301 185.830851,78.761997 L175.116566,83.3373928 C174.240047,83.71224 173.695803,84.4101338 173.695803,85.1584154 C173.695803,85.9076388 174.240047,86.6055327 175.116566,86.9799089 L214.57266,103.832491 C218.258878,105.407226 222.838166,105.407226 226.524384,103.832491 L238.167385,98.8591735 C242.239348,97.1196189 247.299225,97.1205607 251.369278,98.8591735 L269.792095,106.728138 C271.055632,107.267805 271.839852,108.272264 271.839852,109.351598 C271.839852,110.430931 271.055632,111.43539 269.792095,111.974586 L240.029272,124.687367 C239.152753,125.062215 238.607872,125.759638 238.607872,126.50839 C238.607872,127.257143 239.152753,127.954566 240.029908,128.329413 L262.077198,137.746741 C265.763416,139.321476 270.342704,139.321476 274.028922,137.746741 L287.491162,131.996416 L288.116883,132.798853 L274.654007,138.548707 C272.618344,139.418484 270.335702,139.853138 268.05306,139.853138" id="Fill-53" fill="#4F9DED"></path>
                </g>
                <g id="编组备份-2" opacity="0.0658839026" transform="translate(412.000000, 635.500000) scale(1, -1) translate(-412.000000, -635.500000) translate(0.000000, 426.000000)">
                    <path d="M393.463468,221.026637 L312.505749,185.999301 C308.820172,184.404507 304.237431,184.398787 300.545478,185.984526 L254.302324,205.837957 C250.227785,207.586226 245.17,207.581459 241.103112,205.826518 L210.501982,192.620607 C206.809391,191.027242 202.222824,191.027242 198.530233,192.620607 L180.821608,200.263325 L180.194805,199.451629 L197.904067,191.808911 C201.982432,190.048726 207.049782,190.048726 211.128785,191.808911 L241.729278,205.014822 C245.411667,206.603897 249.989306,206.608186 253.678072,205.025307 L299.921863,185.1714 C303.99959,183.421225 309.063114,183.426468 313.133828,185.188559 L394.090909,220.215894 L393.463468,221.026637 Z" id="Fill-1" fill="#4F9DED"></path>
                    <path d="M404.373673,199.999767 L288.206617,150.15945 C286.948882,149.620193 286.167562,148.615557 286.168831,147.538455 C286.168831,146.461823 286.952058,145.458128 288.211699,144.919342 L303.486825,138.386147 L304.110611,139.187973 L288.835485,145.720698 C287.961422,146.094319 287.418945,146.791683 287.41831,147.538925 C287.417039,148.287109 287.958882,148.984002 288.832309,149.359035 L405,199.199351 L404.373673,199.999767 Z" id="Fill-3" fill="#4F9DED"></path>
                    <path d="M163.196558,193.153809 L162.570198,192.35318 L231.687031,162.660235 C232.560504,162.285573 233.102375,161.588023 233.101105,160.84011 C233.100469,160.092197 232.556692,159.395117 231.683219,159.021396 L145.995169,122.36613 C144.734826,121.826729 143.951559,120.822295 143.951559,119.744434 C143.951559,118.666103 144.734826,117.661198 145.995169,117.122738 L170.216743,106.761155 C171.092122,106.386492 171.635263,105.688942 171.634628,104.940088 C171.633993,104.190763 171.090216,103.493684 170.214202,103.119492 L29.025974,42.8553113 L29.6497928,42.0537407 L170.837385,102.317921 C172.098998,102.85591 172.883536,103.860345 172.884171,104.939147 C172.884807,106.017949 172.102175,107.023325 170.840561,107.562726 L146.618987,117.924309 C145.744244,118.298501 145.201102,118.99558 145.201102,119.744434 C145.201102,120.492818 145.744244,121.189897 146.619623,121.56456 L232.307038,158.219825 C233.565475,158.758756 234.350649,159.762249 234.350649,160.839168 C234.350649,161.916558 233.571192,162.921463 232.314026,163.460864 L163.196558,193.153809 Z" id="Fill-5" fill="#4F9DED"></path>
                    <g id="编组" transform="translate(0.194805, 106.601343)">
                        <mask id="mask-7" fill="white">
                            <use xlink:href="#path-6"></use>
                        </mask>
                        <g id="Clip-8"></g>
                        <path d="M104.518723,86.9130812 L35.4178974,57.5030011 C34.1487664,56.9633363 33.361074,55.9575332 33.361074,54.877261 C33.361074,53.7974601 34.1487664,52.791657 35.4178974,52.2519922 L73.8268519,35.9041561 C74.7072516,35.5299257 75.2545444,34.8314251 75.2545444,34.0815503 C75.2545444,33.3321468 74.7072516,32.6336462 73.8268519,32.2589445 L-0.00012787214,0.837729392 L0.628363694,0.0350664267 L74.4553435,31.4562815 C75.7238351,31.9959463 76.5115275,33.0017494 76.5115275,34.0815503 C76.5115275,35.1618224 75.7238351,36.1676256 74.4553435,36.706819 L36.0457496,53.0546552 C35.1653499,53.4293569 34.6186965,54.1278575 34.6186965,54.877261 C34.6186965,55.6271358 35.1653499,56.3256364 36.0457496,56.6998668 L105.146575,86.1104182 L104.518723,86.9130812 Z" id="Fill-7" fill="#4F9DED" mask="url(#mask-7)"></path>
                    </g>
                    <path d="M192.79892,272.37132 L157.706571,257.265448 C156.439396,256.71947 155.651291,255.70972 155.649351,254.630118 C155.648705,253.550516 156.43487,252.539815 157.701399,251.992411 L189.16161,238.40663 C190.042167,238.026489 190.588475,237.324177 190.585889,236.573398 C190.584596,235.822618 190.035702,235.121733 189.152558,234.743492 L170.428752,226.724407 L171.069451,225.916607 L189.793258,233.936166 C191.063665,234.481194 191.855003,235.490945 191.857589,236.571497 C191.860176,237.653 191.07401,238.664651 189.805541,239.21253 L158.345331,252.798311 C157.466713,253.177977 156.920405,253.879813 156.921052,254.629167 C156.921698,255.378996 157.469299,256.080357 158.34921,256.459073 L193.441558,271.564945 L192.79892,272.37132 Z" id="Fill-9" fill="#4F9DED"></path>
                    <path d="M701.256594,234.718552 L654.638945,214.62308 C653.383996,214.081394 652.606549,213.077419 652.610988,212.001563 C652.615427,210.926178 653.400483,209.925491 654.660505,209.389913 L687.733075,195.332384 C688.609446,194.959828 689.154166,194.264046 689.155435,193.515645 C689.156703,192.767244 688.613885,192.070053 687.740684,191.696087 L646.168831,173.905482 L646.792818,173.104932 L688.364037,190.896008 C689.622791,191.434405 690.404042,192.43885 690.402774,193.517054 C690.400238,194.594789 689.615181,195.597354 688.353257,196.133403 L655.280687,210.190932 C654.406218,210.563018 653.861498,211.257861 653.858327,212.004382 C653.855156,212.751373 654.394804,213.449035 655.266102,213.82441 L701.883117,233.920352 L701.256594,234.718552 Z" id="Fill-11" fill="#4F9DED"></path>
                    <path d="M641.339782,137.89715 L640.714286,137.101039 L711.408096,106.986438 C712.282138,106.613422 712.825633,105.920277 712.824998,105.176117 C712.824362,104.431958 712.280866,103.738812 711.406189,103.367201 L693.051301,95.5647558 C691.795858,95.0307392 691.012717,94.0366541 691.00636,92.9695571 C691.000639,91.9024601 691.77361,90.9036947 693.023332,90.3626578 L820.470772,35.2077829 L821.103896,36.0010853 L693.656456,91.1559602 C692.788135,91.5317843 692.252267,92.2249293 692.256717,92.9658129 C692.259895,93.7066965 692.804026,94.3975014 693.675526,94.7677092 L712.030414,102.570154 C713.290941,103.105575 714.074719,104.103872 714.075355,105.176117 C714.07599,106.246959 713.293484,107.246192 712.034228,107.782549 L641.339782,137.89715 Z" id="Fill-13" fill="#4F9DED"></path>
                    <g id="编组" transform="translate(304.090909, 0.000000)">
                        <mask id="mask-9" fill="white">
                            <use xlink:href="#path-8"></use>
                        </mask>
                        <g id="Clip-16"></g>
                        <path d="M312.37394,111.292208 L259.77443,89.0689648 C256.07655,87.5076758 251.495308,87.5223026 247.817186,89.1104859 L232.112348,95.8883391 C227.990633,97.6666704 222.874658,97.6610084 218.759317,95.8713532 L0.201337533,0.824760694 L0.836133934,0.0250070462 L219.394113,95.0715996 C223.118762,96.6913956 227.750991,96.6965857 231.481376,95.0862263 L247.186213,88.308845 C251.24993,86.5555207 256.310455,86.5375912 260.395205,88.2635492 L312.995352,110.486792 L312.37394,111.292208 Z" id="Fill-15" fill="#4F9DED" mask="url(#mask-9)"></path>
                    </g>
                    <path d="M586.715239,137.89715 L520.498842,110.316165 C516.836293,108.791129 512.286297,108.789738 508.62311,110.314774 L481.283634,121.69364 C477.19297,123.395855 472.125668,123.378694 468.057301,121.647258 L416.949159,99.8974039 C413.273868,98.3334069 408.692656,98.3143903 404.993793,99.8487029 L381.464031,109.604667 L380.844156,108.812001 L404.374555,99.0560366 C408.460123,97.3612427 413.521691,97.3821146 417.581139,99.1103034 L468.68928,120.860158 C472.372853,122.426938 476.959163,122.443635 480.661211,120.901902 L508.000687,109.523035 C512.047393,107.838445 517.074559,107.838909 521.120628,109.524427 L587.337662,137.105411 L586.715239,137.89715 Z" id="Fill-17" fill="#4F9DED"></path>
                    <path d="M457.438853,229.339586 L456.818182,228.534665 L498.540121,210.725376 C499.416923,210.351005 499.96215,209.651361 499.963418,208.898843 C499.96532,208.146796 499.423263,207.446208 498.548363,207.070421 L489.633262,203.237959 C488.381141,202.698827 487.600071,201.696099 487.594365,200.620195 C487.589293,199.54382 488.358951,198.535899 489.605366,197.99063 L526.824742,181.696292 C530.898731,179.913663 535.971248,179.897612 540.063623,181.65758 L541.873017,182.43512 C545.544426,184.012859 550.104682,184.013803 553.776091,182.43512 L577.753416,172.126938 L578.376623,172.930915 L554.398665,183.239568 C550.343695,184.983013 545.305414,184.983013 541.24981,183.239568 L539.441049,182.461557 C535.736673,180.869182 531.144718,180.882873 527.456191,182.496492 L490.236816,198.79083 C489.37206,199.169449 488.836976,199.869093 488.841414,200.616419 C488.844584,201.363744 489.387275,202.060083 490.257103,202.433982 L499.170937,206.266444 C500.431299,206.807937 501.212369,207.817274 501.210467,208.900731 C501.207931,209.984188 500.422424,210.991637 499.160793,211.530297 L457.438853,229.339586 Z" id="Fill-19" fill="#4F9DED"></path>
                    <path d="M757.052983,275.794299 L756.428571,274.992264 L797.039508,257.766153 C797.918781,257.393595 798.466096,256.69646 798.468008,255.948521 C798.469919,255.200582 797.92579,254.502036 797.048428,254.126655 L784.668521,248.831343 C783.405682,248.290852 782.623256,247.286074 782.625168,246.208854 C782.627716,245.132104 783.413965,244.129208 784.677442,243.591538 L821.648316,227.872595 L822.272727,228.673689 L785.303127,244.392633 C784.425766,244.766132 783.879725,245.462796 783.87845,246.210735 C783.876539,246.958204 784.420031,247.65628 785.296756,248.030719 L797.677299,253.326502 C798.940139,253.867464 799.723202,254.872242 799.72129,255.949932 C799.718104,257.028093 798.929945,258.03099 797.663282,258.568188 L757.052983,275.794299 Z" id="Fill-21" fill="#4F9DED"></path>
                    <path d="M745.89199,143.765113 C743.636479,143.765113 741.382234,143.340783 739.368544,142.491657 L703.413306,127.328617 C699.789802,125.801029 695.283212,125.792636 691.650212,127.308566 L653.795231,143.102972 L653.181818,142.305138 L691.037433,126.510733 C695.050887,124.835794 700.029724,124.84512 704.031784,126.532649 L739.987021,141.695688 C743.645975,143.238664 748.185483,143.232602 751.834942,141.679834 L822.819283,111.491312 L823.441558,112.285416 L752.456584,142.473938 C750.434031,143.334255 748.162694,143.765113 745.89199,143.765113" id="Fill-23" fill="#4F9DED"></path>
                    <path d="M259.12687,323.227007 L258.506494,322.426461 L328.134554,292.513407 C329.00447,292.139694 329.545246,291.443506 329.545246,290.695609 C329.545246,289.948182 329.00447,289.251994 328.133922,288.877811 L322.139901,286.302244 C320.889672,285.764943 320.110728,284.764143 320.107569,283.690011 C320.105042,282.615408 320.877669,281.612728 322.125371,281.071196 L378.270674,256.723417 L378.896104,257.522552 L322.750801,281.869862 C321.884675,282.245456 321.347689,282.942114 321.350216,283.68813 C321.352112,284.434147 321.892888,285.128925 322.760909,285.501698 L328.755562,288.077265 C330.008949,288.615976 330.787894,289.619126 330.787894,290.695609 C330.787894,291.772562 330.008949,292.776182 328.755562,293.313953 L259.12687,323.227007 Z" id="Fill-25" fill="#4F9DED"></path>
                    <path d="M318.80242,379.950657 C316.520732,379.950657 314.239683,379.513273 312.203009,378.638983 L237.467532,346.53322 L238.093465,345.720868 L312.828941,377.826631 C316.52137,379.413218 321.104525,379.40893 324.792488,377.819484 L394.359712,347.827742 C398.438164,346.070108 403.505603,346.068202 407.58597,347.824883 L454.480519,368.014088 L453.853949,368.825487 L406.959399,348.636282 C403.265694,347.046836 398.679349,347.046836 394.986282,348.63914 L325.419058,378.630883 C323.379832,379.510415 321.091126,379.950657 318.80242,379.950657" id="Fill-27" fill="#4F9DED"></path>
                    <path d="M299.193115,360.879774 C296.921766,360.879774 294.652329,360.454034 292.625205,359.602083 L251.103896,342.155604 L251.726891,341.35611 L293.248199,358.80259 C296.92878,360.350057 301.497622,360.3435 305.171188,358.789007 L492.910758,279.31081 C496.989239,277.58396 502.053545,277.586301 506.1282,279.314088 L542.759922,294.848246 C546.446241,296.41117 551.028475,296.414448 554.717345,294.854335 L624.529129,265.347538 C628.597408,263.629586 633.650235,263.628181 637.718513,265.346133 L666.818182,277.637353 L666.192636,278.43591 L637.093605,266.14469 C633.412387,264.589728 628.837168,264.590197 625.154037,266.146095 L555.34289,295.652892 C551.267598,297.375527 546.205205,297.37178 542.133739,295.645866 L505.502016,280.111709 C501.813146,278.547848 497.228362,278.545507 493.537579,280.10843 L305.797372,359.586627 C303.761957,360.448413 301.477217,360.879774 299.193115,360.879774" id="Fill-29" fill="#4F9DED"></path>
                    <path d="M497.105657,352.566826 L426.120788,321.927406 C424.856709,321.381839 424.078426,320.365681 424.090909,319.275491 C424.104327,318.185773 424.905352,317.179988 426.181434,316.650454 L446.251919,308.327857 C447.140122,307.959116 447.696671,307.258886 447.702988,306.500186 C447.709305,305.740542 447.16476,305.035126 446.282242,304.65884 L429.841639,297.642395 C428.577561,297.102487 427.793592,296.091516 427.795487,295.004627 C427.798014,293.917738 428.585773,292.909124 429.851747,292.372517 L470.828488,274.995027 C471.705952,274.622986 472.253025,273.924642 472.256183,273.1716 C472.259974,272.41903 471.719218,271.717857 470.846808,271.3411 L445.620196,260.460423 L446.241812,259.657399 L471.468424,270.538075 C472.725554,271.080341 473.503837,272.090841 473.498783,273.175372 C473.493098,274.259432 472.705339,275.265217 471.441892,275.800881 L430.46515,293.178371 C429.586423,293.551355 429.03935,294.251585 429.038087,295.006513 C429.036192,295.76097 429.580737,296.462614 430.458833,296.837013 L446.898804,303.85393 C448.169832,304.396195 448.9538,305.412354 448.945588,306.505373 C448.93548,307.599334 448.134455,308.607477 446.855215,309.137954 L426.784729,317.461024 C425.898421,317.828349 425.341873,318.527165 425.333661,319.283979 C425.324817,320.040793 425.86494,320.74621 426.742404,321.124381 L497.727273,351.764273 L497.105657,352.566826 Z" id="Fill-31" fill="#4F9DED"></path>
                    <path d="M693.468975,265.525362 L581.794408,217.677226 C580.537872,217.138697 579.755705,216.133662 579.755071,215.055662 C579.755071,213.97625 580.535972,212.971215 581.792508,212.432215 L604.137174,202.843664 C605.011809,202.468482 605.553943,201.768959 605.55141,201.018125 C605.548877,200.267291 605.002309,199.569651 604.125774,199.197293 L572.248793,185.670041 C570.971991,185.129158 570.18539,184.114237 570.194805,183.021644 C570.20439,181.929051 571.008725,180.921663 572.29376,180.392078 L585.236579,175.06092 L585.840147,175.871068 L572.897328,181.202225 C572.00496,181.569404 571.446359,182.269398 571.440025,183.027764 C571.433692,183.78613 571.979626,184.490361 572.865661,184.866484 L604.742642,198.393736 C606.006144,198.929441 606.793378,199.934476 606.796545,201.0153 C606.800345,202.097066 606.020077,203.104455 604.759742,203.645338 L582.414442,213.233889 C581.542341,213.608129 581.00084,214.305769 581.00084,215.055191 C581.001473,215.803672 581.543607,216.501312 582.416342,216.875552 L694.090909,264.723688 L693.468975,265.525362 Z" id="Fill-33" fill="#4F9DED"></path>
                    <path d="M531.080601,361.368771 L530.454545,360.565402 L574.160107,342.085071 C578.256004,340.352996 583.336708,340.362891 587.418537,342.10863 L607.954299,350.888684 C611.695922,352.488355 616.338579,352.479403 620.069331,350.860884 L641.297655,341.65535 C642.17183,341.276518 642.710276,340.576809 642.70516,339.829981 C642.699405,339.082682 642.150088,338.388627 641.270157,338.016392 L627.570483,332.228831 C626.29663,331.69121 625.504309,330.684759 625.50239,329.602448 C625.501751,328.520609 626.292154,327.512745 627.564728,326.973238 L681.386292,304.156124 L682.012987,304.959494 L628.191422,327.776137 C627.308294,328.150729 626.759617,328.850438 626.760256,329.601506 C626.760896,330.353045 627.310852,331.051812 628.195899,331.425462 L641.895573,337.213022 C643.162391,337.747816 643.954713,338.748613 643.963026,339.824327 C643.9707,340.900984 643.193726,341.907905 641.93586,342.454008 L620.707536,351.660013 C616.586699,353.447216 611.458034,353.458524 607.323767,351.690169 L586.787365,342.910115 C583.091146,341.329291 578.492613,341.321752 574.786162,342.88844 L531.080601,361.368771 Z" id="Fill-35" fill="#4F9DED"></path>
                    <path d="M786.082425,315.403055 C783.774335,315.403055 781.466887,314.947148 779.408964,314.035334 L750.194805,301.084418 L750.82826,300.244148 L780.041775,313.194571 C783.765974,314.846 788.394374,314.846493 792.119859,313.196051 L801.608817,308.99322 C805.722093,307.170579 810.832818,307.170579 814.946736,308.99322 L821.493506,311.893459 L820.861981,312.733729 L814.314568,309.83349 C810.590369,308.184528 805.964542,308.183541 802.240343,309.83349 L792.751384,314.036321 C790.694747,314.947641 788.387943,315.403055 786.082425,315.403055" id="Fill-37" fill="#4F9DED"></path>
                    <path d="M791.807737,196.576788 C789.550274,196.576788 787.292174,196.169594 785.266328,195.352492 L727.769952,172.165535 C724.101736,170.686065 719.548528,170.691494 715.887968,172.180465 L691.948532,181.916915 C687.951075,183.542522 682.965899,183.566049 678.937816,181.979804 L653.181818,171.835256 L653.791167,171.057968 L679.547803,181.202517 C683.193049,182.639005 687.707336,182.616383 691.324507,181.14551 L715.263305,171.40906 C719.30734,169.763998 724.337819,169.758116 728.390148,171.39232 L785.887162,194.579277 C789.630032,196.088608 794.253427,196.05377 797.952271,194.487885 L822.798392,183.964194 L823.441558,184.727908 L798.595437,195.251147 C796.510889,196.134304 794.16027,196.576788 791.807737,196.576788" id="Fill-39" fill="#4F9DED"></path>
                    <path d="M424.232151,216.136667 L423.591317,215.340188 L511.431,177.074322 C512.295678,176.697514 512.832904,176.003715 512.832904,175.263757 C512.832265,174.523328 512.295039,173.83 511.431,173.453662 L485.54565,162.180959 C484.289564,161.634115 483.515703,160.627094 483.525296,159.552247 C483.536168,158.4774 484.328577,157.478386 485.594896,156.94426 L496.993045,152.135239 C497.878829,151.761727 498.429486,151.062276 498.428846,150.310543 C498.428846,149.557867 497.87819,148.858887 496.992406,148.485376 L437.405066,123.35883 C433.764719,121.824276 429.232192,121.808262 425.575856,123.315968 L390.05561,137.953101 C385.94647,139.645915 380.876717,139.601169 376.824496,137.835349 L376.558442,137.719951 L377.197997,136.922059 L377.464691,137.037927 C381.133179,138.636538 385.722625,138.678458 389.440998,137.144376 L424.961244,122.507713 C429.002592,120.84269 434.010308,120.860117 438.029271,122.554814 L497.616612,147.68136 C498.893163,148.220196 499.686212,149.226747 499.686212,150.310072 C499.686851,151.393397 498.894443,152.400889 497.617251,152.939254 L486.219741,157.748275 C485.340993,158.11849 484.790336,158.81276 484.783301,159.558841 C484.776266,160.304922 485.314131,161.003903 486.185205,161.383537 L512.070555,172.655769 C513.315768,173.198374 514.090909,174.197388 514.090909,175.263286 C514.090909,176.329183 513.317048,177.328668 512.071834,177.871273 L424.232151,216.136667 Z" id="Fill-41" fill="#4F9DED"></path>
                    <path d="M678.348379,418.581419 L677.727273,417.777331 L771.507973,377.419037 C772.379546,377.04367 772.920958,376.344402 772.92159,375.592724 C772.922223,374.841991 772.381443,374.142251 771.509871,373.766412 L742.303335,361.178643 C741.053533,360.639437 740.274304,359.635626 740.268612,358.558159 C740.264817,357.480219 741.035823,356.472158 742.281831,355.927759 L793.91776,333.354764 C794.783641,332.976092 795.31936,332.276352 795.314933,331.527979 C795.311771,330.779134 794.769093,330.081755 793.900051,329.707805 L740.869478,306.9162 L741.489319,306.112112 L794.520524,328.903717 C795.772224,329.441979 796.55335,330.44579 796.558442,331.524202 C796.564103,332.602142 795.793729,333.610674 794.546456,334.156018 L742.910527,356.729013 C742.045279,357.107213 741.509559,357.806481 741.512722,358.554853 C741.515884,359.303226 742.057929,360.000605 742.925706,360.374556 L772.130977,372.962325 C773.387104,373.503419 774.166333,374.511479 774.1657,375.593669 C774.165068,376.675386 773.384574,377.683446 772.129079,378.223124 L678.348379,418.581419 Z" id="Fill-43" fill="#4F9DED"></path>
                    <path d="M120.036858,411.735461 L119.415584,410.937993 L185.343679,382.528274 C186.216991,382.151809 186.755092,381.451857 186.747531,380.702209 C186.7406,379.951624 186.189897,379.257298 185.310914,378.89021 L154.583704,366.069315 C153.324144,365.543764 152.530855,364.54986 152.513212,363.475318 C152.496199,362.401246 153.256724,361.393277 154.498641,360.845223 L178.803294,350.121841 L179.434649,350.915089 L155.129996,361.638471 C154.268026,362.018686 153.740007,362.71817 153.752609,363.464067 C153.76395,364.209964 154.314653,364.90054 155.189225,365.265284 L185.916435,378.086647 C187.182926,378.615011 187.976216,379.614541 187.987013,380.695646 C187.996379,381.776282 187.221992,382.783782 185.965583,383.325741 L120.036858,411.735461 Z" id="Fill-45" fill="#4F9DED"></path>
                    <path d="M18.3537836,385.818621 L17.7272727,385.024494 L49.6933633,371.539729 C53.8581932,369.782205 59.0080871,369.817178 63.1295334,371.628794 L76.1082612,377.336434 C79.8424447,378.978779 84.5074625,379.008157 88.2805637,377.413375 L167.878069,343.76488 L168.506494,344.55854 L88.9083505,378.206569 C84.7403306,379.968756 79.5878848,379.935648 75.4619725,378.122167 L62.4826067,372.414993 C58.7522512,370.773581 54.0929753,370.742804 50.3198742,372.333855 L18.3537836,385.818621 Z" id="Fill-47" fill="#4F9DED"></path>
                    <path d="M18.3606937,287.04123 L17.7272727,286.250643 L80.2171275,259.783884 C81.0911204,259.41395 81.6349667,258.727596 81.6362463,257.992847 C81.6388056,257.257634 81.099438,256.569883 80.2273646,256.197158 L67.8743766,250.911996 C66.6190515,250.375011 65.8410314,249.383868 65.8448704,248.324789 C65.8487093,247.265709 66.6324877,246.276893 67.8916518,245.745026 L105.53669,229.828583 L106.168831,230.61917 L68.5237931,246.535614 C67.6498001,246.905547 67.1059539,247.591902 67.1033946,248.327581 C67.1008353,249.062329 67.6402028,249.750545 68.5116365,250.12327 L80.8652642,255.408432 C82.1199496,255.945417 82.8973298,256.93656 82.8947705,257.994709 C82.8915714,259.053789 82.1084328,260.042139 80.8499086,260.574471 L18.3606937,287.04123 Z" id="Fill-49" fill="#4F9DED"></path>
                    <path d="M37.8725128,249.877459 C35.6173172,249.877459 33.3621217,249.445798 31.3527531,248.582477 L17.7272727,242.731443 L18.3446694,241.934999 L31.9701498,247.786033 C35.5990845,249.344314 40.1107331,249.348523 43.7428113,247.800064 L96.2026712,225.42761 L96.8181818,226.224989 L44.3576932,248.597443 C42.3571266,249.450943 40.1145054,249.877459 37.8725128,249.877459" id="Fill-51" fill="#4F9DED"></path>
                    <path d="M268.05306,139.853138 C265.770418,139.853138 263.487777,139.418484 261.452113,138.548707 L239.40355,129.131378 C238.14065,128.591712 237.355793,127.586782 237.355793,126.50839 C237.355793,125.429998 238.14065,124.425069 239.402914,123.885402 L269.16701,111.17262 C270.043529,110.798715 270.587773,110.10035 270.587773,109.351598 C270.587773,108.602845 270.043529,107.90448 269.16701,107.530104 L250.744194,99.6611392 C247.057975,98.0868753 242.478688,98.0868753 238.79247,99.6611392 L227.149469,104.634457 C223.078779,106.374011 218.018265,106.37307 213.947575,104.634457 L174.491481,87.7818746 C173.227944,87.2426786 172.443724,86.2377492 172.443724,85.1584154 C172.443724,84.0800234 173.227944,83.0755649 174.490845,82.5354271 L185.20513,77.9595604 C186.081013,77.5851841 186.625257,76.8877612 186.625257,76.1390087 C186.625893,75.3902562 186.082286,74.6923623 185.205767,74.3179861 L57.8571429,19.8728481 L58.4841373,19.0708824 L185.832125,73.5160203 C187.093752,74.0556872 187.877972,75.0610876 187.877336,76.1394796 C187.877336,77.2174006 187.092479,78.2223301 185.830851,78.761997 L175.116566,83.3373928 C174.240047,83.71224 173.695803,84.4101338 173.695803,85.1584154 C173.695803,85.9076388 174.240047,86.6055327 175.116566,86.9799089 L214.57266,103.832491 C218.258878,105.407226 222.838166,105.407226 226.524384,103.832491 L238.167385,98.8591735 C242.239348,97.1196189 247.299225,97.1205607 251.369278,98.8591735 L269.792095,106.728138 C271.055632,107.267805 271.839852,108.272264 271.839852,109.351598 C271.839852,110.430931 271.055632,111.43539 269.792095,111.974586 L240.029272,124.687367 C239.152753,125.062215 238.607872,125.759638 238.607872,126.50839 C238.607872,127.257143 239.152753,127.954566 240.029908,128.329413 L262.077198,137.746741 C265.763416,139.321476 270.342704,139.321476 274.028922,137.746741 L287.491162,131.996416 L288.116883,132.798853 L274.654007,138.548707 C272.618344,139.418484 270.335702,139.853138 268.05306,139.853138" id="Fill-53" fill="#4F9DED"></path>
                </g>
                <path d="M38.5845674,617 C154.718628,685.491277 280.400624,712.152417 415.630553,696.983421 C550.860483,681.814426 674.983632,693.189215 788,731.10779 L788,1031 L38,1031 L38.5845674,617 Z" id="蒙版备份-3" fill="url(#linearGradient-10)" opacity="0.344885538" transform="translate(413.000000, 824.000000) scale(-1, 1) translate(-413.000000, -824.000000) "></path>
            </g>
        </g>
    </g>
</svg>