<?xml version="1.0" encoding="UTF-8"?>
<svg width="32px" height="32px" viewBox="0 0 32 32" version="1.1" xmlns="http://www.w3.org/2000/svg" xmlns:xlink="http://www.w3.org/1999/xlink">
    <title>进入箭头2小</title>
    <g id="页面-1" stroke="none" stroke-width="1" fill="none" fill-rule="evenodd">
        <g id="建木-H5" transform="translate(-658.000000, -1529.000000)" fill-rule="nonzero">
            <g id="进入箭头2小" transform="translate(658.000000, 1529.000000)">
                <rect id="矩形" fill="#000000" opacity="0" x="0" y="0" width="32" height="32"></rect>
                <path d="M30.328,16.9946667 L31.2706667,16.052 L18.276,3.05466666 C17.7542831,2.53796243 16.9137169,2.53796243 16.392,3.05466666 C16.1410543,3.30418016 15.9999535,3.64345381 15.9999535,3.99733333 C15.9999535,4.35121284 16.1410543,4.69048649 16.392,4.94 L27.4986667,16.0493333 L16.392,27.152 C16.1411346,27.4012852 15.9999535,27.7403383 15.9999535,28.094 C15.9999535,28.4476617 16.1411346,28.7867148 16.392,29.036 C16.912,29.556 17.7626667,29.5506667 18.276,29.0373333 L30.2733333,17.0466667 L30.328,16.9946667 L30.328,16.9946667 Z" id="路径" fill="#7B8C9C"></path>
            </g>
        </g>
    </g>
</svg>